<?xml version="1.0" encoding="utf-8"?>
<svg version="1.1" id="Слой_1" xmlns="http://www.w3.org/2000/svg" xmlns:xlink="http://www.w3.org/1999/xlink" x="0px" y="0px"
     width="200px" height="200px" viewBox="0 0 200 200" style="enable-background:new 0 0 200 200;" xml:space="preserve">
<g id="Слой_x0020_1">
	<path class="st0" d="M115.6,143.5c0,5.1-6.4,9.3-14.3,9.3S87,148.6,87,143.5c0-5.1,6.4-9.3,14.3-9.3S115.6,138.4,115.6,143.5z
		 M45.8,108.2h108.5l13.4-12.5c-6-1.7-13.9-3.2-23.3-4.4l-11.6,13.1H67.3L55.5,91c-9.3,1.1-17.4,2.5-23.6,4.1l14,13.1H45.8z
		 M168.9,92c1.4-0.4,2.6-0.9,3.8-1.3V67.6c-12.7-5-41-8.6-73.9-8.6c-30.8,0-57.6,3.1-71.3,7.6v25c0.4,0.1,0.8,0.3,1.2,0.4
		c6.6-2,15.8-3.7,26.8-5l11.8,13.4h65.5l11.6-13.1C154.4,88.5,162.8,90.1,168.9,92z M168.9,63c1.4-0.4,2.6-0.9,3.8-1.3V49.8
		c-12.7-5-41-8.6-73.9-8.6c-30.8,0-57.6,3.1-71.3,7.6v13.8c0.4,0.1,0.8,0.3,1.2,0.4c14-4.3,40.2-7.2,70.1-7.2S154.9,58.7,168.9,63z
		 M99.9,112.8h50.7c0,18.6-12.2,34.6-29.7,41.9c0-0.1,0-0.2,0-0.4c0-1.2-1.5-2.1-3.3-2c-1.8,0-3.2,1-3.2,2.1c0,0.8,0.8,1.6,2,1.9
		c-2,0.6-4,1.1-6.1,1.5c-0.3-1-1.6-1.7-3.2-1.7c-1.8,0-3.2,0.9-3.2,2.1c0,0.1,0,0.3,0.1,0.4c-1.3,0.1-2.7,0.1-4.1,0.1
		c-0.6,0-1.2,0-1.8,0c0.1-0.2,0.1-0.4,0.1-0.6c0-1.2-1.4-2.1-3.2-2.1c-1.8,0-3.2,0.9-3.3,2.1v0.1C67.5,154.7,49,135.7,49,112.8h50.7
		H99.9z M131.1,143.4c0-10.7-13.3-19.3-29.7-19.3s-29.7,8.6-29.7,19.3c0-10.6,5.3-23.5,29.8-23.5
		C125.8,119.9,131.2,132.8,131.1,143.4L131.1,143.4z M107.3,133.1c-0.1,1.2,1.3,2.1,3.1,2.2c1.8,0,3.3-0.9,3.3-2
		c0.1-1.2-1.3-2.1-3.1-2.2C108.8,131.1,107.3,132,107.3,133.1z M117.5,139.6c1.8-0.1,3.1-1.1,2.9-2.3s-1.7-2-3.5-1.9
		c-1.8,0.1-3.1,1.1-2.9,2.3C114.2,138.9,115.7,139.7,117.5,139.6z M119.2,141.4c-1.8,0.2-3,1.2-2.7,2.4c0.3,1.1,1.9,1.9,3.7,1.8
		c1.8-0.2,3-1.2,2.7-2.4C122.6,142.1,121,141.3,119.2,141.4z M119,151.2c1.5-0.6,1.9-1.9,0.9-2.9s-3-1.2-4.5-0.6
		c-1.5,0.6-1.9,1.9-0.9,2.9S117.5,151.8,119,151.2z M108.9,152c-1.5,0.6-2.1,1.9-1.2,2.9c0.9,1,2.9,1.4,4.4,0.8
		c1.5-0.6,2.1-1.9,1.2-2.9S110.4,151.4,108.9,152z M104.5,154.9c-0.5-1.1-2.2-1.8-3.9-1.5c-1.7,0.3-2.8,1.4-2.3,2.6
		c0.5,1.1,2.2,1.8,3.9,1.5C103.9,157.2,105,156.1,104.5,154.9z M95.4,154.1c0.2-1.2-1.1-2.2-2.9-2.3c-1.8-0.1-3.4,0.7-3.6,1.9
		c-0.2,1.1,1.1,2.2,2.9,2.3C93.6,156.1,95.2,155.3,95.4,154.1z M84.2,147.6c-1.6,0.5-2.4,1.7-1.7,2.7c0.7,1.1,2.6,1.6,4.2,1.1
		c1.6-0.5,2.4-1.7,1.7-2.7C87.7,147.6,85.8,147.1,84.2,147.6z M81.6,141.7c-1.6,0.5-2.2,1.8-1.4,2.8c0.8,1,2.7,1.4,4.3,0.9
		s2.2-1.8,1.4-2.8S83.2,141.2,81.6,141.7z M84.5,135.6c-1.7,0.4-2.6,1.6-2,2.7s2.4,1.7,4.1,1.3c1.7-0.4,2.6-1.6,2-2.7
		C88,135.8,86.2,135.2,84.5,135.6z M93.2,135.2c1.7-0.3,2.7-1.5,2.1-2.6c-0.5-1.1-2.3-1.7-4-1.4c-1.7,0.3-2.7,1.5-2.1,2.6
		C89.7,134.9,91.5,135.5,93.2,135.2z M106.1,130.7c1.5,0.6,3.5,0.2,4.4-0.8s0.4-2.3-1.2-2.9c-1.5-0.6-3.5-0.2-4.4,0.8
		S104.5,130.1,106.1,130.7z M118.2,135c1.8,0,3.2-1,3.2-2.1c0-1.2-1.5-2.1-3.3-2.1c-1.8,0-3.2,1-3.2,2.1
		C114.9,134.1,116.4,135,118.2,135z M124.1,141.8c1.8,0,3.2-1,3.2-2.1c0-1.2-1.5-2.1-3.3-2.1c-1.8,0-3.2,1-3.2,2.1
		C120.8,140.9,122.3,141.8,124.1,141.8z M123.9,145.5c-1.8,0-3.2,1-3.2,2.1c0,1.2,1.5,2.1,3.3,2.1c1.8,0,3.2-1,3.2-2.1
		C127.2,146.4,125.7,145.5,123.9,145.5z M84.7,152c-1.8,0-3.2,1-3.2,2.1c0,1.2,1.5,2.1,3.3,2.1c1.8,0,3.2-1,3.2-2.1
		C88,152.9,86.5,152,84.7,152z M78.8,145.2c-1.8,0-3.2,1-3.2,2.1c0,1.2,1.5,2.1,3.3,2.1s3.2-1,3.2-2.1
		C82.1,146.1,80.6,145.2,78.8,145.2z M78.9,141.5c1.8,0,3.3-0.9,3.3-2.1c0-1.2-1.4-2.1-3.2-2.1c-1.8,0-3.3,0.9-3.3,2.1
		C75.7,140.6,77.1,141.5,78.9,141.5z M85,134.7c1.8,0,3.3-0.9,3.3-2c0-1.2-1.4-2.1-3.1-2.1c-1.8,0-3.3,0.9-3.3,2
		C81.9,133.8,83.3,134.7,85,134.7z M95.6,130.8c1.8,0,3.2-0.9,3.2-2.1c0-1.2-1.4-2.1-3.2-2.1c-1.8,0-3.2,0.9-3.2,2.1
		C92.4,129.9,93.8,130.8,95.6,130.8z M101.4,133.6c1.8,0,3.2-0.9,3.2-2.1s-1.4-2.1-3.2-2.1s-3.2,0.9-3.2,2.1S99.6,133.6,101.4,133.6
		z"/>
</g>
</svg>
