<?xml version="1.0" encoding="utf-8"?>
<svg version="1.1" id="Слой_1" xmlns="http://www.w3.org/2000/svg" xmlns:xlink="http://www.w3.org/1999/xlink" x="0px" y="0px"
     width="200px" height="200px" viewBox="0 0 200 200" style="enable-background:new 0 0 200 200;" xml:space="preserve">
<g id="Слой_x0020_1">
	<g id="_1193432128">
		<path class="st0" d="M142.4,108.1h2.2c0,21.2-10.8,39.5-26.3,47.8c0-0.1,0-0.3,0-0.4c0-1.3-1.3-2.4-2.9-2.3
			c-1.6,0-2.8,1.1-2.8,2.4c0,1,0.7,1.8,1.7,2.1c-1.8,0.7-3.6,1.3-5.4,1.7c-0.3-1.1-1.4-1.9-2.8-1.9c-1.6,0-2.9,1.1-2.9,2.4
			c0,0.2,0,0.3,0.1,0.5c-1.2,0.1-2.4,0.2-3.6,0.2c-0.5,0-1,0-1.6,0c0.1-0.2,0.1-0.4,0.1-0.7c0-1.3-1.2-2.4-2.8-2.4s-2.9,1-2.9,2.4
			v0.1c-21.4-4-37.7-25.7-37.7-51.8h0.8c-0.2-0.2-0.3-0.4-0.3-0.6c0-2.8,19.6-5,43.7-5s43.7,2.2,43.7,5c0,0.2-0.1,0.4-0.3,0.6V108.1
			z M113.7,142.6c0,6.1-5.7,11.1-12.7,11.1s-12.7-5-12.7-11.1c0-6.1,5.7-11.1,12.7-11.1S113.7,136.5,113.7,142.6z M127.4,142.5
			c0-12.7-11.8-23.1-26.3-23.1s-26.3,10.3-26.3,23c0-12.7,4.6-28.1,26.4-28.1C122.7,114.3,127.4,129.7,127.4,142.5L127.4,142.5z
			 M106.3,130.2c-0.1,1.4,1.2,2.5,2.7,2.6c1.6,0.1,2.9-1,3-2.4c0.1-1.4-1.2-2.5-2.7-2.6C107.7,127.7,106.4,128.8,106.3,130.2z
			 M115.3,138c1.6-0.1,2.7-1.3,2.6-2.7s-1.5-2.4-3.1-2.3c-1.6,0.1-2.7,1.3-2.6,2.7C112.3,137.1,113.7,138.1,115.3,138z M116.8,140.1
			c-1.6,0.2-2.6,1.5-2.4,2.8c0.2,1.4,1.7,2.3,3.2,2.1c1.6-0.2,2.6-1.5,2.4-2.8C119.8,140.8,118.3,139.9,116.8,140.1z M116.6,151.8
			c1.3-0.8,1.7-2.3,0.8-3.5s-2.6-1.5-3.9-0.7c-1.3,0.8-1.7,2.3-0.8,3.5C113.6,152.3,115.3,152.6,116.6,151.8z M107.7,152.7
			c-1.4,0.7-1.8,2.2-1.1,3.4c0.8,1.2,2.5,1.6,3.9,0.9s1.8-2.2,1.1-3.4C110.8,152.4,109.1,152,107.7,152.7z M103.8,156.1
			c-0.4-1.3-2-2.1-3.5-1.8c-1.5,0.4-2.4,1.7-2,3.1c0.4,1.3,2,2.1,3.5,1.8C103.3,158.8,104.2,157.5,103.8,156.1z M95.8,155.1
			c0.2-1.4-1-2.6-2.5-2.8c-1.6-0.1-3,0.8-3.1,2.2c-0.2,1.4,1,2.6,2.5,2.8C94.3,157.4,95.7,156.5,95.8,155.1z M85.9,147.3
			c-1.5,0.5-2.1,2-1.5,3.3s2.3,1.9,3.7,1.3c1.5-0.5,2.1-2,1.5-3.3C89,147.3,87.3,146.7,85.9,147.3z M83.6,140.3
			c-1.4,0.6-2,2.1-1.3,3.4c0.7,1.2,2.4,1.7,3.8,1.1c1.4-0.6,2-2.1,1.3-3.4C86.7,140.2,85,139.7,83.6,140.3z M86.1,133.1
			c-1.5,0.5-2.3,1.9-1.8,3.2s2.1,2,3.6,1.6c1.5-0.4,2.3-1.9,1.8-3.2C89.2,133.4,87.6,132.7,86.1,133.1z M93.8,132.7
			c1.5-0.4,2.4-1.8,1.9-3.1s-2.1-2.1-3.6-1.7s-2.4,1.8-1.9,3.1S92.3,133.1,93.8,132.7z M105.2,127.3c1.4,0.7,3.1,0.3,3.9-0.9
			c0.8-1.2,0.3-2.7-1-3.4c-1.4-0.7-3.1-0.3-3.9,0.9C103.4,125.1,103.9,126.6,105.2,127.3z M115.9,132.4c1.6,0,2.8-1.1,2.8-2.5
			c0-1.4-1.3-2.5-2.9-2.5s-2.8,1.1-2.8,2.5C113,131.3,114.3,132.4,115.9,132.4z M121.1,140.6c1.6,0,2.8-1.1,2.8-2.5
			c0-1.4-1.3-2.5-2.9-2.5s-2.8,1.1-2.8,2.5C118.2,139.5,119.5,140.6,121.1,140.6z M120.9,145c-1.6,0-2.8,1.2-2.8,2.5
			c0,1.4,1.3,2.5,2.9,2.5s2.8-1.2,2.8-2.5C123.8,146.1,122.5,145,120.9,145z M86.2,152.8c-1.6,0-2.8,1.2-2.8,2.5
			c0,1.4,1.3,2.5,2.9,2.5s2.8-1.2,2.8-2.5C89.1,153.9,87.8,152.8,86.2,152.8z M81,144.6c-1.6,0-2.8,1.1-2.8,2.5
			c0,1.4,1.3,2.5,2.9,2.5c1.6,0,2.8-1.1,2.8-2.5C83.9,145.7,82.6,144.6,81,144.6z M81.1,140.2c1.6,0,2.9-1.1,2.9-2.5
			c0-1.4-1.2-2.5-2.8-2.5c-1.6,0-2.9,1.1-2.9,2.5C78.3,139.1,79.5,140.2,81.1,140.2z M86.5,132.1c1.6,0,2.9-1.1,2.9-2.4
			c0-1.4-1.2-2.5-2.8-2.6c-1.6,0-2.9,1.1-2.9,2.4C83.7,130.9,84.9,132,86.5,132.1z M95.9,127.5c1.6,0,2.9-1.1,2.9-2.5
			s-1.3-2.5-2.9-2.5S93,123.6,93,125S94.3,127.5,95.9,127.5z M101,130.9c1.6,0,2.9-1.1,2.9-2.5c0-1.4-1.3-2.5-2.9-2.5
			s-2.9,1.1-2.9,2.5C98.1,129.8,99.4,130.9,101,130.9z"/>
		<path class="st0" d="M161.3,63.2c1.2-0.5,2.3-0.9,3.3-1.4v-13c-11.3-5.5-36.5-9.3-65.8-9.3c-27.4,0-51.3,3.4-63.5,8.3v15
			c0.3,0.1,0.7,0.3,1.1,0.4c12.5-4.7,35.7-7.9,62.4-7.9s49.9,3.2,62.4,7.9H161.3z"/>
		<path class="st0" d="M161.3,83.1c1.2-0.5,2.3-0.9,3.3-1.4V67.5c-11.3-5.5-36.5-9.3-65.8-9.3c-27.4,0-51.3,3.4-63.5,8.3v16.2
			c0.3,0.1,0.7,0.3,1.1,0.4c12.5-4.7,35.7-7.9,62.4-7.9s49.9,3.2,62.4,7.9H161.3z"/>
		<path class="st0" d="M146.2,106.9c0.9-0.6,1.8-1.2,2.5-1.8l15.9-17.7c-11.3-5.5-36.5-9.3-65.8-9.3c-27.4,0-51.3,3.4-63.5,8.3
			l15.9,19.9c0.3,0.2,0.5,0.3,0.8,0.5c9.4-5.8,26.9-8.4,47-8.4s37.6,2.6,47,8.4L146.2,106.9z"/>
	</g>
</g>
</svg>
