<?xml version="1.0" encoding="utf-8"?>
<svg version="1.1" id="Слой_1" xmlns="http://www.w3.org/2000/svg" xmlns:xlink="http://www.w3.org/1999/xlink" x="0px" y="0px"
     width="200px" height="200px" viewBox="0 0 200 200" style="enable-background:new 0 0 200 200;" xml:space="preserve">
<g id="Слой_x0020_1">
	<g id="_1193428360">
		<path class="st0" d="M67.4,49.7l0.5-0.1c3.2-0.8,7-1.4,11.1-1.9c2.5-3.1,10.9-5.3,21-5.3c10,0,18.5,2.3,21,5.3
			c4.3,0.5,8.2,1.2,11.5,2h0.2v0.1l9.8,53.5c-3-3-20.8-5.3-42.4-5.3s-39.5,2.3-42.4,5.3L67.4,49.7L67.4,49.7z"/>
		<path class="st0" d="M140.9,105.2l-5.9,5.2v21.9c0,19.2-15.7,35-35,35h-2.7c-17.9,0-32.5-14.6-32.5-32.5V132
			c0.6,14.7,8.6,26.3,19.7,26.3h1.7c12.4,0,22.6-13.6,22.6-30.3v-6.5c-4.4-12.9-37.2-15.8-44,3.3v-13.4l-5.9-6.3
			c13-4.6,27.2-4.7,40.9-4.7s27.9,0.1,40.9,4.7L140.9,105.2z"/>
		<path class="st0" d="M99.4,128.8c-0.1-2.2,1.1-4.1,2.9-4.2c1.7-0.2,3.2,1.4,3.4,3.6c0,0,0.9,13.3-7.5,22.3
			c-1.3,1.4-3.3,1.2-4.4-0.5s-0.9-4.1,0.4-5.5C100.2,138.1,99.5,128.9,99.4,128.8L99.4,128.8z"/>
		<path class="st0" d="M67.8,130.6c0-2.2,1.4-3.9,3.1-3.9s3.1,1.8,3.1,3.9c0,0,0,10.7,4.3,14.5c1.4,1.2,1.7,3.7,0.7,5.5
			s-2.9,2.2-4.3,0.9C67.8,145.3,67.8,130.6,67.8,130.6z"/>
		<ellipse class="st0" cx="86.1" cy="129.5" rx="9.6" ry="14.9"/>
		<path class="st0" d="M97.8,32.7h4.4c2.4,0,4.4,2,4.4,4.4v4.1c-0.6-0.3-1.3-0.5-2-0.5h-9.1c-0.7,0-1.4,0.2-2,0.5v-4.1
			C93.5,34.7,95.5,32.7,97.8,32.7L97.8,32.7z"/>
	</g>
</g>
</svg>
