<?xml version="1.0" encoding="utf-8"?>
<svg version="1.1" id="Слой_1" xmlns="http://www.w3.org/2000/svg" xmlns:xlink="http://www.w3.org/1999/xlink" x="0px" y="0px"
     width="200px" height="200px" viewBox="0 0 200 200" style="enable-background:new 0 0 200 200;" xml:space="preserve">
<g id="Слой_x0020_1">
	<g id="_1193437168">
		<path class="st0" d="M187.4,64l-63.7,18.9c4.2,3.6,7.5,8.4,9.5,15c1,3.5,1.7,7.4,1.9,11.8l52.3-15.5V64z M119,84.3l-24.2,7.2v11.3
			c0,10.4,7.8,16.6,17.4,13.7l18.9-5.6c-0.1-4.5-0.8-8.4-1.8-11.9C127.2,92.2,123.6,87.5,119,84.3L119,84.3z"/>
		<path class="st0" d="M187.4,97.4l-52.2,16.4c0,0.6,0,1.1,0,1.7c0,1.1-1,2-2.1,1.9c-1.1,0-2-1-1.9-2.1V115l-18.8,5.9
			c-8.2,2.6-15.3,12-17.1,20.9l92.1-29.8V97.4L187.4,97.4z"/>
		<path class="st0" d="M148.2,57.5L55.9,77.8l7.5,1.7c0.2-0.2,0.5-0.4,0.8-0.4c6.2-1.9,20-5.4,33.7-4.9c7.3,0.3,14.6,1.7,20.8,5.2
			l59.7-16.8v-0.9l-30.2-4.1V57.5z M71.3,81.3l21.5,4.8v0.6l20-5.6c-4.7-1.8-9.9-2.7-15.1-2.9C88,77.8,78.2,79.6,71.3,81.3z"/>
		<path class="st0" d="M55.5,82l31.4,6.6c2.2,0.5,3.9,2.7,3.9,4.9v45c0,2.3-1.9,4.1-3.9,3.3l-18.7-7.5c6.4-3.1,10.6-12.9,9.9-24.5
			c-0.8-14.1-8.6-25.6-17.4-25.6h-0.1l0,0l0,0c-1.7,0-3.4,0.5-4.9,1.3l-4.1,1.1v-1.4C51.6,82.9,53.4,81.5,55.5,82L55.5,82z"/>
		<path class="st0" d="M19.2,105.2c0.1,0,0.1,0,0.2,0l0,0l22.7-5.7c0.8-0.5,1.6-0.7,2.4-0.7c4.9,0,9.3,8.3,10,18.6
			c0.6,10.2-2.8,18.4-7.6,18.6v0.1l-24.1,6c-0.4,0.2-0.7,0.2-1.1,0.3l0,0l0,0c-0.1,0-0.1,0-0.2,0c-4.2,0-8.1-8.3-8.7-18.6
			s2.3-18.6,6.5-18.6H19.2z M21.7,111.6c3.1,0,5.9,5.7,6.2,12.6c0.4,7-1.9,12.6-4.9,12.6c-3.1,0-5.9-5.7-6.3-12.6
			c-0.4-7,1.9-12.6,4.9-12.6H21.7z"/>
		<path class="st0" d="M39.3,92.4h0.2l16-4.4c1.4-0.8,2.9-1.2,4.5-1.2l0,0l0,0h0.1c8,0,15.1,10.4,15.8,23.3
			c0.8,12.9-5.1,23.3-13,23.3h-0.1v0.1l-12.2,3.4c4-2.4,6.5-10.4,5.9-19.8c-0.7-11.4-5.6-20.6-11-20.6c-1,0-1.9,0.3-2.7,0.8
			l-10.4,2.6C33.9,95.3,36.3,92.3,39.3,92.4L39.3,92.4z"/>
		<path class="st0" d="M93.7,110.8c0.7,4.5,4.4,6.1,10.4,10.3c-3.7,3.2-8.1,7.9-10.4,12.5V110.8z"/>
	</g>
</g>
</svg>
