<?xml version="1.0" encoding="utf-8"?>
<svg version="1.1" id="Слой_1" xmlns="http://www.w3.org/2000/svg" xmlns:xlink="http://www.w3.org/1999/xlink" x="0px" y="0px"
     width="200px" height="200px" viewBox="0 0 200 200" style="enable-background:new 0 0 200 200;" xml:space="preserve">
<g id="Слой_x0020_1">
	<g id="_1196310744">
		<g>
			<path class="st0" d="M63.9,70l5.8-6.4c2.9,2,17.5,14.1,23.6,0.4c0.9-1.9,2.1-8.3,2.4-11.1h8.6c1.9,8.3,1.1,13.5,9,16.8
				c7.2,3,11.7-2.5,16.7-5.8l6.4,5.8c-2.9,5-6.4,7.9-6.4,11.3c0,11.2,6.9,13.8,17.1,14.7v8.6c-19.8,4.6-21.9,9.5-11,25.7l-5.8,6.4
				c-2.5-1.8-8.4-6.4-11.3-6.4c-13,0-12.3,7-14.7,17.1h-8.6c-0.8-9.4-3.2-17.1-13.5-17.1c-4.8,0-9,4-12.2,6.1l-6.4-5.8
				c4.1-5.9,8.9-9.6,5.9-16.7c-3.6-8.4-7.7-7.1-16.6-9.2v-8.6c2.2-0.2,8.2-1.3,10.2-2c4.6-1.7,4.6-2.6,6.4-7.2
				C72.2,79.8,70.3,79.7,63.9,70L63.9,70z M85.9,61.4c-6.9,1.6-5.9-1-11.8-4.2c-5.8-3.2-8.5-0.7-12.4,3.2c-7.8,7.7-7.5,9.2-1.9,17.4
				c9.3,13.7-14.3,6.3-14.3,16.6c0,21,0.8,14.9,12,18.6c4.5,1.5,5.9,3.8,3.1,8.6c-1.1,1.8-3.5,4.4-4.1,5.9c-2.1,4.8,1.2,8,4.6,11.3
				c3.5,3.5,5.9,6.9,11.4,4.7c2-0.8,3.6-2.2,5.4-3.4l4.3-1.9c6.3-0.3,4.6,2.6,7.4,15c8.4,1.9,7.1,1.2,17.1,1.2c5.6,0,5.3-8.8,6.3-12
				c3.2-9.6,8.8-1.1,14.5,1.1c7,2.8,18.9-9.1,16.1-16.1c-0.8-2-2.2-3.6-3.4-5.4l-1.9-4.3c0-0.1,0.1-0.6,0.1-0.7
				c0.2-4.3,4.5-4.1,8.2-4.8c9.4-1.7,7.8-2.3,7.8-16.6c0-3.3-0.6-3.4-1.2-6.1c-2.7-0.6-4.7-1.1-7.9-1.9c-13-3.1-4.8-7.6-1.7-15.3
				c3-7.4-9.7-18.8-16-16c-1.8,0.8-3.3,2.4-5.2,3.6c-2.3,1.5,0.4,0.8-3,1.6l-2.2-0.1c-8.4-0.9-0.5-16.1-12.9-16.1
				C82,45.3,92.2,48.2,86,61.2L85.9,61.4z"/>
			<path class="st0" d="M79.8,100.5c0-27.3,40.4-28.2,40.4,0C120.2,126.5,79.8,126.5,79.8,100.5z M76.1,96.8
				c0,39.8,47.7,30.1,47.7,7.3c0-9.2,0.9-14-7.2-22.1C102.6,68.1,76.1,79.6,76.1,96.8z"/>
			<path class="st0" d="M90.8,100.5c0-20.3,29.1-5.3,16.2,6.4C101.6,111.8,90.8,110,90.8,100.5z M85.9,99.3c0,19.6,28.1,19.6,28.1,0
				C114,81.5,85.9,81.9,85.9,99.3z"/>
		</g>
	</g>
</g>
</svg>
