<?xml version="1.0" encoding="utf-8"?>
<svg version="1.1" id="Слой_1" xmlns="http://www.w3.org/2000/svg" xmlns:xlink="http://www.w3.org/1999/xlink" x="0px" y="0px"
     width="15px" height="14px" viewBox="0 0 15 14" style="enable-background:new 0 0 15 14;" xml:space="preserve">
<g>
	<path class="st0" d="M8.9,10.1c0.2,0.1,0.4,0.2,0.6,0.2c0.2,0,0.3-0.2,0.4-0.3C10.2,9.7,11,8.6,11,8.6s0.3-0.3,0.7-0.1
		c0.4,0.3,1.4,1,3.1,2c0.3,0.2,0.1,0.6,0.1,0.6s-1.2,1.9-3,2.8c-0.4,0.3-1.4,0-1.4,0S2.8,12.2,0.1,4.3c-0.2-0.4,0-1,0-1
		s0.2-1.4,2.4-3.2c0.3-0.3,0.7,0,0.7,0S4.3,1.2,5.6,3c0.1,0.1,0.1,0.2,0.1,0.3c0,0.1-0.1,0.2-0.1,0.3C4.6,4.3,4.1,5,4,5.2
		C3.9,5.3,3.9,5.5,4.1,5.8C4.3,6.1,6,8.7,8.9,10.1L8.9,10.1z"/>
</g>
</svg>
