<?xml version="1.0" encoding="utf-8"?>
<svg version="1.1" id="Слой_1" xmlns="http://www.w3.org/2000/svg" xmlns:xlink="http://www.w3.org/1999/xlink" x="0px" y="0px"
     width="40px" height="30px" viewBox="0 0 40 30" style="enable-background:new 0 0 40 30;" xml:space="preserve">
<g>
	<path class="st0" d="M21,27.8c0,0.7-0.6,1.3-1.3,1.3c-0.7,0-1.3-0.6-1.3-1.3V1.3c0-0.7,0.6-1.3,1.3-1.3C20.4,0,21,0.6,21,1.3V27.8
		L21,27.8z"/>
	<path class="st1" d="M6.8,16.4H0.6c0,3.4,2.8,6.2,6.2,6.2c3.4,0,6.2-2.8,6.2-6.2H6.8L6.8,16.4z"/>
	<path class="st0" d="M13.5,30c-0.7,0-1.3-0.6-1.3-1.3c0-0.7,0.6-1.3,1.3-1.3h12.2c0.7,0,1.3,0.6,1.3,1.3c0,0.7-0.6,1.3-1.3,1.3
		H13.5L13.5,30z"/>
	<path class="st1" d="M33.2,16.4H27c0,3.4,2.8,6.2,6.2,6.2c3.4,0,6.2-2.8,6.2-6.2H33.2L33.2,16.4z"/>
	<polygon class="st0" points="26.9,16.2 32.1,4.1 32.9,2.4 33.7,4.1 39.2,16 37.6,16.7 32.8,6.4 28.6,16.6 26.9,16.2 	"/>
	<polygon class="st0" points="0.5,16.2 5.7,4.1 6.4,2.4 7.2,4.1 12.7,16 11.1,16.7 6.3,6.4 2.2,16.6 0.5,16.2 	"/>
	<path class="st0" d="M8.1,6.8c-0.7,0-1.3-0.6-1.3-1.3c0-0.7,0.6-1.3,1.3-1.3h23.1c0.7,0,1.3,0.6,1.3,1.3c0,0.7-0.6,1.3-1.3,1.3H8.1
		L8.1,6.8z"/>
</g>
</svg>
