<?xml version="1.0" encoding="utf-8"?>
<svg version="1.1" id="Слой_1" xmlns="http://www.w3.org/2000/svg" xmlns:xlink="http://www.w3.org/1999/xlink" x="0px" y="0px"
     width="200px" height="200px" viewBox="0 0 200 200" style="enable-background:new 0 0 200 200;" xml:space="preserve">
<g id="Слой_x0020_1">
	<path class="st0" d="M43.5,59.6h112.9c19.9,0,36.2,16.3,36.2,36.2v18.7c0,14.2-11.7,25.9-25.9,25.9H33.1
		c-14.2,0-25.9-11.6-25.9-25.9V95.8C7.2,75.9,23.5,59.6,43.5,59.6L43.5,59.6z M167.1,82.2c0.3-0.3,0.9-0.3,1.2,0
		c0.3,0.3,0.3,0.9,0,1.2l-1.6,1.6c1.3,1.7,2.1,3.8,2.1,6.1c0,2.4-0.9,4.6-2.3,6.3l1.8,1.8c0.3,0.3,0.3,0.9,0,1.2s-0.9,0.3-1.2,0
		l-1.8-1.8c-1.7,1.4-3.9,2.3-6.3,2.3c-2.3,0-4.4-0.8-6.1-2.1l-1.6,1.6c-0.3,0.3-0.9,0.3-1.2,0s-0.3-0.9,0-1.2l1.6-1.6
		c-1.5-1.7-2.5-4-2.5-6.5c0-2.4,0.9-4.6,2.3-6.3l-1.4-1.4c-0.3-0.3-0.3-0.9,0-1.2c0.3-0.3,0.9-0.3,1.2,0l1.4,1.4
		c1.7-1.4,3.9-2.3,6.3-2.3c2.5,0,4.8,0.9,6.5,2.5L167.1,82.2z M42.5,63.2h114.9c8,0,15.2,3.3,20.5,8.5c5.3,5.3,8.5,12.5,8.5,20.5
		s-3.3,15.2-8.5,20.5c-5.3,5.3-12.5,8.5-20.5,8.5H42.5c-8,0-15.2-3.3-20.5-8.5c-5.3-5.3-8.5-12.5-8.5-20.5S16.8,77,22,71.7
		C27.3,66.4,34.5,63.2,42.5,63.2z M157.4,66.3H42.5c-7.1,0-13.6,2.9-18.3,7.6s-7.6,11.2-7.6,18.3c0,7.1,2.9,13.6,7.6,18.3
		c4.7,4.7,11.2,7.6,18.3,7.6h114.9c7.1,0,13.6-2.9,18.3-7.6c4.7-4.7,7.6-11.2,7.6-18.3c0-7.1-2.9-13.6-7.6-18.3
		C171,69.2,164.5,66.3,157.4,66.3z M137,106.2c-1.1,0-2.1,0.9-2.1,2.1c0,1.1,0.9,2.1,2.1,2.1c1.1,0,2.1-0.9,2.1-2.1
		C139.1,107.2,138.2,106.2,137,106.2z M137,99.3c-1.1,0-2.1,0.9-2.1,2.1c0,1.1,0.9,2.1,2.1,2.1c1.1,0,2.1-0.9,2.1-2.1
		C139.1,100.3,138.2,99.3,137,99.3z M137,92.4c-1.1,0-2.1,0.9-2.1,2.1c0,1.1,0.9,2.1,2.1,2.1c1.1,0,2.1-0.9,2.1-2.1
		C139.1,93.4,138.2,92.4,137,92.4z M137,85.5c-1.1,0-2.1,0.9-2.1,2.1c0,1.1,0.9,2.1,2.1,2.1c1.1,0,2.1-0.9,2.1-2.1
		C139.1,86.5,138.2,85.5,137,85.5z M121.8,85.5c-1.1,0-2.1,0.9-2.1,2.1c0,1.1,0.9,2.1,2.1,2.1c1.1,0,2.1-0.9,2.1-2.1
		C123.9,86.5,123,85.5,121.8,85.5z M121.8,92.4c-1.1,0-2.1,0.9-2.1,2.1c0,1.1,0.9,2.1,2.1,2.1c1.1,0,2.1-0.9,2.1-2.1
		C123.9,93.4,123,92.4,121.8,92.4z M121.8,99.3c-1.1,0-2.1,0.9-2.1,2.1c0,1.1,0.9,2.1,2.1,2.1c1.1,0,2.1-0.9,2.1-2.1
		C123.9,100.3,123,99.3,121.8,99.3z M121.8,106.2c-1.1,0-2.1,0.9-2.1,2.1c0,1.1,0.9,2.1,2.1,2.1c1.1,0,2.1-0.9,2.1-2.1
		C123.9,107.2,123,106.2,121.8,106.2z M129.3,106.2c-1.1,0-2.1,0.9-2.1,2.1c0,1.1,0.9,2.1,2.1,2.1c1.1,0,2.1-0.9,2.1-2.1
		C131.4,107.2,130.5,106.2,129.3,106.2z M114.3,106.2c-1.1,0-2.1,0.9-2.1,2.1c0,1.1,0.9,2.1,2.1,2.1c1.1,0,2.1-0.9,2.1-2.1
		C116.4,107.2,115.5,106.2,114.3,106.2z M129.3,99.3c-1.1,0-2.1,0.9-2.1,2.1c0,1.1,0.9,2.1,2.1,2.1c1.1,0,2.1-0.9,2.1-2.1
		C131.4,100.3,130.5,99.3,129.3,99.3z M114.3,99.3c-1.1,0-2.1,0.9-2.1,2.1c0,1.1,0.9,2.1,2.1,2.1c1.1,0,2.1-0.9,2.1-2.1
		C116.4,100.3,115.5,99.3,114.3,99.3z M129.3,92.4c-1.1,0-2.1,0.9-2.1,2.1c0,1.1,0.9,2.1,2.1,2.1c1.1,0,2.1-0.9,2.1-2.1
		C131.4,93.4,130.5,92.4,129.3,92.4z M114.3,92.4c-1.1,0-2.1,0.9-2.1,2.1c0,1.1,0.9,2.1,2.1,2.1c1.1,0,2.1-0.9,2.1-2.1
		C116.4,93.4,115.5,92.4,114.3,92.4z M129.3,85.5c-1.1,0-2.1,0.9-2.1,2.1c0,1.1,0.9,2.1,2.1,2.1c1.1,0,2.1-0.9,2.1-2.1
		C131.4,86.5,130.5,85.5,129.3,85.5z M114.3,85.5c-1.1,0-2.1,0.9-2.1,2.1c0,1.1,0.9,2.1,2.1,2.1c1.1,0,2.1-0.9,2.1-2.1
		C116.4,86.5,115.5,85.5,114.3,85.5z M98.4,70.3h36.8v11.4H98.4V70.3z M103.5,73.4h26.7v6.7h-26.7V73.4z M99.4,85.4
		c1.1,0,2.1,0.9,2.1,2.1c0,1.1-0.9,2.1-2.1,2.1c-1.1,0-2.1-0.9-2.1-2.1C97.3,86.4,98.2,85.4,99.4,85.4z M91.9,78.5
		c1.1,0,2.1,0.9,2.1,2.1c0,1.1-0.9,2.1-2.1,2.1c-1.1,0-2.1-0.9-2.1-2.1C89.8,79.5,90.7,78.5,91.9,78.5z M99.4,92.2
		c1.1,0,2.1,0.9,2.1,2.1c0,1.1-0.9,2.1-2.1,2.1c-1.1,0-2.1-0.9-2.1-2.1C97.3,93.2,98.2,92.2,99.4,92.2z M99.4,99.1
		c1.1,0,2.1,0.9,2.1,2.1c0,1.1-0.9,2.1-2.1,2.1c-1.1,0-2.1-0.9-2.1-2.1C97.3,100.1,98.2,99.1,99.4,99.1z M99.4,106
		c1.1,0,2.1,0.9,2.1,2.1c0,1.1-0.9,2.1-2.1,2.1c-1.1,0-2.1-0.9-2.1-2.1C97.3,107,98.2,106,99.4,106z M91.9,106
		c1.1,0,2.1,0.9,2.1,2.1c0,1.1-0.9,2.1-2.1,2.1c-1.1,0-2.1-0.9-2.1-2.1C89.8,107,90.7,106,91.9,106z M106.9,106
		c1.1,0,2.1,0.9,2.1,2.1c0,1.1-0.9,2.1-2.1,2.1c-1.1,0-2.1-0.9-2.1-2.1C104.8,107,105.7,106,106.9,106z M91.9,99.1
		c1.1,0,2.1,0.9,2.1,2.1c0,1.1-0.9,2.1-2.1,2.1c-1.1,0-2.1-0.9-2.1-2.1C89.8,100.1,90.7,99.1,91.9,99.1z M106.9,99.1
		c1.1,0,2.1,0.9,2.1,2.1c0,1.1-0.9,2.1-2.1,2.1c-1.1,0-2.1-0.9-2.1-2.1C104.8,100.1,105.7,99.1,106.9,99.1z M91.9,92.2
		c1.1,0,2.1,0.9,2.1,2.1c0,1.1-0.9,2.1-2.1,2.1c-1.1,0-2.1-0.9-2.1-2.1C89.8,93.2,90.7,92.2,91.9,92.2z M106.9,92.2
		c1.1,0,2.1,0.9,2.1,2.1c0,1.1-0.9,2.1-2.1,2.1c-1.1,0-2.1-0.9-2.1-2.1C104.8,93.2,105.7,92.2,106.9,92.2z M91.9,85.3
		c1.1,0,2.1,0.9,2.1,2.1c0,1.1-0.9,2.1-2.1,2.1c-1.1,0-2.1-0.9-2.1-2.1C89.8,86.3,90.7,85.3,91.9,85.3z M106.9,85.3
		c1.1,0,2.1,0.9,2.1,2.1c0,1.1-0.9,2.1-2.1,2.1c-1.1,0-2.1-0.9-2.1-2.1C104.8,86.3,105.7,85.3,106.9,85.3z M59.1,105.9
		c1.1,0,2.1,0.9,2.1,2.1c0,1.1-0.9,2.1-2.1,2.1c-1.1,0-2.1-0.9-2.1-2.1C57,106.9,57.9,105.9,59.1,105.9z M70.5,71.7
		c2.6,0,5.2,0,7.8,0c0,1,0,2.1,0,3.1c-2.6,0-5.2,0-7.8,0C70.5,73.8,70.5,72.7,70.5,71.7z M60.8,71.7h7.8v3.1h-7.8V71.7z M80.2,71.7
		H88v3.1h-7.8V71.7z M74.4,105.9c1.1,0,2.1,0.9,2.1,2.1c0,1.1-0.9,2.1-2.1,2.1c-1.1,0-2.1-0.9-2.1-2.1
		C72.3,106.9,73.2,105.9,74.4,105.9z M66.9,105.9c1.1,0,2.1,0.9,2.1,2.1c0,1.1-0.9,2.1-2.1,2.1c-1.1,0-2.1-0.9-2.1-2.1
		C64.8,106.9,65.7,105.9,66.9,105.9z M81.9,105.9c1.1,0,2.1,0.9,2.1,2.1c0,1.1-0.9,2.1-2.1,2.1c-1.1,0-2.1-0.9-2.1-2.1
		C79.8,106.9,80.7,105.9,81.9,105.9z M74.4,99c1.1,0,2.1,0.9,2.1,2.1c0,1.1-0.9,2.1-2.1,2.1c-1.1,0-2.1-0.9-2.1-2.1
		C72.3,100,73.2,99,74.4,99z M66.9,99c1.1,0,2.1,0.9,2.1,2.1c0,1.1-0.9,2.1-2.1,2.1c-1.1,0-2.1-0.9-2.1-2.1
		C64.8,100,65.7,99,66.9,99z M81.9,99c1.1,0,2.1,0.9,2.1,2.1c0,1.1-0.9,2.1-2.1,2.1c-1.1,0-2.1-0.9-2.1-2.1
		C79.8,100,80.7,99,81.9,99z M74.4,92.1c1.1,0,2.1,0.9,2.1,2.1c0,1.1-0.9,2.1-2.1,2.1c-1.1,0-2.1-0.9-2.1-2.1
		C72.3,93.1,73.2,92.1,74.4,92.1z M66.9,92.1c1.1,0,2.1,0.9,2.1,2.1c0,1.1-0.9,2.1-2.1,2.1c-1.1,0-2.1-0.9-2.1-2.1
		C64.8,93.1,65.7,92.1,66.9,92.1z M81.9,92.1c1.1,0,2.1,0.9,2.1,2.1c0,1.1-0.9,2.1-2.1,2.1c-1.1,0-2.1-0.9-2.1-2.1
		C79.8,93.1,80.7,92.1,81.9,92.1z M74.4,85.2c1.1,0,2.1,0.9,2.1,2.1c0,1.1-0.9,2.1-2.1,2.1c-1.1,0-2.1-0.9-2.1-2.1
		C72.3,86.2,73.2,85.2,74.4,85.2z M66.9,85.2c1.1,0,2.1,0.9,2.1,2.1c0,1.1-0.9,2.1-2.1,2.1c-1.1,0-2.1-0.9-2.1-2.1
		C64.8,86.2,65.7,85.2,66.9,85.2z M81.9,85.2c1.1,0,2.1,0.9,2.1,2.1c0,1.1-0.9,2.1-2.1,2.1c-1.1,0-2.1-0.9-2.1-2.1
		C79.8,86.2,80.7,85.2,81.9,85.2z M74.4,78.3c1.1,0,2.1,0.9,2.1,2.1c0,1.1-0.9,2.1-2.1,2.1c-1.1,0-2.1-0.9-2.1-2.1
		C72.3,79.3,73.2,78.3,74.4,78.3z M66.9,78.3c1.1,0,2.1,0.9,2.1,2.1c0,1.1-0.9,2.1-2.1,2.1c-1.1,0-2.1-0.9-2.1-2.1
		C64.8,79.3,65.7,78.3,66.9,78.3z M81.9,78.3c1.1,0,2.1,0.9,2.1,2.1c0,1.1-0.9,2.1-2.1,2.1c-1.1,0-2.1-0.9-2.1-2.1
		C79.8,79.3,80.7,78.3,81.9,78.3z M159,73.1c9.7,0,17.6,7.9,17.6,17.6s-7.9,17.6-17.6,17.6s-17.6-7.9-17.6-17.6S149.3,73.1,159,73.1
		z M43,73.1c9.7,0,17.6,7.9,17.6,17.6s-7.9,17.6-17.6,17.6s-17.6-7.9-17.6-17.6S33.3,73.1,43,73.1z M43,80.9c5.4,0,9.8,4.4,9.8,9.8
		c0,5.4-4.4,9.8-9.8,9.8s-9.8-4.4-9.8-9.8C33.2,85.3,37.6,80.9,43,80.9z"/>
</g>
</svg>
