<?xml version="1.0" encoding="utf-8"?>
<svg version="1.1" id="Слой_1" xmlns="http://www.w3.org/2000/svg" xmlns:xlink="http://www.w3.org/1999/xlink" x="0px" y="0px"
     width="200px" height="200px" viewBox="0 0 200 200" style="enable-background:new 0 0 200 200;" xml:space="preserve">
<g id="Слой_x0020_1">
	<path class="st0" d="M21.6,107.4c0,0,42.5-5.1,44.7-5c2.2,0.1,16.7,3,16.7,3l-36.7,6.8c0,0-6.3-4.8-24.8-4.8H21.6z M57.6,42
		l-7.3,5.9l2,19.9c0,0,5-0.2,7.8,4C59.5,63.2,57.7,42,57.6,42L57.6,42z M88.8,105.4l-0.7,0.1l-1,0.1l0.1-0.8
		c0.1-0.5-0.7-0.7-1.7-0.9c-5.1-0.9-10.2-1.9-15.3-2.8l-2.6-2.3l-3.8-44.6l7.3-8.1l53-1.3l6.5,6.3l4.2,41.5l-2.9,4.8
		c-1.2-0.6-2.5-1.2-3.7-1.8v-0.3c0.8-0.8,1.3-2.2,1.1-3.8c-0.3-2.3-2-4.1-3.8-4c-1.7,0.1-2.9,2.1-2.6,4.5c0.1,0.8,0.4,1.5,0.8,2.1
		l-6.2,0.3H117c0.1-0.5,0.1-1,0-1.6c-0.3-2.4-2.1-4.2-4-4.1c-1.8,0.1-3.1,2.2-2.7,4.6c0.1,0.5,0.2,0.9,0.4,1.3
		c-2,0.1-3.9,0.1-5.9,0.2c0-0.2,0-0.4-0.1-0.6c-0.4-2.4-2.2-4.3-4.2-4.1c-1.9,0.1-3.2,2.2-2.8,4.7c0,0.1,0,0.2,0.1,0.4H97
		c-1.9,0.1-3.4,0.4-4.5,1.2c0-0.2,0-0.5-0.1-0.7c-0.4-2.5-2.3-4.4-4.4-4.2c-2,0.1-3.4,2.3-3,4.8s2.3,4.4,4.4,4.2c0.1,0,0.2,0,0.3,0
		l-0.1,0.2l-0.1,0.2l-0.8,4.7L88.8,105.4z M110.3,62c-1.8,0-3.1,2-2.7,4.4c0.3,2.4,2.1,4.3,4,4.3c1.8,0,3.1-2,2.7-4.4
		C114,63.9,112.2,62,110.3,62z M108.9,48.7c-1.8,0-3.1,2-2.7,4.4c0.3,2.4,2.1,4.4,4,4.4c1.8,0,3.1-2,2.7-4.4
		C112.6,50.7,110.8,48.7,108.9,48.7z M121.4,48.3c-1.7,0-2.9,1.9-2.6,4.3c0.3,2.4,2,4.3,3.8,4.3c1.7,0,2.9-1.9,2.6-4.3
		C124.9,50.2,123.2,48.3,121.4,48.3z M96.4,49.1c-1.9,0-3.2,2-2.8,4.5c0.4,2.5,2.2,4.5,4.2,4.5c1.9,0,3.2-2,2.8-4.5
		C100.2,51.1,98.4,49.1,96.4,49.1z M83.9,49.5c-2,0-3.4,2-3,4.5s2.3,4.5,4.4,4.5c2,0,3.4-2,3-4.5S86,49.5,83.9,49.5z M71.4,49.9
		c-2.1,0-3.5,2.1-3.1,4.6s2.4,4.6,4.6,4.6c2.1,0,3.5-2.1,3.1-4.6S73.6,49.9,71.4,49.9z M111.7,75.4c-1.8,0.1-3.1,2.1-2.7,4.5
		c0.3,2.4,2.1,4.3,4,4.2c1.8-0.1,3.1-2.1,2.7-4.5C115.4,77.2,113.6,75.3,111.7,75.4z M75.7,92.7c-2.1,0.2-3.5,2.3-3.1,4.8
		c0.4,2.5,2.4,4.4,4.6,4.3c2.1-0.2,3.5-2.3,3.1-4.8S77.9,92.6,75.7,92.7z M124.2,74.4c-1.7,0.1-2.9,2.1-2.6,4.4
		c0.3,2.4,2,4.2,3.8,4.1c1.7-0.1,2.9-2.1,2.6-4.4C127.7,76.1,126,74.3,124.2,74.4z M99.2,76.4c-1.9,0.1-3.2,2.1-2.8,4.6
		c0.4,2.4,2.2,4.3,4.2,4.2c1.9-0.1,3.2-2.1,2.8-4.6C103,78.2,101.2,76.3,99.2,76.4z M86.7,77.4c-2,0.1-3.4,2.2-3,4.7
		c0.4,2.5,2.3,4.4,4.4,4.3c2-0.1,3.4-2.2,3-4.7C90.7,79.2,88.8,77.3,86.7,77.4z M74.2,78.4c-2.1,0.1-3.5,2.2-3.1,4.8
		c0.4,2.5,2.4,4.5,4.6,4.4c2.1-0.1,3.5-2.2,3.1-4.8C78.4,80.3,76.4,78.3,74.2,78.4z M122.7,61.3c-1.7,0-2.9,2-2.6,4.3
		c0.3,2.4,2,4.2,3.8,4.2c1.7,0,2.9-2,2.6-4.3C126.2,63.1,124.5,61.3,122.7,61.3z M97.7,62.7c-1.9,0-3.2,2.1-2.8,4.5
		c0.4,2.4,2.2,4.4,4.2,4.4c1.9,0,3.2-2.1,2.8-4.5C101.5,64.7,99.7,62.7,97.7,62.7z M85.2,63.4c-2,0-3.4,2.1-3,4.6
		c0.4,2.5,2.3,4.5,4.4,4.4c2,0,3.4-2.1,3-4.6C89.2,65.3,87.3,63.3,85.2,63.4z M72.7,64.1c-2.1,0.1-3.5,2.2-3.1,4.7
		c0.4,2.5,2.4,4.6,4.6,4.5c2.1-0.1,3.5-2.2,3.1-4.7S74.9,64,72.7,64.1z M85.5,123.8v0.3l4.8-0.7c-1.1-2.6-1.3-2.8-0.8-4.4
		c-0.2-0.1-0.4-0.3-0.6-0.4l-0.5-0.3l-0.8-1.4v-0.5l-1.6,0.2l-0.5,6.2l-0.1,1.2L85.5,123.8z M133.3,38.7c-0.2,0-0.4,0-0.7,0
		c-9.2,0-60.1,0.2-71.6,1.5c-0.5,0.1-0.9,0.1-1.3,0.2c-0.8,0.1-1,0.4-1,1.3c0.4,6.1,2.9,41.4,4.9,59.1c1.7-0.2,2.8-0.3,3.2-0.2
		c0.3,0,0.9,0.1,1.7,0.2l-1.7-1.5l-4.1-45.8l7.9-8.6l54.1-1.6l7,6.7l4.5,42.6c0,0-1.6,2.8-3.1,5.2c1.4,0.7,2.7,1.4,4.1,2
		c1.3,0.6,2.5,1.2,3.8,1.9c0.7-0.6,0.8-1.4,0.8-2.3c0-0.7,0-1.5,0-2.5c-0.5-13.4-6.1-50.5-7.5-57.3c0-0.2-0.1-0.3-0.1-0.5
		c-0.2-0.5-0.3-0.5-0.8-0.5L133.3,38.7z M86.7,109.6c0.5,0,1-0.1,1.5-0.1l0.2-2.5l0.1-0.6l-1.6,0.2l-0.2,2.4v0.7V109.6z M50,69.3
		c0,0,6.6-1.3,9.8,5.8c0.4,5.1,0.7,15.7,1,26c-2.8,0.3-6.3,0.7-10.1,1.1l-0.6-32.9H50z M54.9,74.1c-1.6,0-3,1.6-3,3.5
		c0,1.9,1.3,3.5,3,3.5c1.6,0,3-1.6,3-3.5C57.9,75.7,56.6,74.1,54.9,74.1z M55.1,85.5c-1.6,0-3,1.6-3,3.5s1.3,3.5,3,3.5
		c1.6,0,3-1.6,3-3.5S56.8,85.5,55.1,85.5z M74.3,159.5l13.5-1.8c1.1-0.2,1.7-1.8,1.7-3.8v-3.8c1.7,0.1,3.6,0.3,5.7,0.7
		c11.4,1.9,18,5.4,20.2,6.7c0.3,2.4,2.8,3.8,6,3.8c3.4,0,6.4-1.5,6.4-4.2v-8.7l4.6,3.3c-0.5-0.7-0.7-1.8-0.5-3
		c0.1-1,0.4-3.2,0.8-5.9c-0.3,0.9-0.6,1.8-0.9,2.7h-0.1c-0.3,0.9-0.6,1.6-0.5,1.6l0,0l0,0h-0.1l0,0L131,147h-0.1l-0.1-0.1l-0.1-0.1
		l-0.1-0.1l-0.2-0.1h-0.1l-0.3-0.2l0,0l-0.3-0.2l0,0l-0.3-0.2l-0.1-0.1l-0.3-0.2l-0.2-0.1l-0.2-0.2l-0.2-0.2l-0.2-0.1l-0.3-0.2
		l-0.1-0.1l-0.4-0.3h-0.1l-0.5-0.4l0,0l-0.5-0.4l-0.1-0.1l-0.5-0.3l-0.2-0.2l-0.4-0.3l-0.3-0.2l-0.3-0.2l-0.4-0.3l-0.2-0.2l-0.5-0.4
		l-0.1-0.1l-0.7-0.5l0,0l-0.7-0.5l-0.1-0.1l-0.6-0.5l-0.2-0.2l-0.5-0.4l-0.3-0.2l-0.4-0.3l-0.5-0.3l-0.3-0.2l-0.6-0.4l-0.2-0.1
		l-0.7-0.5l-0.1-0.1l-0.8-0.6h-0.1l-0.8-0.6l-0.2-0.1l-0.6-0.5l-0.3-0.2l-0.5-0.4l-0.4-0.3l-0.4-0.3l-0.6-0.4l-0.3-0.2l-0.7-0.5
		l-0.1-0.1l-0.8-0.6l0,0l-0.8-0.6l-0.1-0.1l-0.7-0.5l-0.3-0.2l-0.6-0.4l-0.4-0.3l-0.4-0.3l-0.5-0.4l-0.3-0.2l-0.6-0.5l-0.2-0.1
		l-0.8-0.6l0,0l-0.8-0.6l-0.1-0.1l-0.7-0.5l-0.2-0.1l-0.6-0.4l-0.3-0.2l-0.5-0.3l-0.4-0.3l-0.3-0.2l-0.5-0.4l-0.2-0.2l-0.6-0.5
		l-0.1-0.1l-0.7-0.5l0,0l-0.7-0.5l-0.1-0.1l-0.5-0.4l-0.2-0.2l-0.4-0.3l-0.3-0.2l-0.3-0.2l-0.4-0.3l-0.2-0.1l-0.5-0.3l-0.1-0.1
		l-0.5-0.4l0,0l-0.5-0.4h-0.1l-0.4-0.3l-0.1-0.1l-0.3-0.2l-0.2-0.1l-0.2-0.2l-0.3-0.2l-0.2-0.1c-0.5,3.1,1,4.6,1,4.6l22.8,16.5v6.8
		l-25.9-6c0-2.2,0-3.8,0-4.3c0-2-0.7-3.2-1.7-3.1l-13.5,1.8c-1.1,0.1-1.7,1.4-1.7,3.4c0,5.6,0,16.3,0,18c0,2.3,0.7,3.6,1.7,3.5
		L74.3,159.5z M90.4,116.3c6.2,4.5,40.1,29.3,40.1,29.3s0.5-1.6,1.3-3.7v-0.1v-0.1l0.2-0.6V141v-0.1v-0.1l0,0v-0.1l0.1-0.3l0,0l0,0
		v-0.1v-0.1v-0.1V140l0,0v-0.1v-0.1v-0.1v-0.1v-0.1l0,0v-0.1v-0.1v-0.1v-0.1V139l0,0l0,0v-0.1v-0.1v-0.1v-0.1l0,0l0,0v-0.1v-0.1
		v-0.1v-0.1v-0.1l0,0V138v-0.1v-0.1v-0.1v-0.1l0,0l0,0v-0.1v-0.1v-0.1v-0.1v-0.1l0,0V137v-0.1v-0.1v-0.1v-0.1l0,0v-0.1
		c1.4-3.9,2.7-7.9,2.7-7.9c0.9-2.8,2.4-4.9,5.3-5l36.8-1.2c0.6,0,1.2,0.1,1.8,0.3c-3.4-1.7-46.4-23.2-54.3-26.9l-1.2-0.4l-4.4,0.1
		c-5.7,0.2-15.5,0.6-23,0.8c-2.9,0.1-3.9,0.8-5,3.7l-1,5.9l-0.7,9l0.1,0.3L90.4,116.3z M154,144.6c2.6-0.1,4.7-0.2,5.1-0.2
		c1.2,0,1.9-0.8,2.1-1.9c0.4-3.1,1.2-9,1.3-9.8c0.2-1.1-0.5-1.8-1.6-1.8c-0.8,0-10.6,0.3-14.7,0.5c-1.1,0-2,0.8-2.1,1.9
		c-0.4,3-1.2,8.8-1.3,9.8c-0.2,1.2,0.4,1.8,1.4,1.8C146.5,144.8,150.6,144.7,154,144.6z M137.3,150.9c7.6-0.3,25.5-0.8,27.3-0.9
		c2.3-0.1,3.6-1.5,3.8-3.5c0.8-5.7,2.3-16.7,2.5-18.1c0.3-2.1-0.9-3.4-2.9-3.3l-27.2,0.9c-2.1,0.5-3.2,2.4-3.9,4.6
		c0,0-0.2,0.5-0.5,1.3c-0.8,5.8-1.9,14.2-2.1,15.7c-0.3,2.3,0.8,3.5,2.9,3.4L137.3,150.9z M149.4,136.4c-1.6,2.3-1.5,5.3,0.2,6.7
		l0,0c-0.1,0-0.1-0.1-0.2-0.1c-1.8-1.5-2-4.6-0.4-6.8c1.5-2.1,4.2-2.8,6-1.5l-1.9-1.4l-5.2,0.2c-0.7,0-1,0.3-1.1,1.1
		c-0.1,1.1-0.4,3.7-0.7,6.1l3.5,2.6c1.8,1.4,4.5,0.7,6.1-1.5c1.6-2.3,1.5-5.3-0.2-6.7c-1.7-1.5-4.5-0.8-6.1,1.5V136.4z M142.9,142.9
		c0.1-0.9,0.8-6.3,1.2-9.1c0.1-1,0.9-1.7,2-1.7c3.9-0.1,13-0.4,13.8-0.4c1,0,1.6,0.7,1.5,1.7c-0.1,0.7-0.9,6.2-1.3,9.1
		c-0.1,1-0.8,1.7-1.9,1.8c-0.2,0-0.7,0-1.4,0.1c0.4-3.2,1.3-9.8,1.3-10.3c0.1-0.8-0.3-1.3-1-1.3c-0.5,0-6.4,0.2-9,0.3
		c-0.7,0-1.2,0.6-1.3,1.4c-0.2,1.8-1,7.8-1.3,10.3c-0.4,0-0.8,0-1.1,0c-1.1,0-1.6-0.5-1.5-1.7V142.9z M150.5,137.3
		c-1.1,1.5-1,3.5,0.1,4.4c1.2,1,3,0.5,4-1c1.1-1.5,1-3.5-0.1-4.4C153.3,135.3,151.5,135.8,150.5,137.3z M150.8,137.5
		c-0.9,1.3-0.9,3,0.1,3.8s2.5,0.5,3.5-0.8c0.9-1.3,0.9-3-0.1-3.8C153.3,135.9,151.8,136.2,150.8,137.5z M151.7,138.3
		c-0.4,0.6-0.4,1.4,0.1,1.8c0.5,0.4,1.2,0.2,1.7-0.4c0.4-0.6,0.4-1.4-0.1-1.8C152.9,137.5,152.2,137.7,151.7,138.3z M151.9,138.3
		c-0.1,0.1-0.1,0.3,0,0.4c0.1,0.1,0.3,0.1,0.4-0.1c0.1-0.1,0.1-0.3,0-0.4C152.2,138.1,152,138.1,151.9,138.3z M136.2,152
		c8.6-0.3,28.9-1,30.9-1c2.6-0.1,4-1.7,4.4-4c0.9-6.5,2.6-18.9,2.8-20.5c0.1-0.7,0-1.3-0.1-1.8l-4,0.1c1.1,0.5,1.6,1.7,1.4,3.2
		s-1.8,12.9-2.6,18.8c-0.3,2.1-1.6,3.6-4,3.7c-1.9,0.1-20.4,0.7-28.3,0.9c-2.2,0.1-3.4-1.1-3.1-3.5c0.2-1.3,1-7.6,1.8-13.2
		c-0.4,1-0.8,2.1-1.2,3.3c-0.6,4.7-1.2,9.1-1.4,10.2c-0.4,2.7,1,3.9,3.3,3.9L136.2,152z M180.6,129.2c0.2-0.8,0.3-1.4,0.3-2
		c-0.1-2.2-2-2.7-4-2.6h-1.5c0.1,0.4,0.1,0.8,0,1.3c-0.2,1.3-1.3,9.6-2.3,16.5c1.1,0.5,1.9,0.9,2,1L180.6,129.2z M175.1,143.4
		L175.1,143.4L175.1,143.4z M75.2,141.2c0-0.1,8.9,1.3,19.9,3.1s20.7,3.3,20.7,3.3c0,0.1-9.7-1.3-20.7-3.1S75.2,141.2,75.2,141.2z
		 M89.1,150.1c-0.1,0-0.1,0-0.2,0C89,150.1,89,150.1,89.1,150.1z M88.4,150.1L88.4,150.1v2.9c0,1.8-0.5,3-1.5,3.1
		c-0.8,0.1-8.4,1.1-11.7,1.6c-0.9,0.1-1.5-0.8-1.5-2.8c0-1.5,0-10.8,0-15.6c0-1.7,0.6-3,1.5-3.1c3.3-0.4,11-1.5,11.7-1.5
		c0.8-0.1,1.4,1,1.4,2.8c0,0.3,0,1.2,0,2.5l-0.7-0.2c0-0.9,0-1.6,0-1.8c0-1.7-0.6-2.7-1.4-2.6c-0.6,0.1-7.9,1-11,1.5
		c-0.9,0.1-1.4,1.3-1.4,2.9c0,4.5,0,13.2,0,14.6c0,1.9,0.5,2.8,1.4,2.7c3.1-0.4,10.2-1.4,11-1.5c0.9-0.1,1.4-1.3,1.4-2.9v-2.6
		C85.6,150,87.1,150.1,88.4,150.1L88.4,150.1z M74.8,138.9c0,0.8,0.6,1.4,1.3,1.4c0.7,0,1.2-0.7,1.1-1.5c0-0.8-0.6-1.4-1.3-1.4
		S74.7,138.1,74.8,138.9z M75.1,138.9c0,0.6,0.4,1.1,0.9,1c0.5,0,0.9-0.5,0.9-1.1s-0.4-1.1-0.9-1C75.5,137.8,75.1,138.3,75.1,138.9z
		 M75.2,138.9c0,0.5,0.4,1,0.9,1s0.8-0.5,0.8-1s-0.4-1-0.9-1S75.2,138.4,75.2,138.9z M74.6,155.1c0,0.8,0.6,1.4,1.3,1.4
		s1.2-0.7,1.1-1.5c0-0.8-0.6-1.4-1.3-1.4C75,153.6,74.5,154.3,74.6,155.1z M74.9,155.1c0,0.6,0.4,1.1,0.9,1c0.5,0,0.9-0.5,0.9-1.1
		c0-0.6-0.4-1.1-0.9-1C75.3,154,74.9,154.5,74.9,155.1z M75,155.1c0,0.5,0.4,1,0.9,1s0.8-0.5,0.8-1s-0.4-1-0.9-1S75,154.6,75,155.1z
		 M84.7,153.7c0,0.8,0.6,1.4,1.3,1.4c0.7,0,1.2-0.7,1.1-1.5c0-0.8-0.6-1.4-1.3-1.4C85.1,152.2,84.6,152.9,84.7,153.7z M85,153.7
		c0,0.6,0.4,1.1,0.9,1c0.5,0,0.9-0.5,0.9-1.1c0-0.6-0.4-1.1-0.9-1C85.4,152.6,85,153.1,85,153.7z M85.1,153.7c0,0.5,0.4,1,0.9,1
		s0.8-0.5,0.8-1c0-0.6-0.4-1-0.9-1S85.1,153.2,85.1,153.7z M84.6,137.6c0,0.8,0.6,1.4,1.3,1.4s1.2-0.7,1.1-1.5
		c0-0.8-0.6-1.4-1.3-1.4C85,136.1,84.5,136.8,84.6,137.6z M84.9,137.6c0,0.6,0.4,1.1,0.9,1c0.5,0,0.9-0.5,0.9-1.1
		c0-0.6-0.4-1.1-0.9-1C85.3,136.5,84.9,137,84.9,137.6z M85,137.6c0,0.6,0.4,1,0.9,1s0.8-0.5,0.8-1s-0.4-1-0.9-1S85,137.1,85,137.6z
		 M29,122.6c3,0,5.6,3.4,5.9,7.7c0.3,4.2-1.9,7.7-4.8,7.7c-3,0-5.6-3.4-5.9-7.7C23.9,126.1,26.1,122.6,29,122.6z M19.6,108.7
		c0,0-2.9,26.9,0.8,30.8c3.7,3.9,16.4,10.4,24.3,12.5c4.5-2.8,2.3-36.8,1.8-38.2C46.5,113.8,32.9,107,19.6,108.7z M29,120.2
		c4.2,0,7.9,4.5,8.3,10c0.4,5.5-2.7,10-7,10c-4.2,0-7.9-4.5-8.3-10C21.6,124.7,24.7,120.2,29,120.2z M47.6,113.5l37-7.3l-0.3,3.2
		l-36.2,10.2C48,117.6,47.8,115.6,47.6,113.5z M84.2,110.2L83.1,123L48,142.5c0.8-6.6,0.6-13.9,0.1-21.5l36-10.9L84.2,110.2z
		 M83,124.2l-0.3,3.6l-36.4,23.5c0.6-2.1,1.1-4.4,1.5-6.7L83,124.2L83,124.2z"/>
</g>
</svg>
