<?xml version="1.0" encoding="utf-8"?>
<svg version="1.1" id="Слой_1" xmlns="http://www.w3.org/2000/svg" xmlns:xlink="http://www.w3.org/1999/xlink" x="0px" y="0px"
     width="99px" height="99px" viewBox="0 0 99 99" style="enable-background:new 0 0 99 99;" xml:space="preserve">
<g>
	<path class="st0" d="M81.8,17.2C73.5,9,62.1,3.9,49.5,3.9c-12.6,0-24,5.1-32.3,13.4C9,25.5,3.9,36.9,3.9,49.5
		c0,12.6,5.1,24,13.4,32.3c8.3,8.3,19.7,13.4,32.3,13.4c12.6,0,24-5.1,32.3-13.4c8.3-8.3,13.4-19.7,13.4-32.3
		C95.2,36.9,90.1,25.5,81.8,17.2L81.8,17.2L81.8,17.2z M49.5,0c13.7,0,26,5.6,35,14.5c9,9,14.5,21.4,14.5,35c0,13.7-5.5,26-14.5,35
		c-9,8.9-21.3,14.5-35,14.5c-13.7,0-26-5.6-35-14.5c-9-9-14.5-21.4-14.5-35c0-13.7,5.5-26.1,14.5-35C23.5,5.6,35.8,0,49.5,0L49.5,0
		L49.5,0z"/>
	<path class="st0" d="M43.5,21.9h12.1c2.1,0,3.7,1.7,3.7,3.7v28.9H69c1.6,0,2.9,1.3,2.9,2.9l0,0v0v0c0,0.7-0.3,1.5-0.9,2L51.6,78.9
		c-1.1,1.1-3,1.1-4.2,0L28.1,59.5c-0.6-0.6-0.8-1.3-0.9-2v0v0l0,0c0-1.6,1.3-2.9,2.9-2.9h9.7V25.6C39.7,23.6,41.4,21.9,43.5,21.9
		L43.5,21.9z"/>
</g>
</svg>
