<?xml version="1.0" encoding="utf-8"?>
<svg version="1.1" id="Слой_1" xmlns="http://www.w3.org/2000/svg" xmlns:xlink="http://www.w3.org/1999/xlink" x="0px" y="0px"
     width="200px" height="200px" viewBox="0 0 200 200" style="enable-background:new 0 0 200 200;" xml:space="preserve">
<g id="Слой_x0020_1">
	<path class="st0" d="M72.4,156.2l15.2-2c1.3-0.2,1.9-2.1,1.9-4.3v-4.3c2,0.1,4.1,0.4,6.4,0.7c12.9,2.1,20.3,6.1,22.8,7.6
		c0.3,2.8,3.1,4.2,6.7,4.2c3.9,0,7.2-1.7,7.2-4.8v-9.8l5.2,3.8c-0.6-0.8-0.8-2-0.6-3.4c0.1-1.1,0.5-3.6,0.9-6.7
		c-0.4,1.1-0.7,2.1-1,3H137c-0.3,1-0.6,1.8-0.6,1.8l0,0l0,0h-0.1l0,0l-0.1-0.1l-0.1-0.1l-0.1-0.1l-0.1-0.1l-0.1-0.1l-0.2-0.1h-0.1
		l-0.3-0.2l0,0l-0.3-0.3l0,0l-0.4-0.3l-0.1-0.1l-0.3-0.2l-0.2-0.1l-0.3-0.2l-0.3-0.2l-0.2-0.2l-0.4-0.3l-0.2-0.1l-0.5-0.4l-0.1-0.1
		l-0.6-0.4l0,0l-0.6-0.4l-0.1-0.1l-0.5-0.4l-0.2-0.2l-0.5-0.3l-0.4-0.3l-0.4-0.3l-0.5-0.4l-0.3-0.2l-0.6-0.5l-0.1-0.1l-0.8-0.6l0,0
		l-0.8-0.6l-0.1-0.1l-0.7-0.5l-0.2-0.2l-0.6-0.4l-0.4-0.3L123,132l-0.5-0.4l-0.4-0.3l-0.7-0.5l-0.2-0.2l-0.8-0.6l-0.1-0.1l-0.9-0.7
		h-0.1l-0.9-0.6l-0.2-0.1l-0.7-0.5l-0.4-0.3l-0.6-0.4l-0.5-0.4l-0.4-0.3l-0.7-0.5l-0.3-0.2l-0.8-0.6l-0.1-0.1l-1-0.7l0,0l-1-0.7
		l-0.1-0.1l-0.8-0.6l-0.3-0.2l-0.7-0.5l-0.4-0.3l-0.5-0.4l-0.6-0.4l-0.4-0.3l-0.7-0.5l-0.2-0.1l-0.9-0.6H106l-0.9-0.7L105,119
		l-0.8-0.6l-0.2-0.2l-0.7-0.5l-0.4-0.3l-0.5-0.4l-0.5-0.4l-0.4-0.3l-0.6-0.4l-0.2-0.2l-0.7-0.5l-0.1-0.1l-0.8-0.6l0,0l-0.8-0.6
		l-0.1-0.1l-0.6-0.4l-0.3-0.2l-0.5-0.4l-0.4-0.3l-0.4-0.3l-0.5-0.3l-0.2-0.2l-0.5-0.4l-0.1-0.1l-0.6-0.4l0,0l-0.6-0.4l-0.1-0.1
		l-0.5-0.4l-0.2-0.1l-0.4-0.3l-0.2-0.2l-0.3-0.2l-0.3-0.2l-0.2-0.1c-0.6,3.5,1.2,5.2,1.2,5.2l25.7,18.7v7.6L89,133.5
		c0-2.4,0-4.3,0-4.8c0-2.3-0.8-3.6-1.9-3.5l-15.3,2c-1.2,0.2-1.9,1.6-1.9,3.9c0,6.3,0,18.4,0,20.3c0,2.6,0.8,4.1,1.9,4L72.4,156.2z
		 M25.4,117.5l33.3,5.4l-16.2,23.4l-35.1-8.1L25.4,117.5z M59.2,124.7v5.4l-14.7,26L7.9,145.4v-5.9l34.7,8.6L59.2,124.7L59.2,124.7z
		 M24.5,124.7l24.8,4.8l-6.1,8.8l-25.5-5.9l6.8-7.8V124.7z M92.4,120.2c-1.7-1.3-2-3.7-2-3.7l-0.7-4.5H68.8l-0.7,4.5
		c0,0-0.2,2.2-1.8,3.4c-1.8,1.3-3.2,2.7-1.8,2.9c1.3,0.2,14,0,15,0c0.8,0,13.5,0.2,14.8,0C95.5,122.6,94.3,121.6,92.4,120.2
		L92.4,120.2L92.4,120.2z M125.9,41.8H32.7c-2.2,0-4,1.8-4,4v58.7c0,2.4,1.8,2.9,4,2.9h57.9c6.9,5.1,45.2,33.1,45.3,33.1
		c0,0,0.6-1.8,1.4-4.2v-0.1v-0.1l0.2-0.7v-0.1v-0.1v-0.1l0,0V135l0.1-0.3l0,0l0,0v-0.1v-0.1v-0.1v-0.1l0,0v-0.1v-0.1V134v-0.1v-0.1
		l0,0v-0.1v-0.1v-0.1v-0.1v-0.1l0,0l0,0v-0.1v-0.1V133v-0.1v-0.1l0,0v-0.1v-0.1v-0.1v-0.1v-0.1l0,0v-0.1v-0.1V132v-0.1v-0.1l0,0l0,0
		v-0.1v-0.1v-0.1v-0.1v-0.1l0,0v-0.1v-0.1V131v-0.1v-0.1l0,0v-0.1c1.5-4.4,3.1-8.9,3.1-8.9c1-3.2,2.7-5.6,5.9-5.7l41.5-1.3
		c0.7,0,1.4,0.1,2,0.3c-3.8-1.9-52.4-26.2-61.2-30.3V45c0-2.2-2.2-4-4.4-4l0,0L125.9,41.8z M91.2,97H34.7V48.6H124v36.7
		c-6.4,0.2-17.5,0.7-26,1c-3.2,0.1-4.4,0.9-5.7,4.2l-1.2,6.6L91.2,97z M162.3,139.3c2.9-0.1,5.3-0.2,5.8-0.2c1.4,0,2.2-0.9,2.3-2.1
		c0.5-3.5,1.4-10.2,1.5-11c0.2-1.3-0.6-2.1-1.8-2c-0.9,0-11.9,0.4-16.6,0.5c-1.3,0-2.2,0.9-2.4,2.1c-0.5,3.4-1.3,10-1.5,11
		c-0.2,1.3,0.4,2,1.5,2.1c2.6-0.1,7.3-0.2,11.1-0.4H162.3z M143.5,146.4c8.6-0.3,28.7-1,30.8-1c2.6-0.1,4-1.7,4.3-4
		c0.9-6.4,2.6-18.8,2.8-20.4c0.3-2.3-1-3.8-3.3-3.8l-30.6,1c-2.4,0.6-3.6,2.7-4.4,5.2c0,0-0.2,0.5-0.5,1.4c-0.9,6.6-2.1,16-2.4,17.7
		c-0.4,2.6,1,3.9,3.3,3.8V146.4z M157.2,130.1c-1.8,2.5-1.7,5.9,0.2,7.6l0,0c-0.1,0-0.1-0.1-0.2-0.2c-2.1-1.7-2.3-5.2-0.4-7.7
		c1.7-2.4,4.7-3.1,6.8-1.7l-2.1-1.6l-5.8,0.2c-0.8,0-1.2,0.3-1.2,1.2c-0.1,1.2-0.5,4.2-0.8,6.9l3.9,2.9c2,1.6,5,0.8,6.9-1.7
		c1.8-2.5,1.7-5.9-0.2-7.6c-2-1.6-5.1-0.9-6.9,1.6L157.2,130.1z M149.9,137.4c0.1-1,1-7.1,1.4-10.3c0.2-1.1,1-1.9,2.2-2
		c4.4-0.1,14.6-0.5,15.5-0.5c1.1,0,1.8,0.7,1.6,1.9c-0.1,0.8-1,7-1.4,10.2c-0.2,1.2-0.9,1.9-2.2,2c-0.2,0-0.8,0-1.6,0.1
		c0.4-3.6,1.4-11,1.5-11.6c0.1-0.9-0.4-1.5-1.1-1.5c-0.6,0-7.2,0.2-10.1,0.3c-0.8,0-1.3,0.6-1.4,1.5c-0.2,2-1.1,8.8-1.5,11.6
		c-0.5,0-0.9,0-1.3,0c-1.2,0-1.9-0.6-1.7-1.9L149.9,137.4z M158.4,131.1c-1.2,1.7-1.1,3.9,0.2,5c1.3,1.1,3.3,0.6,4.5-1.1
		s1.1-3.9-0.2-5C161.6,128.9,159.6,129.4,158.4,131.1z M158.7,131.4c-1,1.4-1,3.4,0.1,4.3c1.1,0.9,2.9,0.5,3.9-0.9s1-3.4-0.1-4.3
		C161.5,129.6,159.7,130,158.7,131.4z M159.8,132.3c-0.5,0.7-0.5,1.6,0.1,2.1c0.5,0.4,1.4,0.2,1.9-0.4c0.5-0.7,0.5-1.6-0.1-2.1
		C161.2,131.5,160.3,131.7,159.8,132.3z M160,132.3c-0.1,0.2-0.1,0.4,0,0.5c0.1,0.1,0.3,0.1,0.4-0.1c0.1-0.2,0.1-0.4,0-0.5
		C160.3,132.1,160.1,132.1,160,132.3z M142.2,147.7c9.7-0.3,32.6-1.1,34.9-1.2c2.9-0.1,4.6-1.9,4.9-4.5c1-7.3,2.9-21.3,3.2-23.1
		c0.1-0.8,0.1-1.4-0.1-2l-4.5,0.1c1.2,0.6,1.8,1.9,1.6,3.6c-0.2,1.7-2,14.5-2.9,21.2c-0.3,2.4-1.8,4-4.5,4.1
		c-2.1,0.1-23,0.8-31.9,1.1c-2.4,0.1-3.8-1.2-3.4-4c0.2-1.5,1.2-8.6,2-14.9c-0.4,1.1-0.9,2.4-1.3,3.7c-0.7,5.4-1.4,10.3-1.5,11.5
		c-0.4,3,1.1,4.4,3.8,4.3L142.2,147.7z M192.3,122c0.3-0.9,0.4-1.6,0.3-2.3c-0.1-2.5-2.3-3-4.5-2.9l-1.7,0.1c0.1,0.4,0.1,0.9,0,1.4
		c-0.2,1.5-1.5,10.9-2.6,18.6c1.2,0.6,2.2,1,2.3,1.1L192.3,122z M186.1,138L186.1,138L186.1,138z M73.4,135.5
		c0-0.1,10.1,1.5,22.5,3.5s23.3,3.7,23.3,3.8s-11-1.5-23.4-3.5S73.4,135.6,73.4,135.5z M89.1,145.5c-0.1,0-0.2,0-0.2,0
		C89,145.5,89.1,145.5,89.1,145.5z M88.4,145.5L88.4,145.5v3.3c0,2-0.5,3.4-1.6,3.5c-0.9,0.1-9.5,1.3-13.2,1.8
		c-1,0.1-1.7-0.9-1.6-3.2c0-1.7,0-12.1,0-17.5c0-2,0.6-3.3,1.7-3.5c3.7-0.5,12.4-1.6,13.2-1.7c1-0.1,1.6,1.1,1.6,3.1
		c0,0.4,0,1.4,0,2.8l-0.8-0.2c0-1,0-1.8,0-2c0-1.9-0.6-3.1-1.5-2.9c-0.7,0.1-8.9,1.2-12.4,1.6c-1,0.1-1.6,1.4-1.6,3.3
		c0,5.1,0,14.9,0,16.5c0,2.1,0.6,3.1,1.5,3c3.5-0.5,11.6-1.5,12.4-1.7c1-0.1,1.5-1.4,1.5-3.3v-2.9C85.4,145.4,87,145.5,88.4,145.5z
		 M73.1,132.9c0,0.9,0.7,1.6,1.4,1.6c0.7,0,1.3-0.8,1.3-1.7s-0.7-1.6-1.4-1.6C73.6,131.2,73.1,132,73.1,132.9z M73.4,132.9
		c0,0.7,0.5,1.2,1.1,1.2s1-0.6,1-1.3s-0.5-1.2-1.1-1.2S73.4,132.2,73.4,132.9z M73.5,132.9c0,0.6,0.5,1.1,1,1.1s0.9-0.5,0.9-1.2
		c0-0.6-0.5-1.1-1-1.1S73.5,132.2,73.5,132.9z M72.8,151.2c0,0.9,0.7,1.6,1.4,1.6c0.7,0,1.3-0.8,1.3-1.7c0-0.9-0.7-1.6-1.4-1.6
		C73.4,149.5,72.8,150.3,72.8,151.2z M73.1,151.2c0,0.7,0.5,1.2,1.1,1.2c0.6,0,1-0.6,1-1.3s-0.5-1.2-1.1-1.2
		C73.5,149.9,73.1,150.5,73.1,151.2z M73.2,151.2c0,0.6,0.5,1.1,1,1.1s0.9-0.5,0.9-1.2c0-0.6-0.5-1.1-1-1.1S73.2,150.5,73.2,151.2z
		 M84.2,149.7c0,0.9,0.7,1.6,1.4,1.6c0.8,0,1.3-0.8,1.3-1.7c0-0.9-0.7-1.6-1.4-1.6C84.7,148,84.2,148.8,84.2,149.7z M84.5,149.7
		c0,0.7,0.5,1.2,1.1,1.2c0.6,0,1-0.6,1-1.3s-0.5-1.2-1.1-1.2S84.5,149,84.5,149.7z M84.6,149.7c0,0.6,0.5,1.1,1,1.1s0.9-0.5,0.9-1.2
		c0-0.6-0.5-1.1-1-1.1S84.6,149,84.6,149.7z M84.1,131.6c0,0.9,0.7,1.6,1.4,1.6c0.8,0,1.3-0.8,1.3-1.7c0-0.9-0.7-1.6-1.4-1.6
		C84.6,129.9,84.1,130.7,84.1,131.6z M84.4,131.6c0,0.7,0.5,1.2,1.1,1.2s1-0.6,1-1.3s-0.5-1.2-1.1-1.2S84.4,130.9,84.4,131.6z
		 M84.5,131.6c0,0.6,0.5,1.1,1,1.1s0.9-0.5,0.9-1.2c0-0.6-0.5-1.1-1-1.1S84.5,130.9,84.5,131.6z"/>
</g>
</svg>
