<?xml version="1.0" encoding="utf-8"?>
<svg version="1.1" id="Слой_1" xmlns="http://www.w3.org/2000/svg" xmlns:xlink="http://www.w3.org/1999/xlink" x="0px" y="0px"
     width="200px" height="200px" viewBox="0 0 200 200" style="enable-background:new 0 0 200 200;" xml:space="preserve">
<g id="Слой_x0020_1">
	<g id="_1094729872">
		<path class="st0" d="M169.2,62.4H74v7.8h93v56.4l0,0H74v12.1h95.2c2.6,0,5.1-0.6,5.1-3.3V67c0-2.6-2.5-4.7-5.1-4.7l0,0V62.4z"/>
		<path class="st0" d="M32.4,32h31.7c3.7,0,6.7,3,6.7,6.7v122.5c0,3.7-3,6.7-6.7,6.7H32.4c-3.7,0-6.7-3-6.7-6.7V38.7
			C25.7,35,28.7,32,32.4,32z M38,158.6c0.3,0,0.5,0.2,0.5,0.5s-0.2,0.5-0.5,0.5s-0.5-0.2-0.5-0.5S37.7,158.6,38,158.6z M40.2,158.6
			c0.3,0,0.5,0.2,0.5,0.5s-0.2,0.5-0.5,0.5s-0.5-0.2-0.5-0.5S39.9,158.6,40.2,158.6z M42.4,158.6c0.3,0,0.5,0.2,0.5,0.5
			s-0.2,0.5-0.5,0.5s-0.5-0.2-0.5-0.5S42.1,158.6,42.4,158.6z M44.6,158.6c0.3,0,0.5,0.2,0.5,0.5s-0.2,0.5-0.5,0.5
			c-0.3,0-0.5-0.2-0.5-0.5S44.3,158.6,44.6,158.6z M46.8,158.6c0.3,0,0.5,0.2,0.5,0.5s-0.2,0.5-0.5,0.5c-0.3,0-0.5-0.2-0.5-0.5
			S46.5,158.6,46.8,158.6z M49,158.6c0.3,0,0.5,0.2,0.5,0.5s-0.2,0.5-0.5,0.5s-0.5-0.2-0.5-0.5S48.7,158.6,49,158.6z M51.2,158.6
			c0.3,0,0.5,0.2,0.5,0.5s-0.2,0.5-0.5,0.5s-0.5-0.2-0.5-0.5S50.9,158.6,51.2,158.6z M53.4,158.6c0.3,0,0.5,0.2,0.5,0.5
			s-0.2,0.5-0.5,0.5s-0.5-0.2-0.5-0.5S53.1,158.6,53.4,158.6z M55.6,158.6c0.3,0,0.5,0.2,0.5,0.5s-0.2,0.5-0.5,0.5
			c-0.3,0-0.5-0.2-0.5-0.5S55.3,158.6,55.6,158.6z M57.8,158.6c0.3,0,0.5,0.2,0.5,0.5s-0.2,0.5-0.5,0.5c-0.3,0-0.5-0.2-0.5-0.5
			S57.5,158.6,57.8,158.6z M37.7,156.4c0.3,0,0.5,0.2,0.5,0.5c0,0.3-0.2,0.5-0.5,0.5s-0.5-0.2-0.5-0.5
			C37.2,156.6,37.4,156.4,37.7,156.4z M35.5,156.4c0.3,0,0.5,0.2,0.5,0.5c0,0.3-0.2,0.5-0.5,0.5s-0.5-0.2-0.5-0.5
			C35,156.6,35.2,156.4,35.5,156.4z M40,156.4c0.3,0,0.5,0.2,0.5,0.5c0,0.3-0.2,0.5-0.5,0.5s-0.5-0.2-0.5-0.5
			C39.5,156.6,39.7,156.4,40,156.4z M42.2,156.4c0.3,0,0.5,0.2,0.5,0.5c0,0.3-0.2,0.5-0.5,0.5s-0.5-0.2-0.5-0.5
			C41.7,156.6,41.9,156.4,42.2,156.4z M44.4,156.4c0.3,0,0.5,0.2,0.5,0.5c0,0.3-0.2,0.5-0.5,0.5s-0.5-0.2-0.5-0.5
			C43.9,156.6,44.1,156.4,44.4,156.4z M46.6,156.4c0.3,0,0.5,0.2,0.5,0.5c0,0.3-0.2,0.5-0.5,0.5c-0.3,0-0.5-0.2-0.5-0.5
			C46.1,156.6,46.3,156.4,46.6,156.4z M48.8,156.4c0.3,0,0.5,0.2,0.5,0.5c0,0.3-0.2,0.5-0.5,0.5c-0.3,0-0.5-0.2-0.5-0.5
			C48.3,156.6,48.5,156.4,48.8,156.4z M51,156.4c0.3,0,0.5,0.2,0.5,0.5c0,0.3-0.2,0.5-0.5,0.5s-0.5-0.2-0.5-0.5
			C50.5,156.6,50.7,156.4,51,156.4z M53.2,156.4c0.3,0,0.5,0.2,0.5,0.5c0,0.3-0.2,0.5-0.5,0.5s-0.5-0.2-0.5-0.5
			C52.7,156.6,52.9,156.4,53.2,156.4z M55.4,156.4c0.3,0,0.5,0.2,0.5,0.5c0,0.3-0.2,0.5-0.5,0.5s-0.5-0.2-0.5-0.5
			C54.9,156.6,55.1,156.4,55.4,156.4z M57.6,156.4c0.3,0,0.5,0.2,0.5,0.5c0,0.3-0.2,0.5-0.5,0.5c-0.3,0-0.5-0.2-0.5-0.5
			C57.1,156.6,57.3,156.4,57.6,156.4z M59.8,156.4c0.3,0,0.5,0.2,0.5,0.5c0,0.3-0.2,0.5-0.5,0.5c-0.3,0-0.5-0.2-0.5-0.5
			C59.3,156.6,59.5,156.4,59.8,156.4z M37.5,154c0.3,0,0.5,0.2,0.5,0.5s-0.2,0.5-0.5,0.5s-0.5-0.2-0.5-0.5S37.2,154,37.5,154z
			 M39.7,154c0.3,0,0.5,0.2,0.5,0.5S40,155,39.7,155s-0.5-0.2-0.5-0.5S39.4,154,39.7,154z M41.9,154c0.3,0,0.5,0.2,0.5,0.5
			s-0.2,0.5-0.5,0.5s-0.5-0.2-0.5-0.5S41.6,154,41.9,154z M44.1,154c0.3,0,0.5,0.2,0.5,0.5s-0.2,0.5-0.5,0.5c-0.3,0-0.5-0.2-0.5-0.5
			S43.8,154,44.1,154z M46.3,154c0.3,0,0.5,0.2,0.5,0.5s-0.2,0.5-0.5,0.5c-0.3,0-0.5-0.2-0.5-0.5S46,154,46.3,154z M48.5,154
			c0.3,0,0.5,0.2,0.5,0.5s-0.2,0.5-0.5,0.5s-0.5-0.2-0.5-0.5S48.2,154,48.5,154z M50.7,154c0.3,0,0.5,0.2,0.5,0.5S51,155,50.7,155
			s-0.5-0.2-0.5-0.5S50.4,154,50.7,154z M52.9,154c0.3,0,0.5,0.2,0.5,0.5s-0.2,0.5-0.5,0.5s-0.5-0.2-0.5-0.5S52.6,154,52.9,154z
			 M55.1,154c0.3,0,0.5,0.2,0.5,0.5s-0.2,0.5-0.5,0.5c-0.3,0-0.5-0.2-0.5-0.5S54.8,154,55.1,154z M57.3,154c0.3,0,0.5,0.2,0.5,0.5
			s-0.2,0.5-0.5,0.5c-0.3,0-0.5-0.2-0.5-0.5S57,154,57.3,154z M47.5,124.5c6.1,0,11,4.9,11,11c0,6.1-4.9,11-11,11s-11-4.9-11-11
			C36.5,129.4,41.4,124.5,47.5,124.5z M47.5,127.9c4.2,0,7.5,3.4,7.5,7.5c0,4.2-3.4,7.5-7.5,7.5c-4.2,0-7.5-3.4-7.5-7.5
			C40,131.2,43.4,127.9,47.5,127.9z M33.9,43.9h27.2c3.7,0,6.7,3,6.7,6.7v55.5c0,3.7-3,6.7-6.7,6.7H33.9c-3.7,0-6.7-3-6.7-6.7V50.6
			C27.2,46.9,30.2,43.9,33.9,43.9z M47.5,63.1c8.4,0,15.3,6.8,15.3,15.3c0,8.4-6.8,15.3-15.3,15.3c-8.4,0-15.3-6.8-15.3-15.3
			C32.2,70,39,63.1,47.5,63.1z M47.5,69.7c4.8,0,8.7,3.9,8.7,8.7s-3.9,8.7-8.7,8.7s-8.7-3.9-8.7-8.7S42.7,69.7,47.5,69.7z
			 M47.5,75.5c1.6,0,2.8,1.3,2.8,2.8c0,1.6-1.3,2.8-2.8,2.8c-1.6,0-2.8-1.3-2.8-2.8C44.7,76.7,46,75.5,47.5,75.5z"/>
	</g>
</g>
</svg>
