<?xml version="1.0" encoding="utf-8"?>
<svg version="1.1" id="Слой_1" xmlns="http://www.w3.org/2000/svg" xmlns:xlink="http://www.w3.org/1999/xlink" x="0px" y="0px"
     width="200px" height="200px" viewBox="0 0 200 200" style="enable-background:new 0 0 200 200;" xml:space="preserve">
<g id="Слой_x0020_1">
	<g id="_1113678048">
		<path class="st0" d="M63.3,93l0.8,15.6v0.7c0.2,3.7-1.7,7-4.7,8.8c2.9-0.9,20.4-3.6,33-4.2c8.4-0.4,15.4,1,22.5,1.8
			c11.8,1.4,17.9-11.5,20.4-21.1c1.7-4.9,3.4-9.7,5-14.6l-40.2,0.1C97.4,84.6,95.3,92,89.9,92h-2L65,92.6c-0.7,0.1-1.3,0.2-1.9,0.2
			L63.3,93z"/>
		<path class="st0" d="M163.2,105.3l21.2,1.2c4.1,0.2,7.7,3,9,6.9c0.2,0.7,0.4,1.5,0.4,2.3l-3.2,27.8c-0.8,4.7-3.2,8.6-8,8.1
			l-15.9-1.8c-4.2-0.5-6.7-3.9-7.9-8.1l18,2.2c1.3,0,2.3-0.5,2.9-1.6c1.6-2.7,1.9-7.3,2.2-9.9c0.2-2.2-0.3-4.8-2-5.1l-24.2-3.4
			l-0.5-9.8C154.9,109.1,158.4,104.9,163.2,105.3L163.2,105.3z"/>
		<path class="st0" d="M121.9,49.8L24.4,50C40,49.6,42,57.6,48.5,70.1c4.9,9.4,6.7,22.1,16.5,20.1l22.9-0.6h2
			c5.4,0,7.5-7.4,10.2-11.9l42-0.2l-0.5-9.4c-0.5-10-9.4-18.1-19.7-18.1V49.8z"/>
		<path class="st0" d="M37.5,118.4h-4.7c-10,0-15.8-7.9-16.3-17.5l-0.8-16c-0.5-9.6,3.8-33.1,13.7-33.1l0,0
			c10,0,17.7,18.3,18.2,27.9l1.3,25.7C49.3,112.5,44.8,118.4,37.5,118.4L37.5,118.4z M33.1,107.2c0.9,0,1.6,1.5,1.6,3.4
			c0,1.9-0.7,3.4-1.6,3.4c-0.9,0-1.6-1.5-1.6-3.4C31.5,108.7,32.2,107.2,33.1,107.2z M32.8,64.9c5,0,9.2,7.5,9.2,16.8
			s-4,16.8-9.1,16.8c-5,0-9.2-7.5-9.2-16.8S27.7,64.9,32.8,64.9z M33.6,68.8c3.3,0,6,5.8,6,12.9c0,7.1-2.6,12.9-5.9,12.9
			s-6-5.8-6-12.9C27.7,74.6,30.3,68.8,33.6,68.8z"/>
		<path class="st0" d="M50.7,118.4h-3.3c-1,0-2-0.1-2.9-0.2c5.9-1.2,7.9-6.5,7.6-12.7l-1-20.5c-0.1-2.6-0.8-5.7-1.8-9
			c4,8,4.8,14.5,12.3,16.9l0.6,12.6C62.6,112.6,58.1,118.5,50.7,118.4L50.7,118.4z"/>
		<path class="st0" d="M30,49.9C22,48.5,5.5,45,6.2,57.4C6.5,61.6,12,75.3,14.6,81C13.9,70,16.7,48.6,30,49.8V49.9z"/>
		<path class="st0" d="M132.7,106.9c2.3,4.9,3.7,9.8,4.2,11.2c1.1,3.2,2,6-0.7,7.6c-3.4,2.9-20.5,3.3-26.6,3.1
			c-6.1-0.2-15.6-2.1-16.9-2.9c-1.3-0.8-3.9-5.2-5.6-10.3c1.7-0.1,3.4-0.2,5-0.3c8.9-0.4,16.4,1,24,2c7.7,0.9,13.1-4.3,16.8-10.5
			L132.7,106.9z"/>
		<path class="st0" d="M140.1,125.8l13.8-0.1l0,0l25.7,3.6c0.5,0.5,0.5,2.3,0.4,2.9c-0.3,2.6-0.6,6.9-1.9,9.1
			c-0.3,0.4-0.7,0.6-1.1,0.6l-20.8-2.6c-3.2-0.1-19.4,0.7-22.3,1.1c-4.1,0.5-15.9,2-20.6,1.9c-4.7-0.1-9.5-0.2-12.6-5.9
			c-3.1-5.8-3.9-6.6-2.9-7c0.2-0.1,0.4-0.2,0.7-0.2c3.5,0.6,7.5,1,10.7,1.1c6.8,0.2,25.9-0.3,29.8-3.5
			C139.4,126.5,139.8,126.2,140.1,125.8L140.1,125.8z"/>
	</g>
</g>
</svg>
