<?xml version="1.0" encoding="utf-8"?>
<svg version="1.1" id="Слой_1" xmlns="http://www.w3.org/2000/svg" xmlns:xlink="http://www.w3.org/1999/xlink" x="0px" y="0px"
     width="98px" height="23px" viewBox="0 0 98 23" style="enable-background:new 0 0 98 23;" xml:space="preserve">
<g>
	<path class="st0" d="M61.9,8.2c-0.4,1-0.9,1.8-1.5,2.6L50.9,22c0,0-1.7,2.2-3.4,0C45.8,19.8,38,10.9,38,10.9
		c-0.6-0.8-1.1-1.7-1.5-2.6h4.2c1.5,1.7,6.3,7.3,8.5,10l8.5-10H61.9L61.9,8.2z"/>
	<path class="st0" d="M98,13.6c-0.2,0.6-0.5,1.2-0.9,1.7l-6,7.1c0,0-1.1,1.4-2.1,0c-1.1-1.4-6-7.1-6-7.1c-0.4-0.5-0.7-1.1-0.9-1.7
		h2.6c0.9,1.1,4,4.6,5.4,6.3l5.4-6.3H98L98,13.6z"/>
	<path class="st0" d="M16.2,13.5c-0.2,0.6-0.6,1.2-0.9,1.7l-6.1,7.1c0,0-1.1,1.4-2.2,0c-1.1-1.4-6.1-7.1-6.1-7.1
		c-0.4-0.5-0.7-1.1-0.9-1.7h2.7c0.9,1.1,4,4.7,5.4,6.4l5.4-6.4H16.2L16.2,13.5z"/>
	<path class="st0" d="M57.2,0c-0.2,0.6-0.5,1.2-0.9,1.7l-6,7.1c0,0-1.1,1.4-2.1,0c-1.1-1.4-6-7.1-6-7.1c-0.4-0.5-0.7-1.1-0.9-1.7
		h2.6c0.9,1.1,4,4.6,5.4,6.3L54.6,0H57.2L57.2,0z"/>
</g>
</svg>
