<?xml version="1.0" encoding="utf-8"?>
<svg version="1.1" id="Слой_1" xmlns="http://www.w3.org/2000/svg" xmlns:xlink="http://www.w3.org/1999/xlink" x="0px" y="0px"
     width="200px" height="200px" viewBox="0 0 200 200" style="enable-background:new 0 0 200 200;" xml:space="preserve">
<g id="Слой_x0020_1">
	<path class="st0" d="M7.8,94.9H80H120h72.2L157.9,69h-3.5H45.7h-3.5L7.8,94.9L7.8,94.9z M192.2,131H7.8V96.6h184.4V131z M148.6,98
		c-0.7,0-1.3,0-2,0c0,0.7,0,1.3,0,2c0.7,0,1.3,0,2,0C148.6,99.3,148.6,98.7,148.6,98z M154.1,98h-2v2h2V98z M143.2,98
		c-0.7,0-1.3,0-2,0c0,0.7,0,1.3,0,2c0.7,0,1.3,0,2,0C143.2,99.3,143.2,98.7,143.2,98z M137.7,98c-0.7,0-1.3,0-2,0c0,0.7,0,1.3,0,2
		c0.7,0,1.3,0,2,0C137.7,99.3,137.7,98.7,137.7,98z M132.2,98c-0.7,0-1.3,0-2,0c0,0.7,0,1.3,0,2c0.7,0,1.3,0,2,0
		C132.2,99.3,132.2,98.7,132.2,98z M126.7,98c-0.7,0-1.3,0-2,0c0,0.7,0,1.3,0,2c0.7,0,1.3,0,2,0C126.7,99.3,126.7,98.7,126.7,98z
		 M121.2,98c-0.7,0-1.3,0-2,0c0,0.7,0,1.3,0,2c0.7,0,1.3,0,2,0C121.2,99.3,121.2,98.7,121.2,98z M115.7,98c-0.7,0-1.3,0-2,0
		c0,0.7,0,1.3,0,2c0.7,0,1.3,0,2,0C115.7,99.3,115.7,98.7,115.7,98z M110.3,98c-0.7,0-1.3,0-2,0c0,0.7,0,1.3,0,2c0.7,0,1.3,0,2,0
		C110.3,99.3,110.3,98.7,110.3,98z M104.8,98h-2v2h2V98z M18.8,97.7h23.7v4H18.8V97.7z M30.2,110.9c-1.7,0-3.5,0-5.2,0
		c0,0.5,0,1,0,1.5c1.7,0,3.5,0,5.2,0C30.2,111.9,30.2,111.4,30.2,110.9z M30.2,106c-1.7,0-3.5,0-5.2,0c0,0.5,0,1,0,1.5
		c1.7,0,3.5,0,5.2,0C30.2,107,30.2,106.5,30.2,106z M24.3,106h-5.2v1.5h5.2V106z M36.1,106c-1.7,0-3.5,0-5.2,0c0,0.5,0,1,0,1.5
		c1.7,0,3.5,0,5.2,0C36.1,107,36.1,106.5,36.1,106z M42,106h-5.2v1.5H42V106z M30.2,115.7c-1.7,0-3.5,0-5.2,0c0,0.5,0,1,0,1.5
		c1.7,0,3.5,0,5.2,0C30.2,116.7,30.2,116.2,30.2,115.7z M30.2,120.6c-1.7,0-3.5,0-5.2,0c0,0.5,0,1,0,1.5c1.7,0,3.5,0,5.2,0
		C30.2,121.6,30.2,121.1,30.2,120.6z M24.3,120.6h-5.2v1.5h5.2V120.6z M36.1,120.6c-1.7,0-3.5,0-5.2,0c0,0.5,0,1,0,1.5
		c1.7,0,3.5,0,5.2,0C36.1,121.6,36.1,121.1,36.1,120.6z M42,120.6h-5.2v1.5H42V120.6z M24.3,115.7c-1.7,0-3.5,0-5.2,0
		c0,0.5,0,1,0,1.5c1.7,0,3.5,0,5.2,0C24.3,116.7,24.3,116.2,24.3,115.7z M36.1,115.7c-1.7,0-3.5,0-5.2,0c0,0.5,0,1,0,1.5
		c1.7,0,3.5,0,5.2,0C36.1,116.7,36.1,116.2,36.1,115.7z M42,115.7c-1.7,0-3.5,0-5.2,0c0,0.5,0,1,0,1.5c1.7,0,3.5,0,5.2,0
		C42,116.7,42,116.2,42,115.7z M24.3,110.9c-1.7,0-3.5,0-5.2,0c0,0.5,0,1,0,1.5c1.7,0,3.5,0,5.2,0C24.3,111.9,24.3,111.4,24.3,110.9
		z M36.1,110.9c-1.7,0-3.5,0-5.2,0c0,0.5,0,1,0,1.5c1.7,0,3.5,0,5.2,0C36.1,111.9,36.1,111.4,36.1,110.9z M42,110.9
		c-1.7,0-3.5,0-5.2,0c0,0.5,0,1,0,1.5c1.7,0,3.5,0,5.2,0C42,111.9,42,111.4,42,110.9z M114.7,109.2c-10.2,0-20.3,0-30.5,0
		c0,0.8,0,1.5,0,2.3c10.2,0,20.3,0,30.5,0C114.7,110.7,114.7,110,114.7,109.2z M114.7,101.7c-10.2,0-20.3,0-30.5,0
		c0,0.8,0,1.5,0,2.3c10.2,0,20.3,0,30.5,0C114.7,103.2,114.7,102.5,114.7,101.7z M80.1,101.7H49.6v2.3h30.5V101.7z M149.2,101.7
		c-10.2,0-20.3,0-30.5,0c0,0.8,0,1.5,0,2.3c10.2,0,20.3,0,30.5,0C149.2,103.2,149.2,102.5,149.2,101.7z M183.8,101.7h-30.5v2.3h30.5
		V101.7z M114.7,116.7c-10.2,0-20.3,0-30.5,0c0,0.8,0,1.5,0,2.3c10.2,0,20.3,0,30.5,0C114.7,118.2,114.7,117.5,114.7,116.7z
		 M114.7,124.2c-10.2,0-20.3,0-30.5,0c0,0.8,0,1.5,0,2.3c10.2,0,20.3,0,30.5,0C114.7,125.7,114.7,125,114.7,124.2z M80.1,124.2H49.6
		v2.3h30.5V124.2z M149.2,124.2c-10.2,0-20.3,0-30.5,0c0,0.8,0,1.5,0,2.3c10.2,0,20.3,0,30.5,0C149.2,125.7,149.2,125,149.2,124.2z
		 M183.8,124.2h-30.5v2.3h30.5V124.2z M80.1,116.7c-10.2,0-20.3,0-30.5,0c0,0.8,0,1.5,0,2.3c10.2,0,20.3,0,30.5,0
		C80.1,118.2,80.1,117.5,80.1,116.7z M149.2,116.7c-10.2,0-20.3,0-30.5,0c0,0.8,0,1.5,0,2.3c10.2,0,20.3,0,30.5,0
		C149.2,118.2,149.2,117.5,149.2,116.7z M183.8,116.7c-10.2,0-20.3,0-30.5,0c0,0.8,0,1.5,0,2.3c10.2,0,20.3,0,30.5,0
		C183.8,118.2,183.8,117.5,183.8,116.7z M80.1,109.3c-10.2,0-20.3,0-30.5,0c0,0.8,0,1.5,0,2.3c10.2,0,20.3,0,30.5,0
		C80.1,110.8,80.1,110.1,80.1,109.3z M149.2,109.3c-10.2,0-20.3,0-30.5,0c0,0.8,0,1.5,0,2.3c10.2,0,20.3,0,30.5,0
		C149.2,110.8,149.2,110.1,149.2,109.3z M183.8,109.3c-10.2,0-20.3,0-30.5,0c0,0.8,0,1.5,0,2.3c10.2,0,20.3,0,30.5,0
		C183.8,110.8,183.8,110.1,183.8,109.3z"/>
</g>
</svg>
