<?xml version="1.0" encoding="utf-8"?>
<svg version="1.1" id="Слой_1" xmlns="http://www.w3.org/2000/svg" xmlns:xlink="http://www.w3.org/1999/xlink" x="0px" y="0px"
     width="200px" height="200px" viewBox="0 0 200 200" style="enable-background:new 0 0 200 200;" xml:space="preserve">
<path class="st0" d="M100.4,42c-26,0-61.3,8.7-64.7,21.2c-0.6,2.1-0.6,5.7-0.6,8.7C47.4,61.7,77.6,53.2,101,53.2
	c23,0,51.1,7.9,63.7,17.6c0.1-2.4,0.4-5.8-0.3-7.9C160.2,50.3,126.5,42,100.4,42L100.4,42z M111.7,124.1c0,6.8-5.5,12.3-12.3,12.3
	s-12.3-5.5-12.3-12.3c0-6.8,5.5-12.3,12.3-12.3S111.7,117.3,111.7,124.1z M99.4,94.7c16.2,0,29.4,13.2,29.4,29.4l0,0v0.1
	c0,16.3-13.2,29.4-29.4,29.4c-16.3,0-29.4-13.2-29.4-29.4v-0.1l0,0C70,107.9,83.2,94.7,99.4,94.7z M128.8,124
	c0-16.2-13.2-29.4-29.4-29.4S70,107.7,70,124c0-16.2,5.2-35.8,29.5-35.8c24.1,0,29.3,19.6,29.4,35.9L128.8,124z M145.3,122.6
	c-5.4,20.4-24,35.4-46.1,35.4C77,158,58.3,142.8,53,122.2c0.8-4.8,4.9-9.4,9.4-11.9c1.1-0.6,1.9-1.4,2.3-2.5
	C70,94,83.4,84.1,99.2,84.1c15.5,0,28.8,9.6,34.2,23.1c0.5,1.2,1.7,2.7,2.6,3.2c4.2,2.5,7.6,6.9,9.2,12.2H145.3z M126.9,124.1
	c0,15.2-12.4,27.5-27.5,27.5c-15.2,0-27.5-12.3-27.5-27.5l0,0c0-15.2,12.3-27.5,27.5-27.5S126.9,108.9,126.9,124.1z M105.2,108.3
	c-0.1,1.8,1.3,3.2,3.1,3.3c1.8,0.1,3.2-1.3,3.3-3.1c0.1-1.8-1.3-3.2-3.1-3.3C106.7,105.1,105.3,106.5,105.2,108.3z M115.3,118.2
	c1.8-0.2,3.1-1.7,2.9-3.5c-0.2-1.8-1.7-3.1-3.5-2.9c-1.8,0.2-3.1,1.7-2.9,3.5C112,117.1,113.5,118.4,115.3,118.2z M117,120.9
	c-1.7,0.3-3,1.9-2.7,3.6c0.3,1.7,1.9,3,3.6,2.7c1.7-0.3,3-1.9,2.7-3.6C120.3,121.9,118.7,120.6,117,120.9z M116.8,135.8
	c1.5-1,1.9-2.9,0.9-4.4s-2.9-1.9-4.4-0.9s-1.9,2.9-0.9,4.4S115.3,136.8,116.8,135.8z M106.8,137c-1.5,0.9-2.1,2.8-1.2,4.4
	c0.9,1.5,2.8,2.1,4.4,1.2c1.5-0.9,2.1-2.8,1.2-4.4C110.3,136.7,108.4,136.1,106.8,137z M102.4,141.4c-0.4-1.7-2.2-2.7-3.9-2.3
	c-1.7,0.4-2.7,2.2-2.3,3.9c0.4,1.7,2.2,2.7,3.9,2.3C101.8,144.9,102.8,143.1,102.4,141.4z M93.4,140.1c0.2-1.8-1.1-3.3-2.8-3.5
	c-1.8-0.2-3.3,1.1-3.5,2.8c-0.2,1.8,1.1,3.3,2.8,3.5C91.7,143.1,93.2,141.8,93.4,140.1z M82.3,130.2c-1.6,0.7-2.4,2.6-1.7,4.2
	c0.7,1.6,2.6,2.4,4.2,1.7s2.4-2.6,1.7-4.2C85.8,130.3,83.9,129.5,82.3,130.2z M79.7,121.2c-1.6,0.8-2.2,2.7-1.4,4.3
	c0.8,1.6,2.7,2.2,4.3,1.4c1.6-0.8,2.2-2.7,1.4-4.3C83.2,121,81.3,120.4,79.7,121.2z M82.5,112c-1.7,0.6-2.6,2.4-2,4.1
	c0.6,1.7,2.4,2.6,4.1,2c1.7-0.6,2.6-2.4,2-4.1C86,112.3,84.2,111.4,82.5,112z M91.1,111.4c1.7-0.5,2.6-2.3,2.1-4s-2.3-2.6-4-2.1
	c-1.7,0.5-2.6,2.3-2.1,4C87.6,111,89.4,111.9,91.1,111.4z M103.8,104.5c1.5,0.9,3.5,0.4,4.4-1.2c0.9-1.5,0.4-3.5-1.2-4.4
	c-1.5-0.9-3.5-0.4-4.4,1.2C101.7,101.6,102.2,103.6,103.8,104.5z M115.7,111c1.8,0,3.2-1.5,3.2-3.2c0-1.8-1.5-3.2-3.2-3.2
	c-1.8,0-3.2,1.5-3.2,3.2C112.5,109.6,114,111,115.7,111z M121.6,121.4c1.8,0,3.2-1.5,3.2-3.2c0-1.8-1.5-3.2-3.2-3.2
	c-1.8,0-3.2,1.5-3.2,3.2C118.4,120,119.9,121.4,121.6,121.4z M121.4,127c-1.8,0-3.2,1.5-3.1,3.2c0,1.8,1.5,3.2,3.2,3.1
	c1.8,0,3.2-1.5,3.1-3.2C124.6,128.3,123.1,126.9,121.4,127z M115.3,137.3c-1.8,0-3.2,1.5-3.1,3.3c0,1.8,1.5,3.2,3.3,3.1
	c1.8,0,3.2-1.5,3.1-3.3C118.6,138.6,117.1,137.2,115.3,137.3z M104.9,143.2c-1.8,0-3.2,1.4-3.2,3.2c0,1.8,1.4,3.2,3.2,3.2
	s3.2-1.4,3.2-3.2C108.1,144.6,106.7,143.2,104.9,143.2z M93,143.1c-1.8,0-3.2,1.4-3.2,3.1c0,1.8,1.4,3.2,3.1,3.2
	c1.8,0,3.2-1.4,3.2-3.1C96.1,144.5,94.7,143.1,93,143.1z M82.6,137c-1.8,0-3.2,1.5-3.1,3.2c0,1.8,1.5,3.2,3.2,3.1
	c1.8,0,3.2-1.5,3.1-3.2C85.8,138.3,84.3,136.9,82.6,137z M76.7,126.6c-1.8,0-3.2,1.5-3.2,3.2c0,1.8,1.5,3.2,3.2,3.2
	c1.8,0,3.2-1.5,3.2-3.2C79.9,128,78.4,126.6,76.7,126.6z M76.8,121c1.8,0,3.2-1.4,3.3-3.1c0-1.8-1.4-3.2-3.1-3.3
	c-1.8,0-3.2,1.4-3.3,3.1C73.7,119.5,75.1,120.9,76.8,121z M82.9,110.7c1.8,0,3.2-1.3,3.3-3.1c0-1.8-1.3-3.2-3.1-3.3
	c-1.8,0-3.2,1.3-3.3,3.1C79.8,109.2,81.1,110.6,82.9,110.7z M93.4,104.8c1.8,0,3.2-1.4,3.2-3.2c0-1.8-1.4-3.2-3.2-3.2
	s-3.2,1.4-3.2,3.2C90.2,103.4,91.6,104.8,93.4,104.8z M99.2,109.1c1.8,0,3.2-1.4,3.2-3.2s-1.4-3.2-3.2-3.2c-1.8,0-3.2,1.4-3.2,3.2
	S97.4,109.1,99.2,109.1z M113.4,124c0,7.8-6.4,14.2-14.2,14.2S85,131.8,85,124s6.4-14.2,14.2-14.2S113.4,116.2,113.4,124z
	 M112.9,124c0,7.6-6.1,13.7-13.7,13.7c-7.6,0-13.7-6.1-13.7-13.7c0-7.6,6.1-13.7,13.7-13.7C106.8,110.3,112.9,116.4,112.9,124z
	 M112.2,124c0,7.2-5.8,12.9-12.9,12.9c-7.2,0-12.9-5.8-12.9-12.9c0-7.2,5.8-12.9,12.9-12.9C106.5,111.1,112.2,116.9,112.2,124z
	 M99.3,116.9c-3.9,0-7.1,3.2-7.1,7.1s3.2,7.1,7.1,7.1s7.1-3.2,7.1-7.1S103.2,116.9,99.3,116.9z M99.3,117.9c-3.4,0-6.1,2.7-6.1,6.1
	s2.7,6.1,6.1,6.1s6.1-2.7,6.1-6.1S102.7,117.9,99.3,117.9z M99.3,121c-1.6,0-3,1.3-3,3c0,1.6,1.3,3,3,3c1.6,0,3-1.3,3-3
	C102.3,122.4,101,121,99.3,121z M35.8,73.7c0.1,7,4.5,18.4,9.2,25.6c1.3-5.5,19.1-23.5,47-26.6h0.2c0.4,0,0.8-0.1,1.1-0.1
	c0.1,0,0.2,0,0.4,0c0.3,0,0.7-0.1,1-0.1c0.2,0,0.4,0,0.5,0c0.3,0,0.6,0,0.8-0.1c0.2,0,0.5,0,0.7,0c0.2,0,0.5,0,0.7,0
	c0.3,0,0.6,0,0.9,0c0.2,0,0.4,0,0.6,0c0.5,0,1,0,1.5,0l0,0l0,0c0.5,0,1,0,1.4,0c0.2,0,0.4,0,0.5,0c0.3,0,0.6,0,0.9,0
	c0.2,0,0.5,0,0.7,0s0.5,0,0.7,0c0.3,0,0.5,0,0.8,0c0.2,0,0.4,0,0.5,0c0.3,0,0.6,0,0.9,0.1c0.1,0,0.2,0,0.3,0
	c29.1,2.6,45.2,21.2,47.3,27.3c4.8-7.4,9.4-19.3,9.4-26.3c0-0.3,0-0.6,0-0.8l0,0c-11.9-10.1-39.7-18-63-18
	C77,54.7,47.1,63.3,35.8,73.7L35.8,73.7L35.8,73.7z M45.8,101.1c0.3,6.2,1.9,14.9,5.7,20.5c0.8-5,5.1-9.7,9.7-12.3
	c1.1-0.7,1.9-1.5,2.4-2.6C69.1,92.4,83,82.2,99.2,82.2c16,0,29.7,9.9,35.4,23.9c0.5,1.2,1.8,2.8,2.7,3.3c4.4,2.5,7.8,7.1,9.5,12.6
	c3.9-6,5.6-15.5,5.8-21.8c-2.2-6.2-21.1-24.9-50.6-25.5l0,0c-0.5,0-0.9,0-1.4,0l0,0c-0.5,0-0.9,0-1.4,0
	C70.1,75.3,46.8,95.6,45.9,101l0,0L45.8,101.1z"/>
</svg>
