<?xml version="1.0" encoding="utf-8"?>
<svg version="1.1" id="Слой_1" xmlns="http://www.w3.org/2000/svg" xmlns:xlink="http://www.w3.org/1999/xlink" x="0px" y="0px"
     width="200px" height="200px" viewBox="0 0 200 200" style="enable-background:new 0 0 200 200;" xml:space="preserve">
<g id="Слой_x0020_1">
	<path class="st0" d="M160.7,121.6c1.9,0,3.4,1.4,3.4,3.2c0,1.8-1.5,3.2-3.4,3.2c-1.9,0-3.4-1.4-3.4-3.2
		C157.3,123,158.8,121.6,160.7,121.6z M146,83.3c1.4,0,2.6,1.1,2.6,2.4c0,1.3-1.1,2.4-2.6,2.4c-1.4,0-2.6-1.1-2.6-2.4
		C143.4,84.4,144.5,83.3,146,83.3z M29.8,77.4h45.7h45.9h48.7L152.7,66c-35.2,0-70.4,0-105.5,0L29.8,77.4z M29.8,78.1h13.3v2.1h12.8
		v-2.1h114.3v13.5c0,0.6-0.5,1-1.1,1H30.9c-0.6,0-1.1-0.5-1.1-1V78.1z M41.5,84.7c1.5,0,2.9,0,4.4,0c0,0.3,0,0.7,0,1
		c-1.5,0-2.9,0-4.4,0C41.5,85.4,41.5,85,41.5,84.7z M41.5,81.9h4.4v1h-4.4V81.9z M47.4,81.9h4.4v1h-4.4V81.9z M53.1,81.9h4.4v1h-4.4
		V81.9z M41.5,87.6c1.5,0,2.9,0,4.4,0c0,0.3,0,0.7,0,1c-1.5,0-2.9,0-4.4,0C41.5,88.3,41.5,87.9,41.5,87.6z M41.5,90.4h4.4v1h-4.4
		V90.4z M47.4,90.4h4.4v1h-4.4V90.4z M53.1,90.4h4.4v1h-4.4V90.4z M47.4,87.6c1.5,0,2.9,0,4.4,0c0,0.3,0,0.7,0,1c-1.5,0-2.9,0-4.4,0
		C47.4,88.3,47.4,87.9,47.4,87.6z M53.1,87.6c1.5,0,2.9,0,4.4,0c0,0.3,0,0.7,0,1c-1.5,0-2.9,0-4.4,0C53.1,88.3,53.1,87.9,53.1,87.6z
		 M47.4,84.8c1.5,0,2.9,0,4.4,0c0,0.3,0,0.7,0,1c-1.5,0-2.9,0-4.4,0C47.4,85.5,47.4,85.1,47.4,84.8z M53.1,84.8c1.5,0,2.9,0,4.4,0
		c0,0.3,0,0.7,0,1c-1.5,0-2.9,0-4.4,0C53.1,85.5,53.1,85.1,53.1,84.8z M61,79.2h107.4v12.5H61V79.2z M62.3,80.1h104.9v10.8H62.3
		V80.1z M79.5,88.3h2.1v0.9h-2.1V88.3z M79.5,85.2h2.1v0.9h-2.1V85.2z M79.5,82h2.1v0.9h-2.1V82z M83,88.3h0.9v0.9H83V88.3z
		 M83,85.2h0.9v0.9H83V85.2z M83,82h0.9v0.9H83V82z M96,83.4c1.4,0,2.6,1.1,2.6,2.4c0,1.3-1.1,2.4-2.6,2.4c-1.4,0-2.6-1.1-2.6-2.4
		C93.4,84.5,94.5,83.4,96,83.4z M89,83.4c1.4,0,2.6,1.1,2.6,2.4c0,1.3-1.1,2.4-2.6,2.4c-1.4,0-2.6-1.1-2.6-2.4
		C86.4,84.5,87.5,83.4,89,83.4z M103.2,83.4c1.4,0,2.6,1.1,2.6,2.4c0,1.3-1.1,2.4-2.6,2.4c-1.4,0-2.6-1.1-2.6-2.4
		C100.6,84.5,101.7,83.4,103.2,83.4z M110.9,83.4c1.4,0,2.6,1.1,2.6,2.4c0,1.3-1.1,2.4-2.6,2.4c-1.4,0-2.6-1.1-2.6-2.4
		C108.3,84.5,109.4,83.4,110.9,83.4z M122.3,89.1c0-0.9,0.8-1.7,1.8-1.7s1.8,0.8,1.8,1.7c0,0.9-0.8,1.7-1.8,1.7S122.3,90,122.3,89.1
		z M122.3,82.3c0-0.9,0.8-1.7,1.8-1.7s1.8,0.8,1.8,1.7s-0.8,1.7-1.8,1.7S122.3,83.2,122.3,82.3z M118.5,84.2c1,0,1.8,0.8,1.8,1.7
		s-0.8,1.7-1.8,1.7s-1.8-0.8-1.8-1.7S117.5,84.2,118.5,84.2z M129.6,84.2c1,0,1.8,0.8,1.8,1.7s-0.8,1.7-1.8,1.7s-1.8-0.8-1.8-1.7
		S128.6,84.2,129.6,84.2z M137.3,83.5c1.4,0,2.6,1.1,2.6,2.4s-1.1,2.4-2.6,2.4c-1.4,0-2.6-1.1-2.6-2.4S135.8,83.5,137.3,83.5z
		 M7.4,114h60.4h60.6h64.2l-23-15.1c-46.4,0-92.9,0-139.3,0L7.4,114L7.4,114z M7.4,114.9h17.5v2.7h16.9v-2.7h150.9v17.9
		c0,0.8-0.7,1.4-1.5,1.4H8.7c-0.8,0-1.5-0.6-1.5-1.4v-17.9H7.4z M22.9,123.7c1.9,0,3.9,0,5.8,0c0,0.5,0,0.9,0,1.4
		c-1.9,0-3.9,0-5.8,0C22.9,124.6,22.9,124.2,22.9,123.7z M22.9,120h5.8v1.4h-5.8V120z M30.6,120h5.8v1.4h-5.8V120z M38.1,120h5.8
		v1.4h-5.8V120z M22.9,127.5c1.9,0,3.9,0,5.8,0c0,0.5,0,0.9,0,1.4c-1.9,0-3.9,0-5.8,0C22.9,128.4,22.9,128,22.9,127.5z M22.9,131.2
		h5.8v1.4h-5.8V131.2z M30.6,131.2h5.8v1.4h-5.8V131.2z M38.1,131.2h5.8v1.4h-5.8V131.2z M30.6,127.5c1.9,0,3.9,0,5.8,0
		c0,0.5,0,0.9,0,1.4c-1.9,0-3.9,0-5.8,0C30.6,128.4,30.6,128,30.6,127.5z M38.1,127.5c1.9,0,3.9,0,5.8,0c0,0.5,0,0.9,0,1.4
		c-1.9,0-3.9,0-5.8,0C38.1,128.4,38.1,128,38.1,127.5z M30.6,123.8c1.9,0,3.9,0,5.8,0c0,0.5,0,0.9,0,1.4c-1.9,0-3.9,0-5.8,0
		C30.6,124.7,30.6,124.3,30.6,123.8z M38.1,123.8c1.9,0,3.9,0,5.8,0c0,0.5,0,0.9,0,1.4c-1.9,0-3.9,0-5.8,0
		C38.1,124.7,38.1,124.3,38.1,123.8z M48.5,116.4h141.8v16.5H48.5V116.4z M50.2,117.5h138.4v14.2H50.2V117.5z M72.9,128.4h2.8v1.1
		h-2.8V128.4z M72.9,124.3h2.8v1.1h-2.8V124.3z M72.9,120.1h2.8v1.1h-2.8V120.1z M77.5,128.5h1.2v1.1h-1.2V128.5z M77.5,124.4h1.2
		v1.1h-1.2V124.4z M77.5,120.2h1.2v1.1h-1.2V120.2z M94.7,122c1.9,0,3.4,1.4,3.4,3.2c0,1.8-1.5,3.2-3.4,3.2c-1.9,0-3.4-1.4-3.4-3.2
		C91.3,123.4,92.8,122,94.7,122z M85.4,122c1.9,0,3.4,1.4,3.4,3.2c0,1.8-1.5,3.2-3.4,3.2S82,127,82,125.2
		C82,123.4,83.5,122,85.4,122z M104.1,122c1.9,0,3.4,1.4,3.4,3.2c0,1.8-1.5,3.2-3.4,3.2c-1.9,0-3.4-1.4-3.4-3.2
		C100.7,123.4,102.2,122,104.1,122z M114.3,122c1.9,0,3.4,1.4,3.4,3.2c0,1.8-1.5,3.2-3.4,3.2s-3.4-1.4-3.4-3.2
		C110.9,123.4,112.4,122,114.3,122z M129.4,129.5c0-1.2,1.1-2.2,2.4-2.2s2.4,1,2.4,2.2s-1.1,2.2-2.4,2.2S129.4,130.7,129.4,129.5z
		 M129.4,120.5c0-1.2,1.1-2.2,2.4-2.2s2.4,1,2.4,2.2c0,1.2-1.1,2.2-2.4,2.2S129.4,121.7,129.4,120.5z M124.4,123
		c1.3,0,2.4,1,2.4,2.2c0,1.2-1.1,2.2-2.4,2.2s-2.4-1-2.4-2.2C122,124,123.1,123,124.4,123z M139,123c1.3,0,2.4,1,2.4,2.2
		c0,1.2-1.1,2.2-2.4,2.2s-2.4-1-2.4-2.2C136.6,124,137.7,123,139,123z M149.1,122c1.9,0,3.4,1.4,3.4,3.2c0,1.8-1.5,3.2-3.4,3.2
		c-1.9,0-3.4-1.4-3.4-3.2C145.7,123.4,147.2,122,149.1,122z"/>
</g>
</svg>
