<?xml version="1.0" encoding="utf-8"?>
<svg version="1.1" id="Слой_1" xmlns="http://www.w3.org/2000/svg" xmlns:xlink="http://www.w3.org/1999/xlink" x="0px" y="0px"
     width="34px" height="24px" viewBox="0 0 34 24" style="enable-background:new 0 0 34 24;" xml:space="preserve">
<g>
	<path class="st0" d="M3.1,4.4h16.6c1.7,0,3.1,1.4,3.1,3.1l0,8.4c0,1.7-1.4,3.1-3.1,3.1l-8.1,0l-5,5.2l-0.1-5.2l-3.3,0
		c-1.7,0-3.1-1.4-3.1-3.1V7.4C0,4.5,2.9,4.6,3.1,4.4L3.1,4.4z"/>
	<path class="st0" d="M30.9,0H14.3c-1.7,0-3.1,1.4-3.1,3.1v0.4h10c1.7,0,3.1,1.4,3.1,3.1l0,8.4c0,0.5-0.1,0.9-0.3,1.3l3.4,3.5
		l0.1-5.2l3.3,0c1.7,0,3.1-1.4,3.1-3.1l0-8.4C34,0.1,31.1,0.2,30.9,0L30.9,0z"/>
</g>
</svg>
