<?xml version="1.0" encoding="utf-8"?>
<svg version="1.1" id="Слой_1" xmlns="http://www.w3.org/2000/svg" xmlns:xlink="http://www.w3.org/1999/xlink" x="0px" y="0px"
     width="200px" height="200px" viewBox="0 0 200 200" style="enable-background:new 0 0 200 200;" xml:space="preserve">
<g id="Слой_x0020_1">
	<path class="st0" d="M7.3,118.2c61.7,0,123.5,0,185.2,0l-23-20.3c-46.4,0-92.9,0-139.3,0L7.3,118.2L7.3,118.2z M30.4,76.8
		c46.4,0,92.7,0,139.1,0l-17.3-15.3c-34.9,0-69.7,0-104.6,0L30.4,76.8L30.4,76.8z M35.1,81.4c0.5,0,1.1,0,1.6,0c0,1.1,0,2.2,0,3.3
		c-0.5,0-1.1,0-1.6,0C35.1,83.6,35.1,82.5,35.1,81.4z M32,81.4h1.6v3.3H32V81.4z M32,89.1h1.6v-3.3H32V89.1z M38.2,81.4
		c0.5,0,1.1,0,1.6,0c0,1.1,0,2.2,0,3.3c-0.5,0-1.1,0-1.6,0C38.2,83.6,38.2,82.5,38.2,81.4z M41.3,81.4c0.5,0,1.1,0,1.6,0
		c0,1.1,0,2.2,0,3.3c-0.5,0-1.1,0-1.6,0C41.3,83.6,41.3,82.5,41.3,81.4z M44.4,81.4c0.5,0,1.1,0,1.6,0c0,1.1,0,2.2,0,3.3
		c-0.5,0-1.1,0-1.6,0C44.4,83.6,44.4,82.5,44.4,81.4z M47.5,81.4c0.5,0,1.1,0,1.6,0c0,1.1,0,2.2,0,3.3c-0.5,0-1.1,0-1.6,0
		C47.5,83.6,47.5,82.5,47.5,81.4z M50.6,81.4c0.5,0,1.1,0,1.6,0c0,1.1,0,2.2,0,3.3c-0.5,0-1.1,0-1.6,0
		C50.6,83.6,50.6,82.5,50.6,81.4z M53.7,81.4c0.5,0,1.1,0,1.6,0c0,1.1,0,2.2,0,3.3c-0.5,0-1.1,0-1.6,0
		C53.7,83.6,53.7,82.5,53.7,81.4z M56.8,81.4c0.5,0,1.1,0,1.6,0c0,1.1,0,2.2,0,3.3c-0.5,0-1.1,0-1.6,0
		C56.8,83.6,56.8,82.5,56.8,81.4z M59.9,81.4c0.5,0,1.1,0,1.6,0c0,1.1,0,2.2,0,3.3c-0.5,0-1.1,0-1.6,0
		C59.9,83.6,59.9,82.5,59.9,81.4z M63,81.4h1.6v3.3H63V81.4z M63,89.1h1.6v-3.3H63V89.1z M59.9,89.1c0.5,0,1.1,0,1.6,0
		c0-1.1,0-2.2,0-3.3c-0.5,0-1.1,0-1.6,0C59.9,86.9,59.9,88,59.9,89.1z M56.8,89.1c0.5,0,1.1,0,1.6,0c0-1.1,0-2.2,0-3.3
		c-0.5,0-1.1,0-1.6,0C56.8,86.9,56.8,88,56.8,89.1z M53.7,89.1c0.5,0,1.1,0,1.6,0c0-1.1,0-2.2,0-3.3c-0.5,0-1.1,0-1.6,0
		C53.7,86.9,53.7,88,53.7,89.1z M50.6,89.1c0.5,0,1.1,0,1.6,0c0-1.1,0-2.2,0-3.3c-0.5,0-1.1,0-1.6,0C50.6,86.9,50.6,88,50.6,89.1z
		 M47.5,89.1c0.5,0,1.1,0,1.6,0c0-1.1,0-2.2,0-3.3c-0.5,0-1.1,0-1.6,0C47.5,86.9,47.5,88,47.5,89.1z M44.4,89.1c0.5,0,1.1,0,1.6,0
		c0-1.1,0-2.2,0-3.3c-0.5,0-1.1,0-1.6,0C44.4,86.9,44.4,88,44.4,89.1z M41.3,89.1c0.5,0,1.1,0,1.6,0c0-1.1,0-2.2,0-3.3
		c-0.5,0-1.1,0-1.6,0C41.3,86.9,41.3,88,41.3,89.1z M38.2,89.1c0.5,0,1.1,0,1.6,0c0-1.1,0-2.2,0-3.3c-0.5,0-1.1,0-1.6,0
		C38.2,86.9,38.2,88,38.2,89.1z M35.1,89.1c0.5,0,1.1,0,1.6,0c0-1.1,0-2.2,0-3.3c-0.5,0-1.1,0-1.6,0C35.1,86.9,35.1,88,35.1,89.1z
		 M152.3,83.6c2.1,0,3.8,0.6,3.8,1.4c0,0.8-1.7,1.4-3.8,1.4s-3.8-0.6-3.8-1.4C148.5,84.2,150.2,83.6,152.3,83.6z M85,84.1h4.4v-0.9
		c0-1.2-1-2.2-2.2-2.2l0,0C86,81,85,82,85,83.2V84.1z M158.1,84.1h4.4v-0.9c0-1.2-1-2.2-2.2-2.2l0,0c-1.2,0-2.2,1-2.2,2.2V84.1z
		 M158.1,85.8h4.4v0.9c0,1.2-1,2.2-2.2,2.2l0,0c-1.2,0-2.2-1-2.2-2.2V85.8z M141.7,85.8h4.4v0.9c0,1.2-1,2.2-2.2,2.2l0,0
		c-1.2,0-2.2-1-2.2-2.2V85.8z M141.7,84.1h4.4v-0.9c0-1.2-1-2.2-2.2-2.2l0,0c-1.2,0-2.2,1-2.2,2.2V84.1z M134.2,84.1h4.4v-0.9
		c0-1.2-1-2.2-2.2-2.2l0,0c-1.2,0-2.2,1-2.2,2.2V84.1z M134.2,85.8h4.4v0.9c0,1.2-1,2.2-2.2,2.2l0,0c-1.2,0-2.2-1-2.2-2.2V85.8z
		 M117.8,85.8h4.4v0.9c0,1.2-1,2.2-2.2,2.2l0,0c-1.2,0-2.2-1-2.2-2.2V85.8z M123.3,85.8c1.5,0,3,0,4.4,0c0,0.3,0,0.6,0,0.9
		c0,1.2-1,2.2-2.2,2.2l0,0c-1.2,0-2.2-1-2.2-2.2C123.3,86.4,123.3,86.1,123.3,85.8z M128.8,85.8c1.5,0,3,0,4.4,0c0,0.3,0,0.6,0,0.9
		c0,1.2-1,2.2-2.2,2.2l0,0c-1.2,0-2.2-1-2.2-2.2C128.8,86.4,128.8,86.1,128.8,85.8z M117.9,84.1h4.4v-0.9c0-1.2-1-2.2-2.2-2.2l0,0
		c-1.2,0-2.2,1-2.2,2.2V84.1z M123.4,84.1c1.5,0,3,0,4.4,0c0-0.3,0-0.6,0-0.9c0-1.2-1-2.2-2.2-2.2l0,0c-1.2,0-2.2,1-2.2,2.2
		C123.4,83.5,123.4,83.8,123.4,84.1z M128.9,84.1c1.5,0,3,0,4.4,0c0-0.3,0-0.6,0-0.9c0-1.2-1-2.2-2.2-2.2l0,0c-1.2,0-2.2,1-2.2,2.2
		C128.9,83.5,128.9,83.8,128.9,84.1z M97.5,84.1h-4.4v-0.9c0-1.2,1-2.2,2.2-2.2l0,0c1.2,0,2.2,1,2.2,2.2V84.1z M97.5,85.8h-4.4v0.9
		c0,1.2,1,2.2,2.2,2.2l0,0c1.2,0,2.2-1,2.2-2.2V85.8z M113.9,85.8h-4.4v0.9c0,1.2,1,2.2,2.2,2.2l0,0c1.2,0,2.2-1,2.2-2.2V85.8z
		 M108.4,85.8c-1.5,0-3,0-4.4,0c0,0.3,0,0.6,0,0.9c0,1.2,1,2.2,2.2,2.2l0,0c1.2,0,2.2-1,2.2-2.2C108.4,86.4,108.4,86.1,108.4,85.8z
		 M102.9,85.8c-1.5,0-3,0-4.4,0c0,0.3,0,0.6,0,0.9c0,1.2,1,2.2,2.2,2.2l0,0c1.2,0,2.2-1,2.2-2.2C102.9,86.4,102.9,86.1,102.9,85.8z
		 M113.8,84.1h-4.4v-0.9c0-1.2,1-2.2,2.2-2.2l0,0c1.2,0,2.2,1,2.2,2.2V84.1z M108.3,84.1c-1.5,0-3,0-4.4,0c0-0.3,0-0.6,0-0.9
		c0-1.2,1-2.2,2.2-2.2l0,0c1.2,0,2.2,1,2.2,2.2C108.3,83.5,108.3,83.8,108.3,84.1z M102.8,84.1c-1.5,0-3,0-4.4,0c0-0.3,0-0.6,0-0.9
		c0-1.2,1-2.2,2.2-2.2l0,0c1.2,0,2.2,1,2.2,2.2C102.8,83.5,102.8,83.8,102.8,84.1z M85,85.8h4.4v0.9c0,1.2-1,2.2-2.2,2.2l0,0
		c-1.2,0-2.2-1-2.2-2.2V85.8z M68.6,85.8H73v0.9c0,1.2-1,2.2-2.2,2.2l0,0c-1.2,0-2.2-1-2.2-2.2V85.8z M74.1,85.8c1.5,0,3,0,4.4,0
		c0,0.3,0,0.6,0,0.9c0,1.2-1,2.2-2.2,2.2l0,0c-1.2,0-2.2-1-2.2-2.2C74.1,86.4,74.1,86.1,74.1,85.8z M79.6,85.8c1.5,0,3,0,4.4,0
		c0,0.3,0,0.6,0,0.9c0,1.2-1,2.2-2.2,2.2l0,0c-1.2,0-2.2-1-2.2-2.2C79.6,86.4,79.6,86.1,79.6,85.8z M68.7,84.1h4.4v-0.9
		c0-1.2-1-2.2-2.2-2.2l0,0c-1.2,0-2.2,1-2.2,2.2V84.1z M74.2,84.1c1.5,0,3,0,4.4,0c0-0.3,0-0.6,0-0.9c0-1.2-1-2.2-2.2-2.2l0,0
		c-1.2,0-2.2,1-2.2,2.2C74.2,83.5,74.2,83.8,74.2,84.1z M79.7,84.1c1.5,0,3,0,4.4,0c0-0.3,0-0.6,0-0.9c0-1.2-1-2.2-2.2-2.2l0,0
		c-1.2,0-2.2,1-2.2,2.2C79.7,83.5,79.7,83.8,79.7,84.1z M30.6,77.5c42.7,0,91.4,0,139.2,0v13.4c0,0.6-0.5,1-1.1,1h-137
		c-0.6,0-1.1-0.5-1.1-1V77.5z M66.5,78.5h101.4v12.4H66.5V78.5z M13.8,124.3c0.7,0,1.4,0,2.2,0c0,1.4,0,2.9,0,4.3
		c-0.7,0-1.4,0-2.2,0C13.8,127.2,13.8,125.7,13.8,124.3z M9.7,124.3h2.2v4.3H9.7V124.3z M9.7,134.5h2.2v-4.3H9.7V134.5z M17.9,124.3
		c0.7,0,1.4,0,2.2,0c0,1.4,0,2.9,0,4.3c-0.7,0-1.4,0-2.2,0C17.9,127.2,17.9,125.7,17.9,124.3z M22,124.3c0.7,0,1.4,0,2.2,0
		c0,1.4,0,2.9,0,4.3c-0.7,0-1.4,0-2.2,0C22,127.2,22,125.7,22,124.3z M26.1,124.3c0.7,0,1.4,0,2.2,0c0,1.4,0,2.9,0,4.3
		c-0.7,0-1.4,0-2.2,0C26.1,127.2,26.1,125.7,26.1,124.3z M30.2,124.3c0.7,0,1.4,0,2.2,0c0,1.4,0,2.9,0,4.3c-0.7,0-1.4,0-2.2,0
		C30.2,127.2,30.2,125.7,30.2,124.3z M34.3,124.3c0.7,0,1.4,0,2.2,0c0,1.4,0,2.9,0,4.3c-0.7,0-1.4,0-2.2,0
		C34.3,127.2,34.3,125.7,34.3,124.3z M38.4,124.3c0.7,0,1.4,0,2.2,0c0,1.4,0,2.9,0,4.3c-0.7,0-1.4,0-2.2,0
		C38.4,127.2,38.4,125.7,38.4,124.3z M42.5,124.3c0.7,0,1.4,0,2.2,0c0,1.4,0,2.9,0,4.3c-0.7,0-1.4,0-2.2,0
		C42.5,127.2,42.5,125.7,42.5,124.3z M46.6,124.3c0.7,0,1.4,0,2.2,0c0,1.4,0,2.9,0,4.3c-0.7,0-1.4,0-2.2,0
		C46.6,127.2,46.6,125.7,46.6,124.3z M50.7,124.3h2.2v4.3h-2.2V124.3z M50.7,134.5h2.2v-4.3h-2.2V134.5z M46.6,134.5
		c0.7,0,1.4,0,2.2,0c0-1.4,0-2.9,0-4.3c-0.7,0-1.4,0-2.2,0C46.6,131.6,46.6,133.1,46.6,134.5z M42.5,134.5c0.7,0,1.4,0,2.2,0
		c0-1.4,0-2.9,0-4.3c-0.7,0-1.4,0-2.2,0C42.5,131.6,42.5,133.1,42.5,134.5z M38.4,134.5c0.7,0,1.4,0,2.2,0c0-1.4,0-2.9,0-4.3
		c-0.7,0-1.4,0-2.2,0C38.4,131.6,38.4,133.1,38.4,134.5z M34.3,134.5c0.7,0,1.4,0,2.2,0c0-1.4,0-2.9,0-4.3c-0.7,0-1.4,0-2.2,0
		C34.3,131.6,34.3,133.1,34.3,134.5z M30.2,134.5c0.7,0,1.4,0,2.2,0c0-1.4,0-2.9,0-4.3c-0.7,0-1.4,0-2.2,0
		C30.2,131.6,30.2,133.1,30.2,134.5z M26.1,134.5c0.7,0,1.4,0,2.2,0c0-1.4,0-2.9,0-4.3c-0.7,0-1.4,0-2.2,0
		C26.1,131.6,26.1,133.1,26.1,134.5z M22,134.5c0.7,0,1.4,0,2.2,0c0-1.4,0-2.9,0-4.3c-0.7,0-1.4,0-2.2,0C22,131.6,22,133.1,22,134.5
		z M17.9,134.5c0.7,0,1.4,0,2.2,0c0-1.4,0-2.9,0-4.3c-0.7,0-1.4,0-2.2,0C17.9,131.6,17.9,133.1,17.9,134.5z M13.8,134.5
		c0.7,0,1.4,0,2.2,0c0-1.4,0-2.9,0-4.3c-0.7,0-1.4,0-2.2,0C13.8,131.6,13.8,133.1,13.8,134.5z M170,127.2c2.8,0,5,0.8,5,1.8
		s-2.2,1.8-5,1.8s-5-0.8-5-1.8S167.2,127.2,170,127.2z M80.3,127.9h5.9v-1.1c0-1.6-1.3-3-3-3l0,0c-1.6,0-3,1.3-3,3L80.3,127.9
		L80.3,127.9z M177.7,127.9h5.9v-1.1c0-1.6-1.3-3-3-3l0,0c-1.6,0-3,1.3-3,3L177.7,127.9L177.7,127.9z M177.7,130.2h5.9v1.1
		c0,1.6-1.3,3-3,3l0,0c-1.6,0-3-1.3-3-3L177.7,130.2L177.7,130.2z M155.8,130.2h5.9v1.1c0,1.6-1.3,3-3,3l0,0c-1.6,0-3-1.3-3-3v-1.1
		H155.8z M155.8,127.9h5.9v-1.1c0-1.6-1.3-3-3-3l0,0c-1.6,0-3,1.3-3,3v1.1H155.8z M145.8,127.9h5.9v-1.1c0-1.6-1.3-3-3-3l0,0
		c-1.6,0-3,1.3-3,3v1.1H145.8z M145.8,130.2h5.9v1.1c0,1.6-1.3,3-3,3l0,0c-1.6,0-3-1.3-3-3v-1.1H145.8z M123.9,130.2h5.9v1.1
		c0,1.6-1.3,3-3,3l0,0c-1.6,0-3-1.3-3-3L123.9,130.2L123.9,130.2z M131.2,130.2c2,0,3.9,0,5.9,0c0,0.4,0,0.8,0,1.1c0,1.6-1.3,3-3,3
		l0,0c-1.6,0-3-1.3-3-3C131.1,130.9,131.1,130.5,131.2,130.2L131.2,130.2z M138.5,130.2c2,0,3.9,0,5.9,0c0,0.4,0,0.8,0,1.1
		c0,1.6-1.3,3-3,3l0,0c-1.6,0-3-1.3-3-3C138.4,130.9,138.4,130.5,138.5,130.2L138.5,130.2z M123.9,127.9h5.9v-1.1c0-1.6-1.3-3-3-3
		l0,0c-1.6,0-3,1.3-3,3L123.9,127.9L123.9,127.9z M131.2,127.9c2,0,3.9,0,5.9,0c0-0.4,0-0.8,0-1.1c0-1.6-1.3-3-3-3l0,0
		c-1.6,0-3,1.3-3,3C131.1,127.2,131.1,127.6,131.2,127.9L131.2,127.9z M138.5,127.9c2,0,3.9,0,5.9,0c0-0.4,0-0.8,0-1.1
		c0-1.6-1.3-3-3-3l0,0c-1.6,0-3,1.3-3,3C138.4,127.2,138.4,127.6,138.5,127.9L138.5,127.9z M96.6,127.9h-5.9v-1.1c0-1.6,1.3-3,3-3
		l0,0c1.6,0,3,1.3,3,3v1.1H96.6z M96.6,130.2h-5.9v1.1c0,1.6,1.3,3,3,3l0,0c1.6,0,3-1.3,3-3v-1.1H96.6z M118.5,130.2h-5.9v1.1
		c0,1.6,1.3,3,3,3l0,0c1.6,0,3-1.3,3-3L118.5,130.2L118.5,130.2z M111.2,130.2c-2,0-3.9,0-5.9,0c0,0.4,0,0.8,0,1.1c0,1.6,1.3,3,3,3
		l0,0c1.6,0,3-1.3,3-3C111.3,130.9,111.3,130.5,111.2,130.2L111.2,130.2z M103.9,130.2c-2,0-3.9,0-5.9,0c0,0.4,0,0.8,0,1.1
		c0,1.6,1.3,3,3,3l0,0c1.6,0,3-1.3,3-3C104,130.9,104,130.5,103.9,130.2L103.9,130.2z M118.5,127.9h-5.9v-1.1c0-1.6,1.3-3,3-3l0,0
		c1.6,0,3,1.3,3,3L118.5,127.9L118.5,127.9z M111.2,127.9c-2,0-3.9,0-5.9,0c0-0.4,0-0.8,0-1.1c0-1.6,1.3-3,3-3l0,0c1.6,0,3,1.3,3,3
		C111.3,127.2,111.3,127.6,111.2,127.9L111.2,127.9z M103.9,127.9c-2,0-3.9,0-5.9,0c0-0.4,0-0.8,0-1.1c0-1.6,1.3-3,3-3l0,0
		c1.6,0,3,1.3,3,3C104,127.2,104,127.6,103.9,127.9L103.9,127.9z M80.2,130.2h5.9v1.1c0,1.6-1.3,3-3,3l0,0c-1.6,0-3-1.3-3-3v-1.1
		H80.2z M58.3,130.2h5.9v1.1c0,1.6-1.3,3-3,3l0,0c-1.6,0-3-1.3-3-3L58.3,130.2L58.3,130.2z M65.6,130.2c2,0,3.9,0,5.9,0
		c0,0.4,0,0.8,0,1.1c0,1.6-1.3,3-3,3l0,0c-1.6,0-3-1.3-3-3C65.5,130.9,65.5,130.5,65.6,130.2L65.6,130.2z M72.9,130.2
		c2,0,3.9,0,5.9,0c0,0.4,0,0.8,0,1.1c0,1.6-1.3,3-3,3l0,0c-1.6,0-3-1.3-3-3C72.8,130.9,72.8,130.5,72.9,130.2L72.9,130.2z
		 M58.3,127.9h5.9v-1.1c0-1.6-1.3-3-3-3l0,0c-1.6,0-3,1.3-3,3L58.3,127.9L58.3,127.9z M65.6,127.9c2,0,3.9,0,5.9,0
		c0-0.4,0-0.8,0-1.1c0-1.6-1.3-3-3-3l0,0c-1.6,0-3,1.3-3,3C65.5,127.2,65.5,127.6,65.6,127.9L65.6,127.9z M72.9,127.9
		c2,0,3.9,0,5.9,0c0-0.4,0-0.8,0-1.1c0-1.6-1.3-3-3-3l0,0c-1.6,0-3,1.3-3,3C72.8,127.2,72.8,127.6,72.9,127.9L72.9,127.9z
		 M7.4,119.1c56.9,0,121.8,0,185.4,0V137c0,0.8-0.7,1.4-1.5,1.4H8.8c-0.8,0-1.5-0.6-1.5-1.4L7.4,119.1L7.4,119.1z M55.3,120.5h135.1
		V137H55.3V120.5z"/>
</g>
</svg>
