<?xml version="1.0" encoding="utf-8"?>
<svg version="1.1" id="Слой_1" xmlns="http://www.w3.org/2000/svg" xmlns:xlink="http://www.w3.org/1999/xlink" x="0px" y="0px"
     width="200px" height="200px" viewBox="0 0 200 200" style="enable-background:new 0 0 200 200;" xml:space="preserve">
<g id="Слой_x0020_1">
	<g id="_1094743048">
		<path class="st0" d="M105.3,65.7H11.4c-2.2,0-4.1,1.9-4.1,4.1v59.1c0,2.4,1.9,2.9,4.1,2.9h93.9c2.2,0,4.4-0.5,4.4-2.9V69.8
			C109.7,67.6,107.5,65.7,105.3,65.7L105.3,65.7z M102.4,118.4H60.5V99.1h41.9V118.4z M61.9,116.2l9.4-8.8l0.4-0.4l0.4,0.4l7,7
			L90,101.1l0.7-0.9l0.4,1.1l4.7,13.5l4.3-4.3l0.9,0.9l-5,5l-0.7,0.7l-0.3-0.9l-4.7-13.4l-10.6,13l-0.4,0.5l-0.5-0.5l-7.1-7.1
			l-9,8.4l-0.9-0.9H61.9z M14.8,118.4h41.9V99.1H14.8V118.4z M16.9,117.2V106H21v11.2H16.9z M23.6,117.2c0-2.1,0-4.2,0-6.3
			c1.4,0,2.8,0,4.1,0c0,2.1,0,4.2,0,6.3C26.3,117.2,24.9,117.2,23.6,117.2z M30.3,117.2c0-2.8,0-5.5,0-8.3c1.4,0,2.8,0,4.1,0
			c0,2.8,0,5.5,0,8.3C33,117.2,31.6,117.2,30.3,117.2z M37,117.2c0-1.3,0-2.6,0-3.9c1.4,0,2.8,0,4.1,0c0,1.3,0,2.6,0,3.9
			C39.7,117.2,38.3,117.2,37,117.2z M43.7,117.2c0-3.2,0-6.4,0-9.6c1.4,0,2.8,0,4.1,0c0,3.2,0,6.4,0,9.6
			C46.4,117.2,45,117.2,43.7,117.2z M50.4,117.2v-7.3h4.1v7.3H50.4z M102.3,75.2H60.4v19.3h41.9V75.2z M62.5,93V81.8h4.1V93H62.5z
			 M69.2,93c0-2.1,0-4.2,0-6.3c1.4,0,2.8,0,4.1,0c0,2.1,0,4.2,0,6.3C71.9,93,70.5,93,69.2,93z M75.9,93c0-2.8,0-5.5,0-8.3
			c1.4,0,2.8,0,4.1,0c0,2.8,0,5.5,0,8.3C78.6,93,77.2,93,75.9,93z M82.6,93c0-1.3,0-2.6,0-3.9c1.4,0,2.8,0,4.1,0c0,1.3,0,2.6,0,3.9
			C85.3,93,83.9,93,82.6,93z M89.3,93c0-3.2,0-6.4,0-9.6c1.4,0,2.8,0,4.1,0c0,3.2,0,6.4,0,9.6C92,93,90.6,93,89.3,93z M96,93v-7.3
			h4.1V93H96z M14.6,75.2h41.9v19.3H14.6V75.2z M15.9,92l9.4-8.8l0.4-0.4l0.4,0.4l7,7L44,76.9l0.7-0.9l0.4,1.1l4.7,13.5l4.3-4.3
			l0.9,0.9l-5,5l-0.7,0.7L49,92l-4.7-13.4l-10.6,13l-0.4,0.5l-0.5-0.5l-7.1-7.1l-9,8.4L15.8,92H15.9z M71.3,144.7
			c-1.7-1.4-2-3.7-2-3.7l-0.7-4.6h-21l-0.7,4.6c0,0-0.2,2.2-1.9,3.4c-1.9,1.4-3.2,2.7-1.9,2.9c1.4,0.2,14.1,0,15.1,0
			c0.8,0,13.6,0.2,14.9,0c1.2-0.2,0-1.2-1.9-2.5l0,0L71.3,144.7z M104.8,122.2L104.8,122.2H11.5V71.6h93.3V122.2z"/>
		<path class="st0" d="M188.3,52.7H94.4c-2.2,0-4.1,1.9-4.1,4.1v6.1h4.4v-4.3H188v50.6l0,0h-74v9.6h74.2c2.2,0,4.4-0.5,4.4-2.9V56.8
			c0-2.2-2.2-4.1-4.4-4.1l0,0H188.3z M185.4,105.4h-41.9V86.1h41.9V105.4z M144.9,103.2l9.4-8.8l0.4-0.4l0.4,0.4l7,7L173,88.1
			l0.7-0.9l0.4,1.1l4.7,13.5l4.3-4.3l0.9,0.9l-5,5l-0.7,0.7l-0.3-0.9l-4.7-13.4l-10.6,13l-0.4,0.5l-0.5-0.5l-7.1-7.1l-9,8.4
			l-0.9-0.9H144.9z M114.1,105.4h25.6V86.1h-25.6v9.8h3.4c0,2.8,0,5.5,0,8.3h-3.4V105.4z M120,104.2c0-1.3,0-2.6,0-3.9
			c1.4,0,2.8,0,4.1,0c0,1.3,0,2.6,0,3.9C122.7,104.2,121.3,104.2,120,104.2z M126.7,104.2c0-3.2,0-6.4,0-9.6c1.4,0,2.8,0,4.1,0
			c0,3.2,0,6.4,0,9.6C129.4,104.2,128,104.2,126.7,104.2z M133.4,104.2v-7.3h4.1v7.3H133.4z M185.3,62.2h-41.9v19.3h41.9V62.2z
			 M145.5,80V68.8h4.1V80H145.5z M152.2,80c0-2.1,0-4.2,0-6.3c1.4,0,2.8,0,4.1,0c0,2.1,0,4.2,0,6.3C154.9,80,153.5,80,152.2,80z
			 M158.9,80c0-2.8,0-5.5,0-8.3c1.4,0,2.8,0,4.1,0c0,2.8,0,5.5,0,8.3C161.6,80,160.2,80,158.9,80z M165.6,80c0-1.3,0-2.6,0-3.9
			c1.4,0,2.8,0,4.1,0c0,1.3,0,2.6,0,3.9C168.3,80,166.9,80,165.6,80z M172.3,80c0-3.2,0-6.4,0-9.6c1.4,0,2.8,0,4.1,0
			c0,3.2,0,6.4,0,9.6C175,80,173.6,80,172.3,80z M179,80v-7.3h4.1V80H179z M97.6,62.2h41.9v19.3h-25.6v-4.9l2,2l0.5,0.5l0.4-0.5
			l10.6-13l4.7,13.4l0.3,0.9l0.7-0.7l5-5l-0.9-0.9l-4.3,4.3l-4.7-13.5l-0.4-1.1l-0.7,0.9l-10.9,13.3l-2.4-2.4v-7.9
			c0-2.2-2.2-4.1-4.4-4.1l0,0H97.5L97.6,62.2L97.6,62.2z M154.4,131.7c-1.7-1.4-2-3.7-2-3.7l-0.7-4.6h-21L130,128
			c0,0-0.2,2.2-1.9,3.4c-1.9,1.4-3.2,2.7-1.9,2.9c1.4,0.2,14.1,0,15.1,0c0.8,0,13.6,0.2,14.9,0c1.2-0.2,0-1.2-1.9-2.5l0,0
			L154.4,131.7z"/>
	</g>
</g>
</svg>
