<?xml version="1.0" encoding="utf-8"?>
<svg version="1.1" id="Слой_1" xmlns="http://www.w3.org/2000/svg" xmlns:xlink="http://www.w3.org/1999/xlink" x="0px" y="0px"
     width="16px" height="16px" viewBox="0 0 16 16" style="enable-background:new 0 0 16 16;" xml:space="preserve">
<g>
	<path class="st0" d="M15.7,14.3l-4-4C12.5,9.3,13,7.9,13,6.5C13,2.9,10.1,0,6.5,0C2.9,0,0,2.9,0,6.5C0,10.1,2.9,13,6.5,13
		c1.4,0,2.8-0.5,3.8-1.3l4,4c0.4,0.4,1,0.4,1.4,0C16.1,15.3,16.1,14.7,15.7,14.3L15.7,14.3z M2,6.5L2,6.5C2,4,4,2,6.5,2
		C9,2,11,4,11,6.5C11,9,9,11,6.5,11C4,11,2,9,2,6.5L2,6.5z"/>
</g>
</svg>
