<?xml version="1.0" encoding="utf-8"?>
<svg version="1.1" id="Слой_1" xmlns="http://www.w3.org/2000/svg" xmlns:xlink="http://www.w3.org/1999/xlink" x="0px" y="0px"
     width="200px" height="200px" viewBox="0 0 200 200" style="enable-background:new 0 0 200 200;" xml:space="preserve">
<g>
	<path class="st0" d="M116.7,116c-1.8-1.4-2.2-4-2.2-4l-0.7-4.9H91.5l-0.7,4.9c0,0-0.2,2.3-2,3.6c-2,1.4-3.4,2.9-2,3.1
		c1.4,0.2,14.9,0,16,0c0.9,0,14.4,0.2,15.8,0c1.3-0.2,0-1.3-2-2.7l0,0H116.7z M192.7,122.2h-56.1h-16.2h-13.1l-0.7,18.3L92.8,135
		v32.9H7.4v-45.7h60.8l7.5-16.6l1.6,16.6h15.5V135l13.8,16.4l0.7,16.5h85.4V122.2z M114.7,129.3v31.3h72.4v2.2h-73.4h-1.1v-1.1
		v-32.4H114.7L114.7,129.3z M118.3,156.6l16.2-15.1l0.8-0.7l0.7,0.7l12.1,12.1l18.7-22.8l1.2-1.5l0.6,1.8l8.1,23.2l7.4-7.4l1.5,1.5
		L177,157l-1.2,1.2l-0.6-1.6l-8-23L149,155.9l-0.8,0.9l-0.8-0.8l-12.2-12.2l-15.4,14.4L118.3,156.6z M12.9,157.4h48.9v3.7H12.9
		V157.4z M12.9,151.5c21.5,0,42.9,0,64.4,0c0,1.2,0,2.4,0,3.7c-21.5,0-42.9,0-64.4,0C12.9,154,12.9,152.8,12.9,151.5z M12.9,145.6
		c8.7,0,17.4,0,26,0c0,1.2,0,2.4,0,3.7c-8.7,0-17.4,0-26,0C12.9,148.1,12.9,146.9,12.9,145.6z M12.9,139.7c18.4,0,36.9,0,55.3,0
		c0,1.2,0,2.4,0,3.7c-18.4,0-36.9,0-55.3,0C12.9,142.2,12.9,141,12.9,139.7z M12.9,133.8c14.2,0,28.3,0,42.5,0c0,1.2,0,2.4,0,3.7
		c-14.2,0-28.3,0-42.5,0C12.9,136.3,12.9,135.1,12.9,133.8z M12.9,127.9h74.9v3.7H12.9V127.9z M118.6,86.8h27.1V67.6h-27.1V86.8z
		 M118.6,43.9h27.1v19.2h-27.1V43.9z M116.1,86.8H89V67.6h27.1V86.8z M59.5,86.8h27.1V67.6H59.5V86.8z M116.1,43.9H89v19.2h27.1
		V43.9z M59.5,43.9h27.1v19.2H59.5V43.9z M152.6,32.4H52.8c-2.3,0-4.3,2-4.3,4.3v62.9c0,2.5,2,3.1,4.3,3.1h99.8
		c2.3,0,4.7-0.5,4.7-3.1V36.7C157.3,34.4,155,32.4,152.6,32.4L152.6,32.4z M150.6,91.5L150.6,91.5H55V39.6h95.6V91.5z"/>
</g>
</svg>
