<?xml version="1.0" encoding="utf-8"?>
<svg version="1.1" id="Слой_1" xmlns="http://www.w3.org/2000/svg" xmlns:xlink="http://www.w3.org/1999/xlink" x="0px" y="0px"
     width="200px" height="200px" viewBox="0 0 200 200" style="enable-background:new 0 0 200 200;" xml:space="preserve">
<g id="Слой_x0020_1">
	<g id="_1193434672">
		<path class="st0" d="M58.8,101.9l-0.6,16.2v0.6c0,4.2-2,9.5-6.9,10l65.9-8.1c9.7-1.2,17.7-5.1,17.7-13.2V96.8L115,96.9
			c-2.8,3.7-5.1,9.6-10.1,9.6H103l-17.5,0.3l-4.9-4.9C80,102,59.3,101.9,58.8,101.9z"/>
		<path class="st0" d="M152.5,71.3h19.3c5,0,9.2,3.1,10.4,7.4c0.2,0.8,0.3,1.6,0.3,2.4v31.1c0,5.4-4.8,9.4-10.6,8.9l-19.4-1.7
			c-5.8-0.5-10.6-5.4-10.6-10.7v-1.2h14.4c6.2,0,11.3-4.6,11.3-10.3v-3c0-5.7-5.1-10.3-11.3-10.3h-14.4v-2.8c0-5.4,4.8-9.8,10.7-9.8
			H152.5z"/>
		<path class="st0" d="M135.6,85.3h16.5c6.7,0,12.2,4.6,12.2,10.3l0,0c0,5.7-5.5,10.3-12.2,10.3h-16.5v-2.3c2.8-1.9,4.6-4.8,4.6-8
			l0,0c0-3.2-1.8-6.1-4.6-8V85.3z"/>
		<path class="st0" d="M117.3,76.2l-63.4-3.7c6,9.2,6.2,16.2,6.2,26.3l21.8,0.6l4.4,4l4.3,0.1h13.1c5.1,0,7.4-5,10.1-8.6l21.1-0.1
			v-7.6C134.9,79.1,126.9,76.9,117.3,76.2L117.3,76.2z"/>
		<path class="st0" d="M41.6,127.8h-4.4c-9.4,0-14.5-6.4-14.5-14.1v-12.9c0-8.2,2.9-26.7,14.5-26.7l0,0c8.6,0,19.1-4.6,19.1,22.5
			v20.8C56.3,123.2,52.6,127.9,41.6,127.8L41.6,127.8z M38.9,87.1c5.1,0,9.2,6.5,9.2,14.4c0,8-4.1,14.4-9.2,14.4s-9.2-6.5-9.2-14.4
			C29.7,93.5,33.8,87.1,38.9,87.1z M38.9,77.5c1.1,0,2,1.4,2,3.1c0,1.7-0.9,3.1-2,3.1c-1.1,0-2-1.4-2-3.1
			C36.9,78.9,37.8,77.5,38.9,77.5z M39.7,90.5c3.3,0,6,5,6,11.1c0,6.1-2.7,11.1-6,11.1s-6-5-6-11.1C33.7,95.5,36.4,90.5,39.7,90.5z"
			/>
		<path class="st0" d="M37.9,72.5c-7.5-1.1-20.4-3.9-20.3,6.1c0,3.4,2.2,9.4,4.3,14.1C21.8,83.8,25.5,71.5,37.9,72.5z"/>
	</g>
</g>
</svg>
