<?xml version="1.0" encoding="utf-8"?>
<svg version="1.1" id="Слой_1" xmlns="http://www.w3.org/2000/svg" xmlns:xlink="http://www.w3.org/1999/xlink" x="0px" y="0px"
     width="200px" height="200px" viewBox="0 0 200 200" style="enable-background:new 0 0 200 200;" xml:space="preserve">
<g id="Слой_x0020_1">
	<g id="_1094366256">
		<path class="st0" d="M23.1,76.4V82v0.3c0,1.9-1.4,3.4-3.2,3.7l21.7-2c3.6-0.3,6.5-3.4,6.5-7v-5.3h-12c-1,1.6-1.9,4.3-3.7,4.3h-0.7
			l-8,0.2c-0.2,0-0.4,0.1-0.7,0.1L23.1,76.4z M56.3,60.9h8.2c2.1,0,3.9,1.5,4.4,3.4C69,64.7,69,65,69,65.4v14.5c0,2.5-2,4.4-4.5,4.1
			l-8.2-0.8c-2.5-0.2-4.5-2.5-4.5-5v-0.5h4c2.6,0,4.8-2.2,4.8-4.8v-1.4c0-2.6-2.2-4.8-4.8-4.8h-4v-1.3c0-2.5,2-4.6,4.6-4.6
			L56.3,60.9z M49.1,67.4H55c2.6,0,4.8,2.2,4.8,4.8l0,0c0,2.6-2.2,4.8-4.8,4.8h-5.9V67.4z M13.7,85.6h-1.6c-3.5,0-5.4-2.8-5.4-6.3
			v-5.8c0-3.5,1.9-11.9,5.4-11.9l0,0c3.5,0,5.8,6.6,5.8,10.1V81c0,2.6-1.6,4.7-4.2,4.7V85.6z M41.6,60.9H12.3
			c-2.8-0.5-8.4-1.8-8.4,2.7c0,1.5,1.7,6.4,2.5,8.5c0-3.7,1.2-10.7,5.1-11.2l0,0h0.2l0,0c0.1,0,0.3,0,0.4,0l0,0h0.2l0,0
			c0.5,0.1,1,0.2,1.5,0.4l0,0l0.1,0.1l0,0l0.1,0.1l0,0c0.1,0,0.2,0.1,0.3,0.1l0,0l0.1,0.1l0,0c0.3,0.2,0.6,0.4,0.9,0.7l0,0
			c0.1,0.1,0.1,0.1,0.2,0.2l0,0l0.1,0.1l0,0l0.1,0.1l0,0l0.1,0.1l0,0l0.1,0.1l0,0c0.1,0.2,0.2,0.3,0.3,0.5l0.1,0.1
			c0.1,0.2,0.2,0.4,0.3,0.5l0,0l0.1,0.1v0.1l0.1,0.1l0,0c0.1,0.1,0.1,0.3,0.2,0.4l0,0l0.1,0.1l0,0l0.1,0.1l0,0l0.1,0.1l0,0l0.1,0.2
			l0,0l0.1,0.2l0,0l0.1,0.2l0,0l0.1,0.1l0,0l0.1,0.1V66l0.1,0.1v0.1v0.1v0.1v0.1v0.1v0.1v0.1v0.1L18,67v0.1l0.1,0.1l0,0l0.1,0.2l0,0
			l0.1,0.2l0,0l0.1,0.2c1.6,3.4,1.9,8,5.4,7.3l8-0.2h0.7c1.9,0,2.7-2.7,3.7-4.3h12v-3.4V67l0,0l0,0l0,0v-0.1l0,0l0,0l0,0l0,0v-0.1
			l0,0l0,0l0,0l0,0l0,0v-0.1l0,0l0,0l0,0l0,0l0,0l0,0l0,0l0,0v-0.1l0,0l0,0l0,0l0,0v-0.1l0,0l0,0l0,0l0,0l0,0v-0.1l0,0l0,0l0,0V52.2
			c0-0.5-0.3-1-0.7-1.1V36.3c0-0.7-0.6-1.3-1.3-1.3l0,0c-0.7,0-1.3,0.6-1.3,1.3v14.8c-0.4,0.2-0.7,0.6-0.7,1.1v9.4h-0.1l0,0l0,0l0,0
			H44h-0.1l0,0l0,0l0,0l0,0l0,0l0,0l0,0l0,0l0,0l0,0h-0.1h-0.1l0,0l0,0l0,0l0,0l0,0l0,0l0,0l0,0h-0.1l0,0l0,0l0,0h-0.1l0,0l0,0l0,0
			l0,0h-0.1l0,0l0,0l0,0h-0.1l0,0l0,0l0,0h-0.1l0,0H43l0,0h-0.1l0,0l0,0h-0.2l0,0h-0.2L41.6,60.9z M12.3,60.9h-0.7
			C11.8,60.9,12.1,60.9,12.3,60.9z M18.3,85.6h-1.2c-0.4,0-0.7,0-1-0.1c2.1-0.4,2.9-2.3,2.9-4.6v-7.4c0-0.9-0.2-2.1-0.5-3.3
			c1.3,2.9,1.4,5.2,4,6.1v4.6C22.5,83.5,20.9,85.6,18.3,85.6z M12.2,67.4c1.9,0,3.4,2.9,3.4,6.4c0,3.6-1.5,6.4-3.4,6.4
			s-3.4-2.9-3.4-6.4C8.8,70.2,10.3,67.4,12.2,67.4z M12.2,63.1c0.4,0,0.7,0.6,0.7,1.4c0,0.8-0.3,1.4-0.7,1.4c-0.4,0-0.7-0.6-0.7-1.4
			C11.5,63.7,11.8,63.1,12.2,63.1z M12.5,68.9c1.2,0,2.2,2.2,2.2,4.9c0,2.7-1,4.9-2.2,4.9s-2.2-2.2-2.2-4.9
			C10.3,71.1,11.3,68.9,12.5,68.9z"/>
		<path class="st0" d="M116.1,89.2c24.6-0.3,52.5-0.2,80,0v0.3H171h-0.2l-0.1,0.1l-3.4,3.7h-22.4l-3.4-3.7l-0.1-0.1h-0.2h-25v-0.3
			H116.1z M178.1,40.7L178.1,40.7c-0.7-0.2-1.4,0.2-1.5,0.9l-3.7,14.3c-0.5,0.1-0.9,0.4-1,0.9L166.4,78h-19.3l-5.5-21.2
			c-0.1-0.5-0.5-0.8-1-0.9l-3.7-14.3c-0.2-0.7-0.9-1.1-1.5-0.9l0,0c-0.7,0.2-1.1,0.9-0.9,1.5l3.7,14.3c-0.4,0.3-0.6,0.8-0.4,1.3
			L143,78h-14.6l-12.2,10c26.6,0,53.3,0,79.9,0l-12.2-10h-13.4l5.2-20.2c0.1-0.5-0.1-1-0.4-1.3l3.7-14.3
			C179.2,41.5,178.8,40.8,178.1,40.7z M152.1,92.6c2.6,0,5.3,0,7.9,0l-1-2.7c-2,0-4,0-6,0l-1,2.7H152.1z M126.1,95.2c1,0,2,0,3.1,0
			c0,0.6,0,1.2,0,1.8c-1,0-2,0-3.1,0C126.1,96.4,126.1,95.8,126.1,95.2z M126.1,91.7c0.6,0,1.2,0,1.8,0c0,0.6,0,1.2,0,1.8
			c-0.6,0-1.2,0-1.8,0C126.1,92.9,126.1,92.3,126.1,91.7z M196.1,90.2v10c0,0.4-0.3,0.8-0.6,0.8h-78.7c-0.3,0-0.6-0.4-0.6-0.8v-10
			h24.9l3.4,3.7l0.1,0.1h0.2h22.8h0.2l0.1-0.1l3.4-3.7H196.1L196.1,90.2z"/>
		<path class="st0" d="M53.6,102.6v5.6v0.3c0,1.9-1.4,3.4-3.2,3.7l21.7-2c3.6-0.3,6.5-3.4,6.5-7v-5.3h-12c-1,1.6-1.9,4.3-3.7,4.3
			h-0.7l-8,0.2c-0.2,0-0.4,0.1-0.7,0.1L53.6,102.6z M86.8,87.1H95c2.1,0,3.9,1.5,4.4,3.4c0.1,0.4,0.1,0.7,0.1,1.1v14.5
			c0,2.5-2,4.4-4.5,4.1l-8.2-0.8c-2.5-0.2-4.5-2.5-4.5-5v-0.5h4c2.6,0,4.8-2.2,4.8-4.8v-1.4c0-2.6-2.2-4.8-4.8-4.8h-4v-1.3
			C82.3,89.1,84.3,87,86.8,87.1L86.8,87.1z M79.6,93.6h5.9c2.6,0,4.8,2.2,4.8,4.8l0,0c0,2.6-2.2,4.8-4.8,4.8h-5.9V93.6z M44.2,111.8
			h-1.6c-3.5,0-5.4-2.8-5.4-6.3v-5.8c0-3.5,1.9-11.9,5.4-11.9l0,0c3.5,0,5.8,6.6,5.8,10.1v9.3C48.4,109.8,46.8,111.9,44.2,111.8
			L44.2,111.8z M72.1,87.1H42.8c-2.8-0.5-8.4-1.8-8.4,2.7c0,1.5,1.7,6.4,2.5,8.5c0-3.7,1.2-10.7,5.1-11.2l0,0h0.2l0,0
			c0.1,0,0.3,0,0.4,0l0,0h0.2l0,0c0.5,0.1,1,0.2,1.5,0.4l0,0l0.1,0.1l0,0l0.1,0.1l0,0c0.1,0,0.2,0.1,0.3,0.1l0,0l0.1,0.1l0,0
			c0.3,0.2,0.6,0.4,0.9,0.7l0,0c0.1,0.1,0.1,0.1,0.2,0.2l0,0l0.1,0.1l0,0l0.1,0.1l0,0l0.1,0.1l0,0l0.1,0.1l0,0
			c0.1,0.2,0.2,0.3,0.3,0.5l0.1,0.1c0.1,0.2,0.2,0.4,0.3,0.5l0,0l0.1,0.1v0.1l0.1,0.1l0,0c0.1,0.1,0.1,0.3,0.2,0.4l0,0l0.1,0.1l0,0
			l0.1,0.1l0,0l0.1,0.1l0,0l0.1,0.2l0,0l0.1,0.2l0,0l0.1,0.2l0,0l0.1,0.1l0,0l0.1,0.1v0.1l0.1,0.1v0.1v0.1v0.1v0.1v0.1v0.1V93v0.1
			l0.1,0.1v0.1l0.1,0.1l0,0l0.1,0.2l0,0l0.1,0.2l0,0l0.1,0.2c1.6,3.4,1.9,8,5.4,7.3l8-0.2H63c1.9,0,2.7-2.7,3.7-4.3h12v-3.4v-0.2
			l0,0l0,0l0,0v-0.1l0,0l0,0l0,0l0,0V93l0,0l0,0l0,0l0,0l0,0v-0.1l0,0l0,0l0,0l0,0l0,0l0,0l0,0l0,0v-0.1l0,0l0,0l0,0l0,0v-0.1l0,0
			l0,0l0,0l0,0l0,0v-0.1l0,0l0,0l0,0V78.4c0-0.5-0.3-1-0.7-1.1V62.5c0-0.7-0.6-1.3-1.3-1.3l0,0c-0.7,0-1.3,0.6-1.3,1.3v14.8
			c-0.4,0.2-0.7,0.6-0.7,1.1v9.4h-0.1l0,0l0,0l0,0h-0.1h-0.1l0,0l0,0l0,0l0,0l0,0l0,0l0,0l0,0l0,0l0,0h-0.1h-0.1l0,0l0,0l0,0l0,0
			l0,0l0,0l0,0l0,0h-0.1l0,0l0,0l0,0H74l0,0l0,0l0,0l0,0h-0.1l0,0l0,0l0,0h-0.1l0,0l0,0l0,0h-0.1l0,0h-0.2l0,0h-0.1l0,0l0,0h-0.2
			l0,0H73L72.1,87.1z M42.8,87.1h-0.7C42.3,87.1,42.6,87.1,42.8,87.1z M48.8,111.8h-1.2c-0.4,0-0.7,0-1-0.1c2.1-0.4,2.9-2.3,2.9-4.6
			v-7.4c0-0.9-0.2-2.1-0.5-3.3c1.3,2.9,1.4,5.2,4,6.1v4.6C53,109.7,51.4,111.8,48.8,111.8z M42.7,93.6c1.9,0,3.4,2.9,3.4,6.4
			c0,3.6-1.5,6.4-3.4,6.4s-3.4-2.9-3.4-6.4C39.3,96.4,40.8,93.6,42.7,93.6z M42.7,89.3c0.4,0,0.7,0.6,0.7,1.4c0,0.8-0.3,1.4-0.7,1.4
			S42,91.5,42,90.7C42,89.9,42.3,89.3,42.7,89.3z M43,95.1c1.2,0,2.2,2.2,2.2,4.9c0,2.7-1,4.9-2.2,4.9s-2.2-2.2-2.2-4.9
			C40.8,97.3,41.8,95.1,43,95.1z"/>
		<path class="st0" d="M83.6,128.9v5.6v0.3c0,1.9-1.4,3.4-3.2,3.7l21.7-2c3.6-0.3,6.5-3.4,6.5-7v-5.3h-12c-1,1.6-1.9,4.3-3.7,4.3
			h-0.7l-8,0.2c-0.2,0-0.4,0.1-0.7,0.1L83.6,128.9z M116.8,113.4h8.2c2.1,0,3.9,1.5,4.4,3.4c0.1,0.4,0.1,0.7,0.1,1.1v14.5
			c0,2.5-2,4.4-4.5,4.1l-8.2-0.8c-2.5-0.2-4.5-2.5-4.5-5v-0.5h4c2.6,0,4.8-2.2,4.8-4.8V124c0-2.6-2.2-4.8-4.8-4.8h-4v-1.3
			C112.3,115.4,114.3,113.3,116.8,113.4L116.8,113.4z M109.6,119.9h5.9c2.6,0,4.8,2.2,4.8,4.8l0,0c0,2.6-2.2,4.8-4.8,4.8h-5.9V119.9
			z M74.2,138.1h-1.6c-3.5,0-5.4-2.8-5.4-6.3V126c0-3.5,1.9-11.9,5.4-11.9l0,0c3.5,0,5.8,6.6,5.8,10.1v9.3
			C78.4,136.1,76.8,138.2,74.2,138.1L74.2,138.1z M102.1,113.4H72.8c-2.8-0.5-8.4-1.8-8.4,2.7c0,1.5,1.7,6.4,2.5,8.5
			c0-3.7,1.2-10.7,5.1-11.2l0,0h0.2l0,0c0.1,0,0.3,0,0.4,0l0,0h0.2l0,0c0.5,0.1,1,0.2,1.5,0.4l0,0l0.1,0.1l0,0l0.1,0.1l0,0
			c0.1,0,0.2,0.1,0.3,0.1l0,0l0.1,0.1l0,0c0.3,0.2,0.6,0.4,0.9,0.7l0,0c0.1,0.1,0.1,0.1,0.2,0.2l0,0l0.1,0.1l0,0l0.1,0.1l0,0
			l0.1,0.1l0,0l0.1,0.1l0,0c0.1,0.2,0.2,0.3,0.3,0.5l0.1,0.1c0.1,0.2,0.2,0.4,0.3,0.5l0,0l0.1,0.1v0.1l0.1,0.1l0,0
			c0.1,0.1,0.1,0.3,0.2,0.4l0,0l0.1,0.1l0,0l0.1,0.1l0,0l0.1,0.1l0,0l0.1,0.2l0,0L78,118l0,0l0.1,0.2l0,0l0.1,0.1l0,0l0.1,0.1v0.1
			l0.1,0.1v0.1v0.1v0.1v0.1v0.1v0.1v0.1v0.1l0.1,0.1v0.1l0.1,0.1l0,0l0.1,0.2l0,0l0.1,0.2l0,0l0.1,0.2c1.6,3.4,1.9,8,5.4,7.3l8-0.2
			H93c1.9,0,2.7-2.7,3.7-4.3h12v-3.4v-0.2l0,0l0,0l0,0v-0.1l0,0l0,0l0,0l0,0v-0.1l0,0l0,0l0,0l0,0l0,0v-0.1l0,0l0,0l0,0l0,0l0,0l0,0
			l0,0l0,0v-0.1l0,0l0,0l0,0l0,0V119l0,0l0,0l0,0l0,0l0,0v-0.1l0,0l0,0l0,0v-14.2c0-0.5-0.3-1-0.7-1.1V88.8c0-0.7-0.6-1.3-1.3-1.3
			l0,0c-0.7,0-1.3,0.6-1.3,1.3v14.8c-0.4,0.2-0.7,0.6-0.7,1.1v9.4h-0.1l0,0l0,0l0,0h-0.1h-0.1l0,0l0,0l0,0l0,0l0,0l0,0l0,0l0,0l0,0
			l0,0h-0.1h-0.1l0,0l0,0l0,0l0,0l0,0l0,0l0,0l0,0h-0.1l0,0l0,0l0,0H104l0,0l0,0l0,0l0,0h-0.1l0,0l0,0l0,0h-0.1l0,0l0,0l0,0h-0.1
			l0,0h-0.2l0,0h-0.1l0,0l0,0h-0.2l0,0H103L102.1,113.4z M72.8,113.4h-0.7C72.3,113.4,72.6,113.4,72.8,113.4z M78.8,138.1h-1.2
			c-0.4,0-0.7,0-1-0.1c2.1-0.4,2.9-2.3,2.9-4.6V126c0-0.9-0.2-2.1-0.5-3.3c1.3,2.9,1.4,5.2,4,6.1v4.6C83,136,81.4,138.1,78.8,138.1z
			 M72.7,119.9c1.9,0,3.4,2.9,3.4,6.4c0,3.6-1.5,6.4-3.4,6.4c-1.9,0-3.4-2.9-3.4-6.4C69.3,122.7,70.8,119.9,72.7,119.9z M72.7,115.6
			c0.4,0,0.7,0.6,0.7,1.4c0,0.8-0.3,1.4-0.7,1.4c-0.4,0-0.7-0.6-0.7-1.4C72,116.2,72.3,115.6,72.7,115.6z M73,121.4
			c1.2,0,2.2,2.2,2.2,4.9c0,2.7-1,4.9-2.2,4.9c-1.2,0-2.2-2.2-2.2-4.9C70.8,123.6,71.8,121.4,73,121.4z"/>
		<path class="st0" d="M112.9,155.6v5.6v0.3c0,1.9-1.4,3.4-3.2,3.7l21.7-2c3.6-0.3,6.5-3.4,6.5-7v-5.3h-12c-1,1.6-1.9,4.3-3.7,4.3
			h-0.7l-8,0.2c-0.2,0-0.4,0.1-0.7,0.1L112.9,155.6z M146.1,140.1h8.2c2.1,0,3.9,1.5,4.4,3.4c0.1,0.4,0.1,0.7,0.1,1.1v14.5
			c0,2.5-2,4.4-4.5,4.1l-8.2-0.8c-2.5-0.2-4.5-2.5-4.5-5v-0.5h4c2.6,0,4.8-2.2,4.8-4.8v-1.4c0-2.6-2.2-4.8-4.8-4.8h-4v-1.3
			c0-2.5,2-4.6,4.6-4.6L146.1,140.1z M138.9,146.6h5.9c2.6,0,4.8,2.2,4.8,4.8l0,0c0,2.6-2.2,4.8-4.8,4.8h-5.9V146.6z M103.5,164.8
			h-1.6c-3.5,0-5.4-2.8-5.4-6.3v-5.8c0-3.5,1.9-11.9,5.4-11.9l0,0c3.5,0,5.8,6.6,5.8,10.1v9.3c0,2.6-1.6,4.7-4.2,4.7V164.8z
			 M131.4,140.1h-29.3c-2.8-0.5-8.4-1.8-8.4,2.7c0,1.5,1.7,6.4,2.5,8.5c0-3.7,1.2-10.7,5.1-11.2l0,0h0.2l0,0c0.1,0,0.3,0,0.4,0l0,0
			h0.2l0,0c0.5,0.1,1,0.2,1.5,0.4l0,0l0.1,0.1l0,0l0.1,0.1l0,0c0.1,0,0.2,0.1,0.3,0.1l0,0l0.1,0.1l0,0c0.3,0.2,0.6,0.4,0.9,0.7l0,0
			c0.1,0.1,0.1,0.1,0.2,0.2l0,0l0.1,0.1l0,0l0.1,0.1l0,0l0.1,0.1l0,0l0.1,0.1l0,0c0.1,0.2,0.2,0.3,0.3,0.5l0.1,0.1
			c0.1,0.2,0.2,0.4,0.3,0.5l0,0l0.1,0.1v0.1l0.1,0.1l0,0c0.1,0.1,0.1,0.3,0.2,0.4l0,0l0.1,0.1l0,0l0.1,0.1l0,0l0.1,0.1l0,0l0.1,0.2
			l0,0l0.1,0.2l0,0l0.1,0.2l0,0l0.1,0.1l0,0l0.1,0.1v0.1l0.1,0.1v0.1v0.1v0.1v0.1v0.1v0.1v0.1v0.1l0.1,0.1v0.1l0.1,0.1l0,0l0.1,0.2
			l0,0l0.1,0.2l0,0l0.1,0.2c1.6,3.4,1.9,8,5.4,7.3l8-0.2h0.7c1.9,0,2.7-2.7,3.7-4.3h12v-3.4v-0.2l0,0l0,0l0,0v-0.1l0,0l0,0l0,0l0,0
			V146l0,0l0,0l0,0l0,0l0,0v-0.1l0,0l0,0l0,0l0,0l0,0l0,0l0,0l0,0v-0.1l0,0l0,0l0,0l0,0v-0.1l0,0l0,0l0,0l0,0l0,0v-0.1l0,0l0,0l0,0
			v-14.2c0-0.5-0.3-1-0.7-1.1v-14.8c0-0.7-0.6-1.3-1.3-1.3l0,0c-0.7,0-1.3,0.6-1.3,1.3v14.8c-0.4,0.2-0.7,0.6-0.7,1.1v9.4h-0.1l0,0
			l0,0l0,0h-0.1h-0.1l0,0l0,0l0,0l0,0l0,0l0,0l0,0l0,0l0,0l0,0h-0.1h-0.1l0,0l0,0l0,0l0,0l0,0l0,0l0,0l0,0h-0.1l0,0l0,0l0,0h-0.1
			l0,0l0,0l0,0l0,0h-0.1l0,0l0,0l0,0h-0.1l0,0l0,0l0,0H133l0,0h-0.2l0,0h-0.1l0,0l0,0h-0.2l0,0h-0.2L131.4,140.1z M102.1,140.1h-0.7
			C101.6,140.1,101.9,140.1,102.1,140.1z M108.1,164.8h-1.2c-0.4,0-0.7,0-1-0.1c2.1-0.4,2.9-2.3,2.9-4.6v-7.4c0-0.9-0.2-2.1-0.5-3.3
			c1.3,2.9,1.4,5.2,4,6.1v4.6C112.3,162.7,110.7,164.8,108.1,164.8z M102,146.6c1.9,0,3.4,2.9,3.4,6.4c0,3.6-1.5,6.4-3.4,6.4
			s-3.4-2.9-3.4-6.4C98.6,149.4,100.1,146.6,102,146.6z M102,142.3c0.4,0,0.7,0.6,0.7,1.4c0,0.8-0.3,1.4-0.7,1.4s-0.7-0.6-0.7-1.4
			C101.3,142.9,101.6,142.3,102,142.3z M102.3,148.1c1.2,0,2.2,2.2,2.2,4.9s-1,4.9-2.2,4.9c-1.2,0-2.2-2.2-2.2-4.9
			S101.1,148.1,102.3,148.1z"/>
	</g>
</g>
</svg>
