<?xml version="1.0" encoding="utf-8"?>
<!-- Generator: Adobe Illustrator 23.0.1, SVG Export Plug-In . SVG Version: 6.00 Build 0)  -->
<svg version="1.1" id="Слой_1" xmlns="http://www.w3.org/2000/svg" xmlns:xlink="http://www.w3.org/1999/xlink" x="0px" y="0px"
	 viewBox="0 0 25 26" style="enable-background:new 0 0 25 26;" xml:space="preserve">
<style type="text/css">
	.st0{fill-rule:evenodd;clip-rule:evenodd;fill:#62A9B2;}
</style>
<g>
	<path class="st0" d="M9.3,13.6c0,2.2,0.9,3.4,2.6,3.4c0.9,0,1.6-0.3,2.1-1c0.5-0.7,0.8-1.8,0.9-3.3l0.2-3.5C14.6,9,14,9,13.4,9
		c-1.3,0-2.3,0.4-3,1.2C9.7,11,9.3,12.1,9.3,13.6L9.3,13.6z M25,11.6c0,1.5-0.2,2.9-0.7,4.2c-0.5,1.3-1.1,2.3-2,3
		c-0.9,0.7-1.9,1.1-3,1.1c-0.8,0-1.4-0.2-2-0.6c-0.6-0.4-1-0.9-1.3-1.5h-0.2c-1.1,1.4-2.5,2.1-4.2,2.1c-1.8,0-3.2-0.6-4.3-1.7
		c-1-1.1-1.6-2.7-1.6-4.6c0-2.2,0.7-4,2.1-5.4c1.4-1.4,3.2-2.1,5.4-2.1c0.9,0,1.8,0.1,2.9,0.3c1.1,0.2,1.9,0.4,2.6,0.6l-0.4,7.8
		c0,1.5,0.4,2.2,1.2,2.2c0.7,0,1.2-0.5,1.6-1.5c0.4-1,0.6-2.3,0.6-3.9c0-1.7-0.3-3.2-1-4.5c-0.7-1.3-1.6-2.3-2.9-3
		c-1.2-0.7-2.7-1-4.2-1c-2.1,0-3.9,0.4-5.4,1.3C6.6,5.2,5.4,6.5,4.6,8.1c-0.8,1.7-1.2,3.6-1.2,5.7c0,2.9,0.8,5.2,2.3,6.7
		c1.5,1.6,3.7,2.3,6.5,2.3c1.1,0,2.3-0.1,3.6-0.4c1.3-0.2,2.6-0.6,3.8-1.1l0,3.1c-2.2,1-4.6,1.4-7.3,1.4c-3.9,0-6.9-1.1-9.1-3.2
		C1.1,20.7,0,17.8,0,14c0-2.6,0.6-5,1.7-7.1c1.1-2.1,2.7-3.8,4.7-5c2-1.2,4.4-1.8,7.1-1.8c2.2,0,4.3,0.5,6,1.4
		c1.8,1,3.1,2.3,4.1,4.1C24.5,7.3,25,9.3,25,11.6L25,11.6z"/>
</g>
</svg>
