<?xml version="1.0" encoding="utf-8"?>
<!-- Generator: Adobe Illustrator 23.0.1, SVG Export Plug-In . SVG Version: 6.00 Build 0)  -->
<svg version="1.1" id="Слой_1" xmlns="http://www.w3.org/2000/svg" xmlns:xlink="http://www.w3.org/1999/xlink" x="0px" y="0px"
	 viewBox="0 0 418.7 38.4" style="enable-background:new 0 0 418.7 38.4;" xml:space="preserve">
<style type="text/css">
	.st0{fill-rule:evenodd;clip-rule:evenodd;fill:#6B727C;}
	.st1{fill:#6B727C;}
</style>
<g>
	<path class="st0" d="M73.8,27c-0.8,0.4-1.2,1.4-0.8,2.2c0.4,0.8,1.3,1.2,2.2,0.8c0.6-0.3,1-0.9,1-1.6l15.4-7.1
		c0.5,0.5,1.2,0.6,1.9,0.3c0.8-0.4,1.2-1.4,0.8-2.2c-0.4-0.8-1.4-1.2-2.2-0.8c-0.6,0.3-1,0.9-1,1.6l-15.4,7.1
		C75.1,26.9,74.4,26.7,73.8,27L73.8,27z"/>
	<path class="st0" d="M73.5,29.9c0.7,0.5,1.8,0.3,2.3-0.4c0.5-0.8,0.3-1.8-0.4-2.3c-0.6-0.4-1.3-0.4-1.9,0L64,20.6
		c0.2-0.6-0.1-1.3-0.7-1.8c-0.8-0.5-1.8-0.3-2.3,0.4c-0.5,0.7-0.3,1.8,0.4,2.3c0.6,0.4,1.3,0.4,1.9,0l9.6,6.6
		C72.7,28.8,72.9,29.5,73.5,29.9L73.5,29.9z"/>
	<path class="st0" d="M37.5,27.9c0.9,0.3,1.8-0.2,2.1-1c0.3-0.9-0.2-1.8-1-2.1c-0.7-0.2-1.4,0-1.8,0.5l-15.3-5.1
		c0-0.7-0.5-1.3-1.1-1.5c-0.9-0.3-1.8,0.2-2.1,1c-0.3,0.9,0.2,1.8,1,2.1c0.7,0.2,1.4,0,1.8-0.5l15.3,5.1
		C36.4,27,36.9,27.7,37.5,27.9L37.5,27.9z"/>
	<path class="st0" d="M37.7,24.7c-0.9,0.2-1.4,1.1-1.2,2c0.2,0.9,1.1,1.4,2,1.2c0.7-0.2,1.2-0.7,1.2-1.4L61,21.1
		c0.4,0.6,1.1,0.8,1.8,0.7c0.9-0.2,1.4-1.1,1.2-2c-0.2-0.9-1.1-1.4-2-1.2c-0.7,0.2-1.2,0.8-1.2,1.4l-21.3,5.4
		C39,24.8,38.4,24.5,37.7,24.7L37.7,24.7z"/>
	<path class="st0" d="M0.9,28.4c-0.8,0.4-1.1,1.4-0.7,2.2c0.4,0.8,1.4,1.1,2.2,0.7c0.6-0.3,1-1,0.9-1.7l15.5-8.2
		c0.5,0.4,1.2,0.6,1.9,0.2c0.8-0.4,1.1-1.4,0.7-2.2c-0.4-0.8-1.4-1.1-2.2-0.7c-0.6,0.3-1,1-0.9,1.7L2.7,28.6
		C2.2,28.1,1.5,28,0.9,28.4L0.9,28.4z"/>
	<path class="st0" d="M34.3,15.6c0.8-0.4,1.2-1.4,0.8-2.2c-0.4-0.8-1.3-1.2-2.2-0.8c-0.6,0.3-1,0.9-1,1.6L21,19
		c-0.5-0.5-1.2-0.6-1.8-0.3C18.4,19,18,20,18.3,20.9c0.4,0.8,1.4,1.2,2.2,0.8c0.7-0.3,1-0.9,1-1.6l11-4.9
		C32.9,15.7,33.7,15.9,34.3,15.6L34.3,15.6z"/>
	<path class="st0" d="M34,12.4c-0.9-0.2-1.8,0.4-2,1.3c-0.2,0.9,0.4,1.8,1.3,2c0.7,0.1,1.4-0.2,1.7-0.7l25.7,5.5
		c0.1,0.7,0.6,1.2,1.3,1.4c0.9,0.2,1.8-0.4,2-1.3c0.2-0.9-0.4-1.8-1.3-2c-0.7-0.1-1.4,0.2-1.7,0.7l-25.7-5.5
		C35.2,13.1,34.7,12.6,34,12.4L34,12.4z"/>
	<path class="st0" d="M69.2,13.4c0.5-0.7,0.4-1.8-0.4-2.3c-0.7-0.5-1.8-0.4-2.3,0.4c-0.4,0.6-0.4,1.3,0,1.9l-3.7,5.2
		c-0.6-0.2-1.4,0.1-1.8,0.6c-0.5,0.7-0.4,1.8,0.4,2.3c0.7,0.5,1.8,0.4,2.3-0.4c0.4-0.6,0.4-1.3,0-1.9l3.7-5.2
		C68.1,14.2,68.8,14,69.2,13.4L69.2,13.4z"/>
	<path class="st0" d="M55.5,27c-0.5,0.7-0.4,1.8,0.4,2.3c0.7,0.5,1.8,0.4,2.3-0.4c0.4-0.6,0.4-1.3,0-1.9l3.7-5.2
		c0.6,0.2,1.4-0.1,1.8-0.6c0.5-0.8,0.4-1.8-0.4-2.3c-0.7-0.5-1.8-0.4-2.3,0.4c-0.4,0.6-0.4,1.3,0,1.9l-3.7,5.2
		C56.6,26.2,55.9,26.4,55.5,27L55.5,27z"/>
	<path class="st0" d="M11.3,12.7c-0.8-0.5-1.8-0.3-2.3,0.5c-0.5,0.8-0.3,1.8,0.5,2.3c0.6,0.4,1.3,0.3,1.9-0.1l6.8,4.4
		c-0.1,0.7,0.1,1.3,0.7,1.7c0.8,0.5,1.8,0.3,2.3-0.5c0.5-0.8,0.3-1.8-0.5-2.3c-0.6-0.4-1.3-0.3-1.9,0.1L12,14.4
		C12.2,13.8,11.9,13.1,11.3,12.7L11.3,12.7z"/>
	<path class="st0" d="M68.4,10.8c-0.9-0.3-1.8,0.2-2.1,1.1c-0.3,0.9,0.2,1.8,1.1,2.1c0.7,0.2,1.4,0,1.8-0.6L91,20.3
		c0,0.7,0.5,1.3,1.2,1.5c0.9,0.3,1.8-0.2,2.1-1.1c0.3-0.9-0.2-1.8-1.1-2.1c-0.7-0.2-1.4,0-1.8,0.6l-21.8-6.8
		C69.5,11.6,69.1,11,68.4,10.8L68.4,10.8z"/>
	<path class="st0" d="M69.4,11.8c-0.4-0.9-1.3-1.3-2.2-0.9c-0.9,0.4-1.3,1.3-0.9,2.2c0.3,0.7,0.9,1,1.6,1l5.4,13.3
		c-0.5,0.5-0.7,1.2-0.4,1.8c0.3,0.9,1.3,1.3,2.2,0.9c0.9-0.4,1.3-1.3,0.9-2.2c-0.3-0.7-0.9-1-1.6-1L69,13.6
		C69.5,13.2,69.7,12.4,69.4,11.8L69.4,11.8z"/>
	<path class="st0" d="M36.5,26.9c0.3,0.9,1.3,1.3,2.1,1c0.9-0.3,1.3-1.2,1-2.1c-0.3-0.7-0.9-1.1-1.5-1.1l-3.4-9.3
		c0.5-0.4,0.7-1.1,0.5-1.8c-0.3-0.9-1.3-1.3-2.1-1c-0.9,0.3-1.3,1.3-1,2.1c0.3,0.7,0.9,1.1,1.5,1.1L37,25
		C36.5,25.5,36.3,26.2,36.5,26.9L36.5,26.9z"/>
	<path class="st0" d="M112.9,30.1c0.9,0.3,1.8,0,2.2-0.9c0.3-0.8-0.1-1.8-0.9-2.2c-0.7-0.3-1.4-0.1-1.8,0.4l-17.9-7.2
		c0-0.7-0.4-1.3-1-1.6c-0.9-0.3-1.8,0.1-2.2,0.9c-0.3,0.9,0,1.8,0.9,2.2c0.7,0.3,1.4,0.1,1.8-0.4l17.9,7.2
		C111.8,29.2,112.2,29.8,112.9,30.1L112.9,30.1z"/>
	<path class="st0" d="M121.4,14c0.9-0.3,1.4-1.1,1.2-2c-0.2-0.9-1.2-1.4-2-1.2c-0.7,0.2-1.1,0.8-1.2,1.4L94,19.2
		c-0.4-0.5-1.1-0.8-1.8-0.6c-0.9,0.3-1.4,1.1-1.2,2c0.3,0.9,1.1,1.4,2,1.2c0.7-0.2,1.1-0.8,1.2-1.4l25.4-7
		C120.1,13.9,120.8,14.2,121.4,14L121.4,14z"/>
	<path class="st0" d="M97,13c0.3-0.9-0.1-1.8-1-2.1c-0.9-0.3-1.8,0.1-2.1,1c-0.2,0.7,0,1.4,0.5,1.8l-1.7,4.8c-0.7,0-1.3,0.5-1.5,1.1
		c-0.3,0.9,0.1,1.8,1,2.1c0.9,0.3,1.8-0.1,2.1-1c0.2-0.7,0-1.4-0.5-1.8l1.7-4.8C96.1,14.1,96.7,13.6,97,13L97,13z"/>
	<path class="st1" d="M153.7,6.2c-0.8-0.1-1.5-0.5-2-1c-0.6-0.7-0.8-1.4-0.7-2.3c0.1-0.9,0.4-1.6,1.1-2.1c0.6-0.5,1.3-0.8,2-0.8
		c0.9,0,1.7,0.4,2.4,1.1c0.1,0.1,0.2,0.3,0.3,0.4c0.1,0.1,0.1,0.2,0.1,0.3c0,0.2-0.1,0.3-0.2,0.4c-0.1,0.1-0.3,0.2-0.4,0.2
		c-0.2,0-0.3-0.1-0.4-0.2c-0.1-0.1-0.2-0.2-0.3-0.4c-0.3-0.4-0.8-0.6-1.3-0.7c-0.5,0-1,0.1-1.4,0.4c-0.4,0.3-0.6,0.8-0.7,1.3
		c0,0.5,0.1,1,0.4,1.4c0.3,0.3,0.7,0.5,1.3,0.6c1.1,0.2,1.9,0.7,2.5,1.3c0.6,0.7,0.9,1.5,0.9,2.4c0,0.1,0,0.2,0,0.4
		c-0.1,1-0.5,1.9-1.3,2.6c-0.7,0.6-1.5,0.9-2.4,0.9c-1.1,0-2.1-0.4-2.9-1.3c-0.1-0.1-0.2-0.2-0.3-0.4c-0.1-0.1-0.1-0.2-0.1-0.4
		c0-0.2,0.1-0.3,0.2-0.4c0.1-0.1,0.3-0.2,0.4-0.2c0.2,0,0.4,0.1,0.5,0.3c0.1,0.1,0.1,0.2,0.2,0.3c0.4,0.5,1,0.8,1.7,0.9
		c0.7,0.1,1.3-0.1,1.8-0.6c0.5-0.4,0.8-1,0.9-1.7c0.1-0.7-0.1-1.3-0.6-1.8C155.1,6.7,154.5,6.4,153.7,6.2L153.7,6.2z"/>
	<path class="st1" d="M166.1,7.5c-0.1-0.6-0.4-1.1-0.9-1.6C164.6,5.3,163.9,5,163,5c-0.9,0-1.6,0.3-2.2,0.9c-0.5,0.5-0.7,1-0.9,1.6
		H166.1L166.1,7.5z M165.4,10.4c0.2,0,0.3,0.1,0.4,0.2c0.1,0.1,0.2,0.3,0.2,0.4c0,0.2-0.1,0.3-0.2,0.4c-0.8,0.7-1.8,1.1-2.9,1.1
		c-1.2,0-2.2-0.4-3.1-1.3c-0.9-0.9-1.3-1.9-1.3-3.1s0.4-2.2,1.3-3.1c0.9-0.9,1.9-1.3,3.1-1.3c1.2,0,2.2,0.4,3.1,1.3
		c0.9,0.9,1.3,1.9,1.3,3.1c0,0.2-0.1,0.3-0.2,0.4c-0.1,0.1-0.3,0.2-0.4,0.2h-6.8c0.1,0.6,0.4,1.1,0.9,1.6c0.6,0.6,1.4,0.9,2.2,0.9
		c0.8,0,1.5-0.2,2-0.7C165.1,10.5,165.3,10.4,165.4,10.4L165.4,10.4z"/>
	<path class="st1" d="M175.5,10.4c0.2,0,0.3,0.1,0.4,0.2c0.1,0.1,0.2,0.3,0.2,0.4c0,0.2-0.1,0.3-0.2,0.5c-0.8,0.7-1.8,1.1-2.9,1.1
		c-1.2,0-2.2-0.4-3.1-1.3c-0.9-0.9-1.3-1.9-1.3-3.1s0.4-2.2,1.3-3.1c0.9-0.9,1.9-1.3,3.1-1.3c1.1,0,2.1,0.4,2.9,1.1
		c0.1,0.1,0.2,0.3,0.2,0.5c0,0.2-0.1,0.3-0.2,0.4c-0.1,0.1-0.3,0.2-0.4,0.2c-0.2,0-0.3,0-0.4-0.1C174.5,5.3,173.8,5,173,5
		c-0.9,0-1.6,0.3-2.2,0.9c-0.6,0.6-0.9,1.4-0.9,2.2c0,0.9,0.3,1.6,0.9,2.2c0.6,0.6,1.4,0.9,2.2,0.9c0.8,0,1.5-0.3,2-0.8
		C175.2,10.4,175.3,10.4,175.5,10.4L175.5,10.4z"/>
	<path class="st1" d="M185.6,11.9c0,0.2-0.1,0.3-0.2,0.4s-0.3,0.2-0.4,0.2c-0.2,0-0.3-0.1-0.4-0.2s-0.2-0.3-0.2-0.4v-0.5
		c-0.8,0.8-1.7,1.1-2.8,1.1c-1.1,0-2.1-0.4-2.9-1.2c-0.8-0.8-1.2-1.8-1.2-2.9V4.4c0-0.2,0.1-0.3,0.2-0.4c0.1-0.1,0.3-0.2,0.4-0.2
		s0.3,0.1,0.4,0.2c0.1,0.1,0.2,0.3,0.2,0.4v4.1c0,0.8,0.3,1.4,0.8,2c0.6,0.6,1.2,0.8,2,0.8s1.4-0.3,2-0.8c0.6-0.6,0.8-1.2,0.8-2V4.4
		c0-0.2,0.1-0.3,0.2-0.4s0.3-0.2,0.4-0.2c0.2,0,0.3,0.1,0.4,0.2s0.2,0.3,0.2,0.4V11.9L185.6,11.9z"/>
	<path class="st1" d="M186.8,4.4c0-0.2,0.1-0.3,0.2-0.4s0.3-0.2,0.4-0.2c0.2,0,0.3,0.1,0.4,0.2s0.2,0.3,0.2,0.4v0.7
		c0.9-0.9,1.9-1.3,3.1-1.3c0.6,0,1.2,0.1,1.7,0.3c0.1,0,0.2,0.1,0.3,0.2c0.1,0.1,0.2,0.3,0.2,0.4c0,0.2-0.1,0.3-0.2,0.4
		c-0.1,0.1-0.3,0.2-0.4,0.2c-0.1,0-0.2,0-0.3-0.1c-0.4-0.2-0.8-0.2-1.2-0.2c-0.9,0-1.6,0.3-2.2,0.9c-0.6,0.6-0.9,1.4-0.9,2.2v3.8
		c0,0.2-0.1,0.3-0.2,0.4s-0.3,0.2-0.4,0.2c-0.2,0-0.3-0.1-0.4-0.2s-0.2-0.3-0.2-0.4V4.4L186.8,4.4z"/>
	<path class="st1" d="M196.4,1.9c0,0.2-0.1,0.4-0.2,0.6c-0.2,0.2-0.3,0.2-0.6,0.2s-0.4-0.1-0.6-0.2c-0.2-0.2-0.2-0.3-0.2-0.6
		c0-0.2,0.1-0.4,0.2-0.6c0.2-0.2,0.3-0.2,0.6-0.2s0.4,0.1,0.6,0.2C196.3,1.5,196.4,1.7,196.4,1.9L196.4,1.9z M195,4.4
		c0-0.2,0.1-0.3,0.2-0.4c0.1-0.1,0.3-0.2,0.4-0.2c0.2,0,0.3,0.1,0.4,0.2c0.1,0.1,0.2,0.3,0.2,0.4v7.5c0,0.2-0.1,0.3-0.2,0.4
		s-0.3,0.2-0.4,0.2c-0.2,0-0.3-0.1-0.4-0.2s-0.2-0.3-0.2-0.4V4.4L195,4.4z"/>
	<path class="st1" d="M202.5,11.3c0.2,0,0.3,0.1,0.4,0.2c0.1,0.1,0.2,0.3,0.2,0.4c0,0.2-0.1,0.3-0.2,0.4s-0.3,0.2-0.4,0.2
		c-2.1,0-3.1-1-3.1-3.1V5h-0.6c-0.2,0-0.3-0.1-0.4-0.2c-0.1-0.1-0.2-0.3-0.2-0.4c0-0.2,0.1-0.3,0.2-0.4c0.1-0.1,0.3-0.2,0.4-0.2h0.6
		l0-3.1c0-0.2,0.1-0.3,0.2-0.4c0.1-0.1,0.3-0.2,0.4-0.2c0.2,0,0.3,0.1,0.4,0.2c0.1,0.1,0.2,0.3,0.2,0.4v3.1h1.3
		c0.2,0,0.3,0.1,0.4,0.2c0.1,0.1,0.2,0.3,0.2,0.4c0,0.2-0.1,0.3-0.2,0.4C202.2,5,202.1,5,201.9,5h-1.3v4.4
		C200.6,10.7,201.2,11.3,202.5,11.3L202.5,11.3z"/>
	<path class="st1" d="M207.5,11.9l-3-7.2c0-0.1-0.1-0.2-0.1-0.3c0-0.2,0.1-0.3,0.2-0.4c0.1-0.1,0.3-0.2,0.4-0.2
		c0.2,0,0.3,0.1,0.4,0.2c0.1,0.1,0.1,0.2,0.1,0.2l2.5,6.1l2.5-6.1c0-0.1,0.1-0.2,0.2-0.2c0.1-0.1,0.3-0.2,0.4-0.2
		c0.2,0,0.3,0.1,0.4,0.2s0.2,0.3,0.2,0.4c0,0.1,0,0.2-0.1,0.3l-4.7,11.2c0,0.1-0.1,0.2-0.1,0.2c-0.1,0.1-0.3,0.2-0.4,0.2
		c-0.2,0-0.3-0.1-0.4-0.2c-0.1-0.1-0.2-0.3-0.2-0.4c0-0.1,0-0.2,0.1-0.3L207.5,11.9L207.5,11.9z"/>
	<path class="st1" d="M221.3,6.2c-0.8-0.1-1.5-0.5-2-1c-0.6-0.7-0.8-1.4-0.7-2.3c0.1-0.9,0.4-1.6,1.1-2.1c0.6-0.5,1.3-0.8,2-0.8
		c0.9,0,1.7,0.4,2.4,1.1c0.1,0.1,0.2,0.3,0.3,0.4c0.1,0.1,0.1,0.2,0.1,0.3c0,0.2-0.1,0.3-0.2,0.4c-0.1,0.1-0.3,0.2-0.4,0.2
		c-0.2,0-0.3-0.1-0.4-0.2c-0.1-0.1-0.2-0.2-0.3-0.4c-0.3-0.4-0.8-0.6-1.3-0.7c-0.5,0-1,0.1-1.4,0.4c-0.4,0.3-0.6,0.8-0.7,1.3
		c0,0.5,0.1,1,0.4,1.4c0.3,0.3,0.7,0.5,1.3,0.6c1.1,0.2,1.9,0.7,2.5,1.3c0.6,0.7,0.9,1.5,0.9,2.4c0,0.1,0,0.2,0,0.4
		c-0.1,1-0.5,1.9-1.3,2.6c-0.7,0.6-1.5,0.9-2.4,0.9c-1.1,0-2.1-0.4-2.9-1.3c-0.1-0.1-0.2-0.2-0.3-0.4c-0.1-0.1-0.1-0.2-0.1-0.4
		c0-0.2,0.1-0.3,0.2-0.4c0.1-0.1,0.3-0.2,0.4-0.2c0.2,0,0.4,0.1,0.5,0.3c0.1,0.1,0.1,0.2,0.2,0.3c0.4,0.5,1,0.8,1.7,0.9
		c0.7,0.1,1.3-0.1,1.8-0.6c0.5-0.4,0.8-1,0.9-1.7c0.1-0.7-0.1-1.3-0.6-1.8C222.7,6.7,222.1,6.4,221.3,6.2L221.3,6.2z"/>
	<path class="st1" d="M229.3,11.9l-3-7.2c0-0.1-0.1-0.2-0.1-0.3c0-0.2,0.1-0.3,0.2-0.4s0.3-0.2,0.4-0.2c0.2,0,0.3,0.1,0.4,0.2
		c0.1,0.1,0.1,0.2,0.1,0.2l2.5,6.1l2.5-6.1c0-0.1,0.1-0.2,0.2-0.2c0.1-0.1,0.3-0.2,0.4-0.2c0.2,0,0.3,0.1,0.4,0.2
		c0.1,0.1,0.2,0.3,0.2,0.4c0,0.1,0,0.2-0.1,0.3L229,15.9c0,0.1-0.1,0.2-0.1,0.2c-0.1,0.1-0.3,0.2-0.4,0.2c-0.2,0-0.3-0.1-0.4-0.2
		s-0.2-0.3-0.2-0.4c0-0.1,0-0.2,0.1-0.3L229.3,11.9L229.3,11.9z"/>
	<path class="st1" d="M236.5,8.2c-0.5-0.2-0.8-0.4-1-0.6c-0.4-0.4-0.6-0.8-0.6-1.3c0-0.5,0.2-1,0.6-1.4c0.8-0.8,1.7-1.2,2.9-1.2
		c1.3,0,2.4,0.5,3.4,1.6c0.1,0.1,0.1,0.2,0.1,0.4c0,0.2-0.1,0.3-0.2,0.4s-0.3,0.2-0.4,0.2c-0.2,0-0.3-0.1-0.4-0.2
		c-0.1-0.1-0.2-0.2-0.2-0.2c-0.6-0.6-1.4-0.9-2.2-0.9s-1.6,0.3-2.1,0.8c-0.1,0.1-0.2,0.3-0.2,0.5c0,0.2,0.1,0.4,0.4,0.5l3.9,1.3
		c0.5,0.2,0.8,0.4,1,0.6c0.4,0.4,0.6,0.8,0.6,1.3c0,0.5-0.2,1-0.6,1.4c-0.8,0.8-1.7,1.2-2.9,1.2c-1.3,0-2.4-0.5-3.4-1.6
		c-0.1-0.1-0.1-0.2-0.1-0.4c0-0.2,0.1-0.3,0.2-0.4c0.1-0.1,0.3-0.2,0.4-0.2c0.2,0,0.3,0.1,0.4,0.2c0.1,0.1,0.2,0.2,0.2,0.2
		c0.6,0.6,1.4,0.9,2.2,0.9s1.6-0.3,2.1-0.8c0.1-0.2,0.2-0.3,0.2-0.5c0-0.2-0.1-0.4-0.4-0.5L236.5,8.2L236.5,8.2z"/>
	<path class="st1" d="M247.6,11.3c0.2,0,0.3,0.1,0.4,0.2c0.1,0.1,0.2,0.3,0.2,0.4c0,0.2-0.1,0.3-0.2,0.4s-0.3,0.2-0.4,0.2
		c-2.1,0-3.1-1-3.1-3.1V5h-0.6c-0.2,0-0.3-0.1-0.4-0.2c-0.1-0.1-0.2-0.3-0.2-0.4c0-0.2,0.1-0.3,0.2-0.4c0.1-0.1,0.3-0.2,0.4-0.2h0.6
		l0-3.1c0-0.2,0.1-0.3,0.2-0.4c0.1-0.1,0.3-0.2,0.4-0.2c0.2,0,0.3,0.1,0.4,0.2c0.1,0.1,0.2,0.3,0.2,0.4v3.1h1.3
		c0.2,0,0.3,0.1,0.4,0.2c0.1,0.1,0.2,0.3,0.2,0.4c0,0.2-0.1,0.3-0.2,0.4C247.4,5,247.2,5,247,5h-1.3v4.4
		C245.8,10.7,246.4,11.3,247.6,11.3L247.6,11.3z"/>
	<path class="st1" d="M256.5,7.5c-0.1-0.6-0.4-1.1-0.9-1.6c-0.6-0.6-1.4-0.9-2.2-0.9s-1.6,0.3-2.2,0.9c-0.5,0.5-0.7,1-0.9,1.6H256.5
		L256.5,7.5z M255.9,10.4c0.2,0,0.3,0.1,0.4,0.2s0.2,0.3,0.2,0.4c0,0.2-0.1,0.3-0.2,0.4c-0.8,0.7-1.8,1.1-2.9,1.1
		c-1.2,0-2.2-0.4-3.1-1.3c-0.9-0.9-1.3-1.9-1.3-3.1s0.4-2.2,1.3-3.1c0.9-0.9,1.9-1.3,3.1-1.3s2.2,0.4,3.1,1.3
		c0.9,0.9,1.3,1.9,1.3,3.1c0,0.2-0.1,0.3-0.2,0.4c-0.1,0.1-0.3,0.2-0.4,0.2h-6.8c0.1,0.6,0.4,1.1,0.9,1.6c0.6,0.6,1.4,0.9,2.2,0.9
		c0.8,0,1.5-0.2,2-0.7C255.6,10.5,255.7,10.4,255.9,10.4L255.9,10.4z"/>
	<path class="st1" d="M260.4,11.9c0,0.2-0.1,0.3-0.2,0.4c-0.1,0.1-0.3,0.2-0.4,0.2s-0.3-0.1-0.4-0.2c-0.1-0.1-0.2-0.3-0.2-0.4V4.4
		c0-0.2,0.1-0.3,0.2-0.4c0.1-0.1,0.3-0.2,0.4-0.2s0.3,0.1,0.4,0.2c0.1,0.1,0.2,0.3,0.2,0.4l0,0.2c0.6-0.5,1.4-0.8,2.2-0.8
		c1,0,1.8,0.3,2.4,1c0.1,0.1,0.3,0.3,0.4,0.4c0.1-0.2,0.2-0.3,0.4-0.4c0.7-0.7,1.5-1,2.4-1c1,0,1.8,0.3,2.4,1c0.7,0.7,1,1.5,1,2.4
		v4.7c0,0.2-0.1,0.3-0.2,0.4s-0.3,0.2-0.4,0.2c-0.2,0-0.3-0.1-0.4-0.2s-0.2-0.3-0.2-0.4V7.2c0-0.6-0.2-1.1-0.6-1.6
		c-0.4-0.4-0.9-0.6-1.6-0.6c-0.6,0-1.1,0.2-1.6,0.6c-0.4,0.4-0.6,0.9-0.6,1.6v4.7c0,0.2-0.1,0.3-0.2,0.4s-0.3,0.2-0.4,0.2
		c-0.2,0-0.3-0.1-0.4-0.2s-0.2-0.3-0.2-0.4V7.2c0-0.6-0.2-1.1-0.6-1.6c-0.4-0.4-0.9-0.6-1.6-0.6c-0.6,0-1.1,0.2-1.6,0.6
		c-0.4,0.4-0.6,0.9-0.6,1.6V11.9L260.4,11.9z"/>
	<path class="st1" d="M274.5,8.2c-0.5-0.2-0.8-0.4-1-0.6c-0.4-0.4-0.6-0.8-0.6-1.3c0-0.5,0.2-1,0.6-1.4c0.8-0.8,1.7-1.2,2.9-1.2
		c1.3,0,2.4,0.5,3.4,1.6c0.1,0.1,0.1,0.2,0.1,0.4c0,0.2-0.1,0.3-0.2,0.4s-0.3,0.2-0.4,0.2c-0.2,0-0.3-0.1-0.4-0.2
		c-0.1-0.1-0.2-0.2-0.2-0.2C278,5.3,277.3,5,276.4,5s-1.6,0.3-2.1,0.8c-0.1,0.1-0.2,0.3-0.2,0.5c0,0.2,0.1,0.4,0.4,0.5l3.9,1.3
		c0.5,0.2,0.8,0.4,1,0.6c0.4,0.4,0.6,0.8,0.6,1.3c0,0.5-0.2,1-0.6,1.4c-0.8,0.8-1.7,1.2-2.9,1.2c-1.3,0-2.4-0.5-3.4-1.6
		c-0.1-0.1-0.1-0.2-0.1-0.4c0-0.2,0.1-0.3,0.2-0.4c0.1-0.1,0.3-0.2,0.4-0.2c0.2,0,0.3,0.1,0.4,0.2c0.1,0.1,0.2,0.2,0.2,0.2
		c0.6,0.6,1.4,0.9,2.2,0.9s1.6-0.3,2.1-0.8c0.1-0.2,0.2-0.3,0.2-0.5c0-0.2-0.1-0.4-0.4-0.5L274.5,8.2L274.5,8.2z"/>
	<path class="st1" d="M151.1,23.7c0-0.2,0.1-0.4,0.2-0.5c0.2-0.2,0.3-0.2,0.5-0.2c0.2,0,0.4,0.1,0.5,0.2c0.2,0.2,0.2,0.3,0.2,0.5
		v13.9c0,0.2-0.1,0.4-0.2,0.5c-0.2,0.2-0.3,0.2-0.5,0.2c-0.2,0-0.4-0.1-0.5-0.2c-0.2-0.2-0.2-0.3-0.2-0.5V23.7L151.1,23.7z"/>
	<path class="st1" d="M156.5,24.5v7h2.3c1,0,1.8-0.3,2.5-1c0.7-0.7,1-1.5,1-2.5c0-1-0.3-1.8-1-2.5c-0.7-0.7-1.5-1-2.5-1H156.5
		L156.5,24.5z M155.7,22.9h3.1c1.4,0,2.6,0.5,3.6,1.5c1,1,1.5,2.2,1.5,3.6c0,1.4-0.5,2.6-1.5,3.6c-1,1-2.2,1.5-3.6,1.5h-2.3v4.6
		c0,0.2-0.1,0.4-0.2,0.5c-0.2,0.2-0.3,0.2-0.5,0.2s-0.4-0.1-0.5-0.2c-0.2-0.2-0.2-0.3-0.2-0.5V23.7c0-0.2,0.1-0.4,0.2-0.5
		C155.3,23,155.5,22.9,155.7,22.9L155.7,22.9z"/>
	<path class="st1" d="M175.4,30.5c-1-0.2-1.8-0.6-2.5-1.2c-0.7-0.8-1-1.8-0.9-2.8c0.1-1.1,0.5-1.9,1.4-2.6c0.7-0.6,1.6-0.9,2.5-0.9
		c1.1,0,2.1,0.5,2.9,1.4c0.1,0.2,0.3,0.3,0.4,0.5c0.1,0.1,0.1,0.3,0.1,0.4c0,0.2-0.1,0.4-0.2,0.5c-0.2,0.2-0.3,0.2-0.5,0.2
		c-0.2,0-0.4-0.1-0.5-0.2c-0.1-0.2-0.2-0.3-0.4-0.5c-0.4-0.5-0.9-0.8-1.6-0.8c-0.6-0.1-1.2,0.1-1.7,0.5c-0.5,0.4-0.8,0.9-0.8,1.6
		c0,0.6,0.1,1.2,0.6,1.7c0.3,0.3,0.9,0.6,1.7,0.8c1.3,0.3,2.4,0.8,3.1,1.6c0.7,0.9,1.1,1.8,1.1,2.9c0,0.1,0,0.3,0,0.4
		c-0.1,1.3-0.6,2.3-1.6,3.2c-0.9,0.7-1.9,1.1-3,1.1c-1.4,0-2.6-0.5-3.6-1.6c-0.1-0.1-0.3-0.3-0.4-0.5c-0.1-0.1-0.2-0.3-0.2-0.5
		c0-0.2,0.1-0.4,0.2-0.5c0.2-0.2,0.3-0.2,0.5-0.2c0.3,0,0.5,0.1,0.7,0.4c0.1,0.1,0.2,0.2,0.3,0.3c0.5,0.7,1.3,1,2.1,1.1
		c0.8,0.1,1.6-0.2,2.3-0.7c0.7-0.6,1-1.3,1.1-2.1c0.1-0.9-0.2-1.6-0.7-2.3C177.2,31.2,176.4,30.8,175.4,30.5L175.4,30.5z"/>
	<path class="st1" d="M189.2,24.5c-1.7,0-3.2,0.6-4.4,1.8c-1.2,1.2-1.8,2.7-1.8,4.4c0,1.7,0.6,3.2,1.8,4.4c1.2,1.2,2.7,1.8,4.4,1.8
		s3.2-0.6,4.4-1.8c1.2-1.2,1.8-2.7,1.8-4.4c0-1.7-0.6-3.2-1.8-4.4C192.4,25.1,190.9,24.5,189.2,24.5L189.2,24.5z M196.9,30.7
		c0,2.1-0.8,4-2.3,5.5c-1.5,1.5-3.3,2.3-5.5,2.3s-4-0.8-5.5-2.3c-1.5-1.5-2.3-3.3-2.3-5.5c0-2.1,0.8-4,2.3-5.5
		c1.5-1.5,3.3-2.3,5.5-2.3s4,0.8,5.5,2.3S196.9,28.5,196.9,30.7L196.9,30.7z"/>
	<path class="st1" d="M198.5,23.7c0-0.2,0.1-0.4,0.2-0.5c0.2-0.2,0.3-0.2,0.5-0.2c0.2,0,0.4,0.1,0.5,0.2c0.2,0.2,0.2,0.3,0.2,0.5
		v13.2h7.7c0.2,0,0.4,0.1,0.5,0.2c0.2,0.2,0.2,0.3,0.2,0.5c0,0.2-0.1,0.4-0.2,0.5c-0.2,0.2-0.3,0.2-0.5,0.2h-8.5
		c-0.2,0-0.4-0.1-0.5-0.2c-0.2-0.2-0.2-0.3-0.2-0.5V23.7L198.5,23.7z"/>
	<path class="st1" d="M209.3,23.7c0-0.2,0.1-0.4,0.2-0.5c0.2-0.2,0.3-0.2,0.5-0.2c0.2,0,0.4,0.1,0.5,0.2c0.2,0.2,0.2,0.3,0.2,0.5V33
		c0,1.1,0.4,2,1.1,2.7c0.8,0.8,1.7,1.1,2.7,1.1c1.1,0,2-0.4,2.7-1.1c0.8-0.8,1.1-1.7,1.1-2.7v-9.3c0-0.2,0.1-0.4,0.2-0.5
		c0.2-0.2,0.3-0.2,0.5-0.2s0.4,0.1,0.5,0.2c0.2,0.2,0.2,0.3,0.2,0.5V33c0,1.5-0.5,2.8-1.6,3.8c-1.1,1.1-2.3,1.6-3.8,1.6
		c-1.5,0-2.8-0.5-3.8-1.6c-1.1-1.1-1.6-2.3-1.6-3.8V23.7L209.3,23.7z"/>
	<path class="st1" d="M222.5,24.5c-0.2,0-0.4-0.1-0.5-0.2c-0.1-0.2-0.2-0.3-0.2-0.5c0-0.2,0.1-0.4,0.2-0.5c0.2-0.2,0.3-0.2,0.5-0.2
		h10.1c0.2,0,0.4,0.1,0.5,0.2c0.1,0.2,0.2,0.3,0.2,0.5c0,0.2-0.1,0.4-0.2,0.5c-0.2,0.2-0.3,0.2-0.5,0.2h-4.3v13.2
		c0,0.2-0.1,0.4-0.2,0.5c-0.2,0.2-0.3,0.2-0.5,0.2s-0.4-0.1-0.5-0.2c-0.2-0.2-0.2-0.3-0.2-0.5V24.5H222.5L222.5,24.5z"/>
	<path class="st1" d="M235.6,23.7c0-0.2,0.1-0.4,0.2-0.5c0.2-0.2,0.3-0.2,0.5-0.2c0.2,0,0.4,0.1,0.5,0.2c0.2,0.2,0.2,0.3,0.2,0.5
		v13.9c0,0.2-0.1,0.4-0.2,0.5c-0.2,0.2-0.3,0.2-0.5,0.2c-0.2,0-0.4-0.1-0.5-0.2c-0.2-0.2-0.2-0.3-0.2-0.5V23.7L235.6,23.7z"/>
	<path class="st1" d="M247.2,24.5c-1.7,0-3.2,0.6-4.4,1.8c-1.2,1.2-1.8,2.7-1.8,4.4c0,1.7,0.6,3.2,1.8,4.4c1.2,1.2,2.7,1.8,4.4,1.8
		s3.2-0.6,4.4-1.8c1.2-1.2,1.8-2.7,1.8-4.4c0-1.7-0.6-3.2-1.8-4.4C250.4,25.1,249,24.5,247.2,24.5L247.2,24.5z M255,30.7
		c0,2.1-0.8,4-2.3,5.5c-1.5,1.5-3.3,2.3-5.5,2.3s-4-0.8-5.5-2.3c-1.5-1.5-2.3-3.3-2.3-5.5c0-2.1,0.8-4,2.3-5.5s3.3-2.3,5.5-2.3
		s4,0.8,5.5,2.3C254.2,26.7,255,28.5,255,30.7L255,30.7z"/>
	<path class="st1" d="M258.1,37.6c0,0.2-0.1,0.4-0.2,0.5c-0.2,0.2-0.3,0.2-0.5,0.2c-0.2,0-0.4-0.1-0.5-0.2c-0.2-0.2-0.2-0.3-0.2-0.5
		V23.7c0-0.2,0.1-0.4,0.2-0.5c0.2-0.2,0.3-0.2,0.5-0.2c0.2,0,0.4,0.1,0.6,0.3l9.5,12.2V23.7c0-0.2,0.1-0.4,0.2-0.5
		c0.2-0.2,0.3-0.2,0.5-0.2s0.4,0.1,0.5,0.2c0.2,0.2,0.2,0.3,0.2,0.5v13.9c0,0.2-0.1,0.4-0.2,0.5c-0.2,0.2-0.3,0.2-0.5,0.2
		c-0.2,0-0.4-0.1-0.6-0.3L258.1,26V37.6L258.1,37.6z"/>
	<path class="st1" d="M274.7,30.5c-1-0.2-1.8-0.6-2.5-1.2c-0.7-0.8-1-1.8-0.9-2.8c0.1-1.1,0.5-1.9,1.4-2.6c0.7-0.6,1.6-0.9,2.5-0.9
		c1.1,0,2.1,0.5,2.9,1.4c0.1,0.2,0.3,0.3,0.4,0.5c0.1,0.1,0.1,0.3,0.1,0.4c0,0.2-0.1,0.4-0.2,0.5c-0.2,0.2-0.3,0.2-0.5,0.2
		c-0.2,0-0.4-0.1-0.5-0.2c-0.1-0.2-0.2-0.3-0.4-0.5c-0.4-0.5-0.9-0.8-1.6-0.8c-0.6-0.1-1.2,0.1-1.7,0.5c-0.5,0.4-0.8,0.9-0.8,1.6
		c0,0.6,0.1,1.2,0.6,1.7c0.3,0.3,0.9,0.6,1.7,0.8c1.3,0.3,2.4,0.8,3.1,1.6c0.7,0.9,1.1,1.8,1.1,2.9c0,0.1,0,0.3,0,0.4
		c-0.1,1.3-0.6,2.3-1.6,3.2c-0.9,0.7-1.9,1.1-3,1.1c-1.4,0-2.6-0.5-3.6-1.6c-0.1-0.1-0.3-0.3-0.4-0.5c-0.1-0.1-0.2-0.3-0.2-0.5
		c0-0.2,0.1-0.4,0.2-0.5c0.2-0.2,0.3-0.2,0.5-0.2c0.3,0,0.5,0.1,0.7,0.4c0.1,0.1,0.2,0.2,0.3,0.3c0.5,0.7,1.3,1,2.1,1.1
		c0.8,0.1,1.6-0.2,2.3-0.7c0.7-0.6,1-1.3,1.1-2.1c0.1-0.9-0.2-1.6-0.7-2.3C276.4,31.2,275.7,30.8,274.7,30.5L274.7,30.5z"/>
	<path class="st0" d="M344.9,12.2c0.8-0.4,1.2-1.4,0.8-2.2c-0.4-0.8-1.3-1.2-2.2-0.8c-0.6,0.3-1,0.9-1,1.6l-15.4,7.1
		c-0.5-0.5-1.2-0.6-1.9-0.3c-0.8,0.4-1.2,1.4-0.8,2.2c0.4,0.8,1.4,1.2,2.2,0.8c0.6-0.3,1-0.9,1-1.6l15.4-7.1
		C343.6,12.3,344.3,12.5,344.9,12.2L344.9,12.2z"/>
	<path class="st0" d="M345.2,9.3c-0.7-0.5-1.8-0.3-2.3,0.4c-0.5,0.8-0.3,1.8,0.4,2.3c0.6,0.4,1.3,0.4,1.9,0l9.6,6.6
		c-0.2,0.6,0.1,1.3,0.7,1.8c0.8,0.5,1.8,0.3,2.3-0.4c0.5-0.7,0.3-1.8-0.4-2.3c-0.6-0.4-1.3-0.4-1.9,0l-9.6-6.6
		C346,10.4,345.8,9.7,345.2,9.3L345.2,9.3z"/>
	<path class="st0" d="M381.2,11.3c-0.9-0.3-1.8,0.2-2.1,1c-0.3,0.9,0.2,1.8,1,2.1c0.7,0.2,1.4,0,1.8-0.5l15.3,5.1
		c0,0.7,0.5,1.3,1.1,1.5c0.9,0.3,1.8-0.2,2.1-1c0.3-0.9-0.2-1.8-1-2.1c-0.7-0.2-1.4,0-1.8,0.5l-15.3-5.1
		C382.3,12.2,381.9,11.6,381.2,11.3L381.2,11.3z"/>
	<path class="st0" d="M381.1,14.5c0.9-0.2,1.4-1.1,1.2-2c-0.2-0.9-1.1-1.4-2-1.2c-0.7,0.2-1.2,0.7-1.2,1.4l-21.3,5.4
		c-0.4-0.6-1.1-0.8-1.8-0.7c-0.9,0.2-1.4,1.1-1.2,2c0.2,0.9,1.1,1.4,2,1.2c0.7-0.2,1.2-0.8,1.2-1.4l21.3-5.4
		C379.7,14.4,380.4,14.7,381.1,14.5L381.1,14.5z"/>
	<path class="st0" d="M417.8,10.9c0.8-0.4,1.1-1.4,0.7-2.2c-0.4-0.8-1.4-1.1-2.2-0.7c-0.6,0.3-1,1-0.9,1.7L400,17.8
		c-0.5-0.4-1.2-0.6-1.9-0.2c-0.8,0.4-1.1,1.4-0.7,2.2c0.4,0.8,1.4,1.1,2.2,0.7c0.6-0.3,1-1,0.9-1.7l15.5-8.2
		C416.5,11.1,417.2,11.2,417.8,10.9L417.8,10.9z"/>
	<path class="st0" d="M384.4,23.6c-0.8,0.4-1.2,1.4-0.8,2.2c0.4,0.8,1.4,1.2,2.2,0.8c0.6-0.3,1-0.9,1-1.6l11-4.9
		c0.5,0.5,1.2,0.6,1.8,0.3c0.8-0.4,1.2-1.4,0.8-2.2c-0.4-0.8-1.4-1.2-2.2-0.8c-0.6,0.3-1,0.9-1,1.6l-11,4.9
		C385.8,23.5,385.1,23.4,384.4,23.6L384.4,23.6z"/>
	<path class="st0" d="M384.7,26.8c0.9,0.2,1.8-0.4,2-1.3c0.2-0.9-0.4-1.8-1.3-2c-0.7-0.1-1.4,0.2-1.7,0.7L358,18.8
		c-0.1-0.7-0.6-1.2-1.3-1.4c-0.9-0.2-1.8,0.4-2,1.3c-0.2,0.9,0.4,1.8,1.3,2c0.7,0.1,1.4-0.2,1.7-0.7l25.7,5.5
		C383.5,26.1,384,26.6,384.7,26.8L384.7,26.8z"/>
	<path class="st0" d="M349.5,25.8c-0.5,0.7-0.4,1.8,0.4,2.3c0.7,0.5,1.8,0.4,2.3-0.4c0.4-0.6,0.4-1.3,0-1.9l3.7-5.2
		c0.6,0.2,1.4-0.1,1.8-0.6c0.5-0.7,0.4-1.8-0.4-2.3c-0.7-0.5-1.8-0.4-2.3,0.4c-0.4,0.6-0.4,1.3,0,1.9l-3.7,5.2
		C350.6,25,349.9,25.3,349.5,25.8L349.5,25.8z"/>
	<path class="st0" d="M363.3,12.2c0.5-0.7,0.4-1.8-0.4-2.3c-0.7-0.5-1.8-0.4-2.3,0.4c-0.4,0.6-0.4,1.3,0,1.9l-3.7,5.2
		c-0.6-0.2-1.4,0.1-1.8,0.6c-0.5,0.7-0.4,1.8,0.4,2.3c0.7,0.5,1.8,0.4,2.3-0.4c0.4-0.6,0.4-1.3,0-1.9l3.7-5.2
		C362.1,13,362.9,12.8,363.3,12.2L363.3,12.2z"/>
	<path class="st0" d="M407.4,26.5c0.8,0.5,1.8,0.3,2.3-0.5c0.5-0.7,0.3-1.8-0.5-2.3c-0.6-0.4-1.3-0.3-1.9,0.1l-6.8-4.4
		c0.1-0.7-0.2-1.4-0.7-1.7c-0.8-0.5-1.8-0.3-2.3,0.5c-0.5,0.8-0.3,1.8,0.5,2.3c0.6,0.4,1.3,0.3,1.9-0.1l6.8,4.4
		C406.5,25.5,406.8,26.1,407.4,26.5L407.4,26.5z"/>
	<path class="st0" d="M350.3,28.4c0.9,0.3,1.8-0.2,2.1-1.1c0.3-0.9-0.2-1.8-1.1-2.1c-0.7-0.2-1.4,0-1.8,0.6l-21.8-6.8
		c0-0.7-0.5-1.3-1.2-1.5c-0.9-0.3-1.8,0.2-2.1,1.1c-0.3,0.9,0.2,1.8,1.1,2.1c0.7,0.2,1.4,0,1.8-0.6l21.8,6.8
		C349.2,27.6,349.7,28.2,350.3,28.4L350.3,28.4z"/>
	<path class="st0" d="M349.3,27.4c0.4,0.9,1.3,1.3,2.2,0.9c0.9-0.4,1.2-1.3,0.9-2.2c-0.3-0.7-0.9-1-1.6-1l-5.4-13.3
		c0.5-0.5,0.7-1.2,0.4-1.8c-0.3-0.9-1.3-1.3-2.2-0.9c-0.9,0.4-1.3,1.3-0.9,2.2c0.3,0.7,0.9,1,1.6,1l5.4,13.3
		C349.2,26,349,26.8,349.3,27.4L349.3,27.4z"/>
	<path class="st0" d="M382.2,12.3c-0.3-0.9-1.3-1.3-2.1-1c-0.9,0.3-1.3,1.2-1,2.1c0.2,0.7,0.9,1.1,1.5,1.1l3.4,9.3
		c-0.5,0.4-0.7,1.1-0.5,1.8c0.3,0.9,1.3,1.3,2.1,1c0.9-0.3,1.3-1.3,1-2.1c-0.2-0.7-0.9-1.1-1.5-1.1l-3.4-9.3
		C382.3,13.7,382.5,13,382.2,12.3L382.2,12.3z"/>
	<path class="st0" d="M305.9,9.1c-0.9-0.3-1.8,0-2.2,0.9c-0.3,0.8,0.1,1.8,0.9,2.2c0.7,0.3,1.4,0.1,1.8-0.4l17.9,7.2
		c0,0.7,0.4,1.3,1,1.6c0.9,0.3,1.8-0.1,2.2-0.9c0.3-0.9,0-1.8-0.9-2.2c-0.7-0.3-1.4-0.1-1.8,0.4l-17.9-7.2
		C306.9,10,306.5,9.4,305.9,9.1L305.9,9.1z"/>
	<path class="st0" d="M297.3,25.2c-0.9,0.3-1.4,1.1-1.2,2c0.2,0.9,1.2,1.4,2,1.2c0.7-0.2,1.1-0.8,1.2-1.4l25.3-6.9
		c0.4,0.5,1.1,0.8,1.8,0.6c0.9-0.3,1.4-1.1,1.2-2c-0.3-0.9-1.1-1.4-2-1.2c-0.7,0.2-1.1,0.8-1.2,1.4l-25.4,7
		C298.7,25.3,298,25,297.3,25.2L297.3,25.2z"/>
	<path class="st0" d="M321.8,26.3c-0.3,0.9,0.1,1.8,1,2.1c0.9,0.3,1.8-0.1,2.1-1c0.2-0.7,0-1.4-0.5-1.8l1.7-4.8
		c0.7,0,1.3-0.5,1.5-1.1c0.3-0.9-0.1-1.8-1-2.1c-0.9-0.3-1.8,0.1-2.1,1c-0.2,0.7,0,1.4,0.5,1.8l-1.7,4.8
		C322.6,25.2,322,25.6,321.8,26.3L321.8,26.3z"/>
</g>
</svg>
