<?xml version="1.0" encoding="UTF-8"?><!DOCTYPE svg PUBLIC "-//W3C//DTD SVG 1.1//EN" "http://www.w3.org/Graphics/SVG/1.1/DTD/svg11.dtd"><svg xmlns="http://www.w3.org/2000/svg" xmlns:xlink="http://www.w3.org/1999/xlink"><symbol id="icon-2mp--icon" viewBox="0 0 200 200">
    <path class="st0" d="M115.6 143.5c0 5.1-6.4 9.3-14.3 9.3S87 148.6 87 143.5c0-5.1 6.4-9.3 14.3-9.3s14.3 4.2 14.3 9.3zm-69.8-35.3h108.5l13.4-12.5c-6-1.7-13.9-3.2-23.3-4.4l-11.6 13.1H67.3L55.5 91c-9.3 1.1-17.4 2.5-23.6 4.1l14 13.1h-.1zM168.9 92c1.4-.4 2.6-.9 3.8-1.3V67.6c-12.7-5-41-8.6-73.9-8.6-30.8 0-57.6 3.1-71.3 7.6v25c.4.1.8.3 1.2.4 6.6-2 15.8-3.7 26.8-5l11.8 13.4h65.5l11.6-13.1c10 1.2 18.4 2.8 24.5 4.7zm0-29c1.4-.4 2.6-.9 3.8-1.3V49.8c-12.7-5-41-8.6-73.9-8.6-30.8 0-57.6 3.1-71.3 7.6v13.8c.4.1.8.3 1.2.4 14-4.3 40.2-7.2 70.1-7.2s56.1 2.9 70.1 7.2zm-69 49.8h50.7c0 18.6-12.2 34.6-29.7 41.9v-.4c0-1.2-1.5-2.1-3.3-2-1.8 0-3.2 1-3.2 2.1 0 .8.8 1.6 2 1.9-2 .6-4 1.1-6.1 1.5-.3-1-1.6-1.7-3.2-1.7-1.8 0-3.2.9-3.2 2.1 0 .1 0 .3.1.4-1.3.1-2.7.1-4.1.1h-1.8c.1-.2.1-.4.1-.6 0-1.2-1.4-2.1-3.2-2.1-1.8 0-3.2.9-3.3 2.1v.1C67.5 154.7 49 135.7 49 112.8H99.9zm31.2 30.6c0-10.7-13.3-19.3-29.7-19.3s-29.7 8.6-29.7 19.3c0-10.6 5.3-23.5 29.8-23.5 24.3 0 29.7 12.9 29.6 23.5zm-23.8-10.3c-.1 1.2 1.3 2.1 3.1 2.2 1.8 0 3.3-.9 3.3-2 .1-1.2-1.3-2.1-3.1-2.2-1.8 0-3.3.9-3.3 2zm10.2 6.5c1.8-.1 3.1-1.1 2.9-2.3s-1.7-2-3.5-1.9c-1.8.1-3.1 1.1-2.9 2.3.2 1.2 1.7 2 3.5 1.9zm1.7 1.8c-1.8.2-3 1.2-2.7 2.4.3 1.1 1.9 1.9 3.7 1.8 1.8-.2 3-1.2 2.7-2.4-.3-1.1-1.9-1.9-3.7-1.8zm-.2 9.8c1.5-.6 1.9-1.9.9-2.9s-3-1.2-4.5-.6-1.9 1.9-.9 2.9 3 1.2 4.5.6zm-10.1.8c-1.5.6-2.1 1.9-1.2 2.9.9 1 2.9 1.4 4.4.8 1.5-.6 2.1-1.9 1.2-2.9s-2.9-1.4-4.4-.8zm-4.4 2.9c-.5-1.1-2.2-1.8-3.9-1.5-1.7.3-2.8 1.4-2.3 2.6.5 1.1 2.2 1.8 3.9 1.5 1.7-.3 2.8-1.4 2.3-2.6zm-9.1-.8c.2-1.2-1.1-2.2-2.9-2.3-1.8-.1-3.4.7-3.6 1.9-.2 1.1 1.1 2.2 2.9 2.3 1.8.1 3.4-.7 3.6-1.9zm-11.2-6.5c-1.6.5-2.4 1.7-1.7 2.7.7 1.1 2.6 1.6 4.2 1.1s2.4-1.7 1.7-2.7c-.7-1.1-2.6-1.6-4.2-1.1zm-2.6-5.9c-1.6.5-2.2 1.8-1.4 2.8.8 1 2.7 1.4 4.3.9s2.2-1.8 1.4-2.8-2.7-1.4-4.3-.9zm2.9-6.1c-1.7.4-2.6 1.6-2 2.7s2.4 1.7 4.1 1.3c1.7-.4 2.6-1.6 2-2.7-.6-1.1-2.4-1.7-4.1-1.3zm8.7-.4c1.7-.3 2.7-1.5 2.1-2.6-.5-1.1-2.3-1.7-4-1.4-1.7.3-2.7 1.5-2.1 2.6.5 1.1 2.3 1.7 4 1.4zm12.9-4.5c1.5.6 3.5.2 4.4-.8s.4-2.3-1.2-2.9c-1.5-.6-3.5-.2-4.4.8s-.4 2.3 1.2 2.9zm12.1 4.3c1.8 0 3.2-1 3.2-2.1 0-1.2-1.5-2.1-3.3-2.1-1.8 0-3.2 1-3.2 2.1 0 1.2 1.5 2.1 3.3 2.1zm5.9 6.8c1.8 0 3.2-1 3.2-2.1 0-1.2-1.5-2.1-3.3-2.1-1.8 0-3.2 1-3.2 2.1 0 1.2 1.5 2.1 3.3 2.1zm-.2 3.7c-1.8 0-3.2 1-3.2 2.1 0 1.2 1.5 2.1 3.3 2.1 1.8 0 3.2-1 3.2-2.1 0-1.2-1.5-2.1-3.3-2.1zM84.7 152c-1.8 0-3.2 1-3.2 2.1 0 1.2 1.5 2.1 3.3 2.1 1.8 0 3.2-1 3.2-2.1 0-1.2-1.5-2.1-3.3-2.1zm-5.9-6.8c-1.8 0-3.2 1-3.2 2.1 0 1.2 1.5 2.1 3.3 2.1s3.2-1 3.2-2.1c0-1.2-1.5-2.1-3.3-2.1zm.1-3.7c1.8 0 3.3-.9 3.3-2.1 0-1.2-1.4-2.1-3.2-2.1-1.8 0-3.3.9-3.3 2.1 0 1.2 1.4 2.1 3.2 2.1zm6.1-6.8c1.8 0 3.3-.9 3.3-2 0-1.2-1.4-2.1-3.1-2.1-1.8 0-3.3.9-3.3 2 0 1.2 1.4 2.1 3.1 2.1zm10.6-3.9c1.8 0 3.2-.9 3.2-2.1 0-1.2-1.4-2.1-3.2-2.1-1.8 0-3.2.9-3.2 2.1 0 1.2 1.4 2.1 3.2 2.1zm5.8 2.8c1.8 0 3.2-.9 3.2-2.1s-1.4-2.1-3.2-2.1-3.2.9-3.2 2.1 1.4 2.1 3.2 2.1z"/>
</symbol><symbol id="icon-3mp--icon" viewBox="0 0 200 200">
    <path class="st0" d="M142.4 108.1h2.2c0 21.2-10.8 39.5-26.3 47.8v-.4c0-1.3-1.3-2.4-2.9-2.3-1.6 0-2.8 1.1-2.8 2.4 0 1 .7 1.8 1.7 2.1-1.8.7-3.6 1.3-5.4 1.7-.3-1.1-1.4-1.9-2.8-1.9-1.6 0-2.9 1.1-2.9 2.4 0 .2 0 .3.1.5-1.2.1-2.4.2-3.6.2h-1.6c.1-.2.1-.4.1-.7 0-1.3-1.2-2.4-2.8-2.4s-2.9 1-2.9 2.4v.1c-21.4-4-37.7-25.7-37.7-51.8h.8c-.2-.2-.3-.4-.3-.6 0-2.8 19.6-5 43.7-5s43.7 2.2 43.7 5c0 .2-.1.4-.3.6v-.1zm-28.7 34.5c0 6.1-5.7 11.1-12.7 11.1s-12.7-5-12.7-11.1 5.7-11.1 12.7-11.1 12.7 5 12.7 11.1zm13.7-.1c0-12.7-11.8-23.1-26.3-23.1s-26.3 10.3-26.3 23c0-12.7 4.6-28.1 26.4-28.1 21.5 0 26.2 15.4 26.2 28.2zm-21.1-12.3c-.1 1.4 1.2 2.5 2.7 2.6 1.6.1 2.9-1 3-2.4.1-1.4-1.2-2.5-2.7-2.6-1.6-.1-2.9 1-3 2.4zm9 7.8c1.6-.1 2.7-1.3 2.6-2.7s-1.5-2.4-3.1-2.3c-1.6.1-2.7 1.3-2.6 2.7.1 1.4 1.5 2.4 3.1 2.3zm1.5 2.1c-1.6.2-2.6 1.5-2.4 2.8.2 1.4 1.7 2.3 3.2 2.1 1.6-.2 2.6-1.5 2.4-2.8-.2-1.4-1.7-2.3-3.2-2.1zm-.2 11.7c1.3-.8 1.7-2.3.8-3.5s-2.6-1.5-3.9-.7c-1.3.8-1.7 2.3-.8 3.5.9 1.2 2.6 1.5 3.9.7zm-8.9.9c-1.4.7-1.8 2.2-1.1 3.4.8 1.2 2.5 1.6 3.9.9s1.8-2.2 1.1-3.4c-.8-1.2-2.5-1.6-3.9-.9zm-3.9 3.4c-.4-1.3-2-2.1-3.5-1.8-1.5.4-2.4 1.7-2 3.1.4 1.3 2 2.1 3.5 1.8 1.5-.4 2.4-1.7 2-3.1zm-8-1c.2-1.4-1-2.6-2.5-2.8-1.6-.1-3 .8-3.1 2.2-.2 1.4 1 2.6 2.5 2.8 1.6.1 3-.8 3.1-2.2zm-9.9-7.8c-1.5.5-2.1 2-1.5 3.3s2.3 1.9 3.7 1.3c1.5-.5 2.1-2 1.5-3.3-.6-1.3-2.3-1.9-3.7-1.3zm-2.3-7c-1.4.6-2 2.1-1.3 3.4.7 1.2 2.4 1.7 3.8 1.1 1.4-.6 2-2.1 1.3-3.4-.7-1.2-2.4-1.7-3.8-1.1zm2.5-7.2c-1.5.5-2.3 1.9-1.8 3.2s2.1 2 3.6 1.6c1.5-.4 2.3-1.9 1.8-3.2-.5-1.3-2.1-2-3.6-1.6zm7.7-.4c1.5-.4 2.4-1.8 1.9-3.1s-2.1-2.1-3.6-1.7-2.4 1.8-1.9 3.1 2.1 2.1 3.6 1.7zm11.4-5.4c1.4.7 3.1.3 3.9-.9.8-1.2.3-2.7-1-3.4-1.4-.7-3.1-.3-3.9.9-.8 1.2-.3 2.7 1 3.4zm10.7 5.1c1.6 0 2.8-1.1 2.8-2.5s-1.3-2.5-2.9-2.5-2.8 1.1-2.8 2.5 1.3 2.5 2.9 2.5zm5.2 8.2c1.6 0 2.8-1.1 2.8-2.5s-1.3-2.5-2.9-2.5-2.8 1.1-2.8 2.5 1.3 2.5 2.9 2.5zm-.2 4.4c-1.6 0-2.8 1.2-2.8 2.5 0 1.4 1.3 2.5 2.9 2.5s2.8-1.2 2.8-2.5c0-1.4-1.3-2.5-2.9-2.5zm-34.7 7.8c-1.6 0-2.8 1.2-2.8 2.5 0 1.4 1.3 2.5 2.9 2.5s2.8-1.2 2.8-2.5c0-1.4-1.3-2.5-2.9-2.5zm-5.2-8.2c-1.6 0-2.8 1.1-2.8 2.5s1.3 2.5 2.9 2.5c1.6 0 2.8-1.1 2.8-2.5s-1.3-2.5-2.9-2.5zm.1-4.4c1.6 0 2.9-1.1 2.9-2.5s-1.2-2.5-2.8-2.5c-1.6 0-2.9 1.1-2.9 2.5s1.2 2.5 2.8 2.5zm5.4-8.1c1.6 0 2.9-1.1 2.9-2.4 0-1.4-1.2-2.5-2.8-2.6-1.6 0-2.9 1.1-2.9 2.4 0 1.4 1.2 2.5 2.8 2.6zm9.4-4.6c1.6 0 2.9-1.1 2.9-2.5s-1.3-2.5-2.9-2.5-2.9 1.1-2.9 2.5 1.3 2.5 2.9 2.5zm5.1 3.4c1.6 0 2.9-1.1 2.9-2.5s-1.3-2.5-2.9-2.5-2.9 1.1-2.9 2.5 1.3 2.5 2.9 2.5z"/>
    <path class="st0" d="M161.3 63.2c1.2-.5 2.3-.9 3.3-1.4v-13c-11.3-5.5-36.5-9.3-65.8-9.3-27.4 0-51.3 3.4-63.5 8.3v15c.3.1.7.3 1.1.4 12.5-4.7 35.7-7.9 62.4-7.9s49.9 3.2 62.4 7.9h.1z"/>
    <path class="st0" d="M161.3 83.1c1.2-.5 2.3-.9 3.3-1.4V67.5c-11.3-5.5-36.5-9.3-65.8-9.3-27.4 0-51.3 3.4-63.5 8.3v16.2c.3.1.7.3 1.1.4 12.5-4.7 35.7-7.9 62.4-7.9s49.9 3.2 62.4 7.9h.1z"/>
    <path class="st0" d="M146.2 106.9c.9-.6 1.8-1.2 2.5-1.8l15.9-17.7c-11.3-5.5-36.5-9.3-65.8-9.3-27.4 0-51.3 3.4-63.5 8.3l15.9 19.9c.3.2.5.3.8.5 9.4-5.8 26.9-8.4 47-8.4s37.6 2.6 47 8.4l.2.1z"/>
</symbol><symbol id="icon-4mp--icon" viewBox="0 0 200 200">
    <path class="st0" d="M67.4 49.7l.5-.1c3.2-.8 7-1.4 11.1-1.9 2.5-3.1 10.9-5.3 21-5.3 10 0 18.5 2.3 21 5.3 4.3.5 8.2 1.2 11.5 2h.2v.1l9.8 53.5c-3-3-20.8-5.3-42.4-5.3s-39.5 2.3-42.4 5.3l9.7-53.6z"/>
    <path class="st0" d="M140.9 105.2l-5.9 5.2v21.9c0 19.2-15.7 35-35 35h-2.7c-17.9 0-32.5-14.6-32.5-32.5V132c.6 14.7 8.6 26.3 19.7 26.3h1.7c12.4 0 22.6-13.6 22.6-30.3v-6.5c-4.4-12.9-37.2-15.8-44 3.3v-13.4l-5.9-6.3c13-4.6 27.2-4.7 40.9-4.7s27.9.1 40.9 4.7l.2.1z"/>
    <path class="st0" d="M99.4 128.8c-.1-2.2 1.1-4.1 2.9-4.2 1.7-.2 3.2 1.4 3.4 3.6 0 0 .9 13.3-7.5 22.3-1.3 1.4-3.3 1.2-4.4-.5s-.9-4.1.4-5.5c6-6.4 5.3-15.6 5.2-15.7z"/>
    <path class="st0" d="M67.8 130.6c0-2.2 1.4-3.9 3.1-3.9s3.1 1.8 3.1 3.9c0 0 0 10.7 4.3 14.5 1.4 1.2 1.7 3.7.7 5.5s-2.9 2.2-4.3.9c-6.9-6.2-6.9-20.9-6.9-20.9z"/>
    <ellipse class="st0" cx="86.1" cy="129.5" rx="9.6" ry="14.9"/>
    <path class="st0" d="M97.8 32.7h4.4c2.4 0 4.4 2 4.4 4.4v4.1c-.6-.3-1.3-.5-2-.5h-9.1c-.7 0-1.4.2-2 .5v-4.1c0-2.4 2-4.4 4.3-4.4z"/>
</symbol><symbol id="icon-5mp--icon" viewBox="0 0 200 200">
    <path class="st0" d="M187.4 64l-63.7 18.9c4.2 3.6 7.5 8.4 9.5 15 1 3.5 1.7 7.4 1.9 11.8l52.3-15.5V64zM119 84.3l-24.2 7.2v11.3c0 10.4 7.8 16.6 17.4 13.7l18.9-5.6c-.1-4.5-.8-8.4-1.8-11.9-2.1-6.8-5.7-11.5-10.3-14.7z"/>
    <path class="st0" d="M187.4 97.4l-52.2 16.4v1.7c0 1.1-1 2-2.1 1.9-1.1 0-2-1-1.9-2.1v-.3l-18.8 5.9c-8.2 2.6-15.3 12-17.1 20.9l92.1-29.8V97.4z"/>
    <path class="st0" d="M148.2 57.5L55.9 77.8l7.5 1.7c.2-.2.5-.4.8-.4 6.2-1.9 20-5.4 33.7-4.9 7.3.3 14.6 1.7 20.8 5.2l59.7-16.8v-.9l-30.2-4.1v-.1zM71.3 81.3l21.5 4.8v.6l20-5.6c-4.7-1.8-9.9-2.7-15.1-2.9-9.7-.4-19.5 1.4-26.4 3.1z"/>
    <path class="st0" d="M55.5 82l31.4 6.6c2.2.5 3.9 2.7 3.9 4.9v45c0 2.3-1.9 4.1-3.9 3.3l-18.7-7.5c6.4-3.1 10.6-12.9 9.9-24.5-.8-14.1-8.6-25.6-17.4-25.6h-.1c-1.7 0-3.4.5-4.9 1.3l-4.1 1.1v-1.4c0-2.3 1.8-3.7 3.9-3.2z"/>
    <path class="st0" d="M19.2 105.2h.2l22.7-5.7c.8-.5 1.6-.7 2.4-.7 4.9 0 9.3 8.3 10 18.6.6 10.2-2.8 18.4-7.6 18.6v.1l-24.1 6c-.4.2-.7.2-1.1.3h-.2c-4.2 0-8.1-8.3-8.7-18.6s2.3-18.6 6.5-18.6h-.1zm2.5 6.4c3.1 0 5.9 5.7 6.2 12.6.4 7-1.9 12.6-4.9 12.6-3.1 0-5.9-5.7-6.3-12.6-.4-7 1.9-12.6 4.9-12.6h.1z"/>
    <path class="st0" d="M39.3 92.4h.2l16-4.4c1.4-.8 2.9-1.2 4.5-1.2h.1c8 0 15.1 10.4 15.8 23.3.8 12.9-5.1 23.3-13 23.3h-.1v.1l-12.2 3.4c4-2.4 6.5-10.4 5.9-19.8-.7-11.4-5.6-20.6-11-20.6-1 0-1.9.3-2.7.8l-10.4 2.6c1.5-4.6 3.9-7.6 6.9-7.5z"/>
    <path class="st0" d="M93.7 110.8c.7 4.5 4.4 6.1 10.4 10.3-3.7 3.2-8.1 7.9-10.4 12.5v-22.8z"/>
</symbol><symbol id="icon-additional--icon" viewBox="0 0 200 200">
    <path class="st0" d="M63.9 70l5.8-6.4c2.9 2 17.5 14.1 23.6.4.9-1.9 2.1-8.3 2.4-11.1h8.6c1.9 8.3 1.1 13.5 9 16.8 7.2 3 11.7-2.5 16.7-5.8l6.4 5.8c-2.9 5-6.4 7.9-6.4 11.3 0 11.2 6.9 13.8 17.1 14.7v8.6c-19.8 4.6-21.9 9.5-11 25.7l-5.8 6.4c-2.5-1.8-8.4-6.4-11.3-6.4-13 0-12.3 7-14.7 17.1h-8.6c-.8-9.4-3.2-17.1-13.5-17.1-4.8 0-9 4-12.2 6.1l-6.4-5.8c4.1-5.9 8.9-9.6 5.9-16.7-3.6-8.4-7.7-7.1-16.6-9.2v-8.6c2.2-.2 8.2-1.3 10.2-2 4.6-1.7 4.6-2.6 6.4-7.2 2.7-6.8.8-6.9-5.6-16.6zm22-8.6c-6.9 1.6-5.9-1-11.8-4.2-5.8-3.2-8.5-.7-12.4 3.2-7.8 7.7-7.5 9.2-1.9 17.4 9.3 13.7-14.3 6.3-14.3 16.6 0 21 .8 14.9 12 18.6 4.5 1.5 5.9 3.8 3.1 8.6-1.1 1.8-3.5 4.4-4.1 5.9-2.1 4.8 1.2 8 4.6 11.3 3.5 3.5 5.9 6.9 11.4 4.7 2-.8 3.6-2.2 5.4-3.4l4.3-1.9c6.3-.3 4.6 2.6 7.4 15 8.4 1.9 7.1 1.2 17.1 1.2 5.6 0 5.3-8.8 6.3-12 3.2-9.6 8.8-1.1 14.5 1.1 7 2.8 18.9-9.1 16.1-16.1-.8-2-2.2-3.6-3.4-5.4l-1.9-4.3c0-.1.1-.6.1-.7.2-4.3 4.5-4.1 8.2-4.8 9.4-1.7 7.8-2.3 7.8-16.6 0-3.3-.6-3.4-1.2-6.1-2.7-.6-4.7-1.1-7.9-1.9-13-3.1-4.8-7.6-1.7-15.3 3-7.4-9.7-18.8-16-16-1.8.8-3.3 2.4-5.2 3.6-2.3 1.5.4.8-3 1.6l-2.2-.1c-8.4-.9-.5-16.1-12.9-16.1-22.3 0-12.1 2.9-18.3 15.9l-.1.2z"/>
    <path class="st0" d="M79.8 100.5c0-27.3 40.4-28.2 40.4 0 0 26-40.4 26-40.4 0zm-3.7-3.7c0 39.8 47.7 30.1 47.7 7.3 0-9.2.9-14-7.2-22.1-14-13.9-40.5-2.4-40.5 14.8z"/>
    <path class="st0" d="M90.8 100.5c0-20.3 29.1-5.3 16.2 6.4-5.4 4.9-16.2 3.1-16.2-6.4zm-4.9-1.2c0 19.6 28.1 19.6 28.1 0 0-17.8-28.1-17.4-28.1 0z"/>
</symbol><symbol id="icon-arrow" viewBox="0 0 36 36">
    <path class="st0" d="M18 3.3C9.9 3.3 3.3 9.9 3.3 18S9.9 32.7 18 32.7 32.7 26.1 32.7 18 26.1 3.3 18 3.3zM0 18C0 8.1 8.1 0 18 0s18 8.1 18 18-8.1 18-18 18S0 27.9 0 18z"/>
    <path class="st1" d="M19.2 10.3c-.6-.6-1.7-.6-2.3 0-.6.6-.6 1.7 0 2.3l3.8 3.8h-9.1c-.9 0-1.6.7-1.6 1.6s.7 1.6 1.6 1.6h9.1l-3.8 3.8c-.6.6-.6 1.7 0 2.3.6.6 1.7.6 2.3 0l6.5-6.5c.6-.6.6-1.7 0-2.3l-6.5-6.6z"/>
</symbol><symbol id="icon-callback--icon" viewBox="0 0 15 14">
    <path class="st0" d="M8.9 10.1c.2.1.4.2.6.2.2 0 .3-.2.4-.3.3-.3 1.1-1.4 1.1-1.4s.3-.3.7-.1c.4.3 1.4 1 3.1 2 .3.2.1.6.1.6s-1.2 1.9-3 2.8c-.4.3-1.4 0-1.4 0S2.8 12.2.1 4.3c-.2-.4 0-1 0-1S.3 1.9 2.5.1c.3-.3.7 0 .7 0S4.3 1.2 5.6 3c.1.1.1.2.1.3 0 .1-.1.2-.1.3C4.6 4.3 4.1 5 4 5.2c-.1.1-.1.3.1.6S6 8.7 8.9 10.1z"/>
</symbol><symbol id="icon-compare--icon" viewBox="0 0 40 30">
    <path class="st0" d="M21 27.8c0 .7-.6 1.3-1.3 1.3-.7 0-1.3-.6-1.3-1.3V1.3c0-.7.6-1.3 1.3-1.3.7 0 1.3.6 1.3 1.3v26.5z"/>
    <path class="st1" d="M6.8 16.4H.6c0 3.4 2.8 6.2 6.2 6.2 3.4 0 6.2-2.8 6.2-6.2H6.8z"/>
    <path class="st0" d="M13.5 30c-.7 0-1.3-.6-1.3-1.3 0-.7.6-1.3 1.3-1.3h12.2c.7 0 1.3.6 1.3 1.3 0 .7-.6 1.3-1.3 1.3H13.5z"/>
    <path class="st1" d="M33.2 16.4H27c0 3.4 2.8 6.2 6.2 6.2 3.4 0 6.2-2.8 6.2-6.2h-6.2z"/>
    <path class="st0" d="M26.9 16.2l5.2-12.1.8-1.7.8 1.7L39.2 16l-1.6.7-4.8-10.3-4.2 10.2-1.7-.4z"/>
    <path class="st0" d="M.5 16.2L5.7 4.1l.7-1.7.8 1.7L12.7 16l-1.6.7L6.3 6.4 2.2 16.6l-1.7-.4z"/>
    <path class="st0" d="M8.1 6.8c-.7 0-1.3-.6-1.3-1.3 0-.7.6-1.3 1.3-1.3h23.1c.7 0 1.3.6 1.3 1.3 0 .7-.6 1.3-1.3 1.3H8.1z"/>
</symbol><symbol id="icon-control--icon" viewBox="0 0 200 200">
    <path class="st0" d="M43.5 59.6h112.9c19.9 0 36.2 16.3 36.2 36.2v18.7c0 14.2-11.7 25.9-25.9 25.9H33.1c-14.2 0-25.9-11.6-25.9-25.9V95.8c0-19.9 16.3-36.2 36.3-36.2zm123.6 22.6c.3-.3.9-.3 1.2 0 .3.3.3.9 0 1.2l-1.6 1.6c1.3 1.7 2.1 3.8 2.1 6.1 0 2.4-.9 4.6-2.3 6.3l1.8 1.8c.3.3.3.9 0 1.2s-.9.3-1.2 0l-1.8-1.8c-1.7 1.4-3.9 2.3-6.3 2.3-2.3 0-4.4-.8-6.1-2.1l-1.6 1.6c-.3.3-.9.3-1.2 0s-.3-.9 0-1.2l1.6-1.6c-1.5-1.7-2.5-4-2.5-6.5 0-2.4.9-4.6 2.3-6.3l-1.4-1.4c-.3-.3-.3-.9 0-1.2.3-.3.9-.3 1.2 0l1.4 1.4c1.7-1.4 3.9-2.3 6.3-2.3 2.5 0 4.8.9 6.5 2.5l1.6-1.6zm-124.6-19h114.9c8 0 15.2 3.3 20.5 8.5 5.3 5.3 8.5 12.5 8.5 20.5s-3.3 15.2-8.5 20.5c-5.3 5.3-12.5 8.5-20.5 8.5H42.5c-8 0-15.2-3.3-20.5-8.5-5.3-5.3-8.5-12.5-8.5-20.5S16.8 77 22 71.7c5.3-5.3 12.5-8.5 20.5-8.5zm114.9 3.1H42.5c-7.1 0-13.6 2.9-18.3 7.6s-7.6 11.2-7.6 18.3c0 7.1 2.9 13.6 7.6 18.3 4.7 4.7 11.2 7.6 18.3 7.6h114.9c7.1 0 13.6-2.9 18.3-7.6 4.7-4.7 7.6-11.2 7.6-18.3 0-7.1-2.9-13.6-7.6-18.3-4.7-4.7-11.2-7.6-18.3-7.6zM137 106.2c-1.1 0-2.1.9-2.1 2.1 0 1.1.9 2.1 2.1 2.1 1.1 0 2.1-.9 2.1-2.1 0-1.1-.9-2.1-2.1-2.1zm0-6.9c-1.1 0-2.1.9-2.1 2.1 0 1.1.9 2.1 2.1 2.1 1.1 0 2.1-.9 2.1-2.1 0-1.1-.9-2.1-2.1-2.1zm0-6.9c-1.1 0-2.1.9-2.1 2.1 0 1.1.9 2.1 2.1 2.1 1.1 0 2.1-.9 2.1-2.1 0-1.1-.9-2.1-2.1-2.1zm0-6.9c-1.1 0-2.1.9-2.1 2.1 0 1.1.9 2.1 2.1 2.1 1.1 0 2.1-.9 2.1-2.1 0-1.1-.9-2.1-2.1-2.1zm-15.2 0c-1.1 0-2.1.9-2.1 2.1 0 1.1.9 2.1 2.1 2.1 1.1 0 2.1-.9 2.1-2.1 0-1.1-.9-2.1-2.1-2.1zm0 6.9c-1.1 0-2.1.9-2.1 2.1 0 1.1.9 2.1 2.1 2.1 1.1 0 2.1-.9 2.1-2.1 0-1.1-.9-2.1-2.1-2.1zm0 6.9c-1.1 0-2.1.9-2.1 2.1 0 1.1.9 2.1 2.1 2.1 1.1 0 2.1-.9 2.1-2.1 0-1.1-.9-2.1-2.1-2.1zm0 6.9c-1.1 0-2.1.9-2.1 2.1 0 1.1.9 2.1 2.1 2.1 1.1 0 2.1-.9 2.1-2.1 0-1.1-.9-2.1-2.1-2.1zm7.5 0c-1.1 0-2.1.9-2.1 2.1 0 1.1.9 2.1 2.1 2.1 1.1 0 2.1-.9 2.1-2.1 0-1.1-.9-2.1-2.1-2.1zm-15 0c-1.1 0-2.1.9-2.1 2.1 0 1.1.9 2.1 2.1 2.1 1.1 0 2.1-.9 2.1-2.1 0-1.1-.9-2.1-2.1-2.1zm15-6.9c-1.1 0-2.1.9-2.1 2.1 0 1.1.9 2.1 2.1 2.1 1.1 0 2.1-.9 2.1-2.1 0-1.1-.9-2.1-2.1-2.1zm-15 0c-1.1 0-2.1.9-2.1 2.1 0 1.1.9 2.1 2.1 2.1 1.1 0 2.1-.9 2.1-2.1 0-1.1-.9-2.1-2.1-2.1zm15-6.9c-1.1 0-2.1.9-2.1 2.1 0 1.1.9 2.1 2.1 2.1 1.1 0 2.1-.9 2.1-2.1 0-1.1-.9-2.1-2.1-2.1zm-15 0c-1.1 0-2.1.9-2.1 2.1 0 1.1.9 2.1 2.1 2.1 1.1 0 2.1-.9 2.1-2.1 0-1.1-.9-2.1-2.1-2.1zm15-6.9c-1.1 0-2.1.9-2.1 2.1 0 1.1.9 2.1 2.1 2.1 1.1 0 2.1-.9 2.1-2.1 0-1.1-.9-2.1-2.1-2.1zm-15 0c-1.1 0-2.1.9-2.1 2.1 0 1.1.9 2.1 2.1 2.1 1.1 0 2.1-.9 2.1-2.1 0-1.1-.9-2.1-2.1-2.1zM98.4 70.3h36.8v11.4H98.4V70.3zm5.1 3.1h26.7v6.7h-26.7v-6.7zm-4.1 12c1.1 0 2.1.9 2.1 2.1 0 1.1-.9 2.1-2.1 2.1-1.1 0-2.1-.9-2.1-2.1 0-1.1.9-2.1 2.1-2.1zm-7.5-6.9c1.1 0 2.1.9 2.1 2.1 0 1.1-.9 2.1-2.1 2.1-1.1 0-2.1-.9-2.1-2.1 0-1.1.9-2.1 2.1-2.1zm7.5 13.7c1.1 0 2.1.9 2.1 2.1 0 1.1-.9 2.1-2.1 2.1-1.1 0-2.1-.9-2.1-2.1 0-1.1.9-2.1 2.1-2.1zm0 6.9c1.1 0 2.1.9 2.1 2.1 0 1.1-.9 2.1-2.1 2.1-1.1 0-2.1-.9-2.1-2.1 0-1.1.9-2.1 2.1-2.1zm0 6.9c1.1 0 2.1.9 2.1 2.1 0 1.1-.9 2.1-2.1 2.1-1.1 0-2.1-.9-2.1-2.1 0-1.1.9-2.1 2.1-2.1zm-7.5 0c1.1 0 2.1.9 2.1 2.1 0 1.1-.9 2.1-2.1 2.1-1.1 0-2.1-.9-2.1-2.1 0-1.1.9-2.1 2.1-2.1zm15 0c1.1 0 2.1.9 2.1 2.1 0 1.1-.9 2.1-2.1 2.1-1.1 0-2.1-.9-2.1-2.1 0-1.1.9-2.1 2.1-2.1zm-15-6.9c1.1 0 2.1.9 2.1 2.1 0 1.1-.9 2.1-2.1 2.1-1.1 0-2.1-.9-2.1-2.1 0-1.1.9-2.1 2.1-2.1zm15 0c1.1 0 2.1.9 2.1 2.1 0 1.1-.9 2.1-2.1 2.1-1.1 0-2.1-.9-2.1-2.1 0-1.1.9-2.1 2.1-2.1zm-15-6.9c1.1 0 2.1.9 2.1 2.1 0 1.1-.9 2.1-2.1 2.1-1.1 0-2.1-.9-2.1-2.1 0-1.1.9-2.1 2.1-2.1zm15 0c1.1 0 2.1.9 2.1 2.1 0 1.1-.9 2.1-2.1 2.1-1.1 0-2.1-.9-2.1-2.1 0-1.1.9-2.1 2.1-2.1zm-15-6.9c1.1 0 2.1.9 2.1 2.1 0 1.1-.9 2.1-2.1 2.1-1.1 0-2.1-.9-2.1-2.1 0-1.1.9-2.1 2.1-2.1zm15 0c1.1 0 2.1.9 2.1 2.1 0 1.1-.9 2.1-2.1 2.1-1.1 0-2.1-.9-2.1-2.1 0-1.1.9-2.1 2.1-2.1zm-47.8 20.6c1.1 0 2.1.9 2.1 2.1 0 1.1-.9 2.1-2.1 2.1-1.1 0-2.1-.9-2.1-2.1 0-1.1.9-2.1 2.1-2.1zm11.4-34.2h7.8v3.1h-7.8v-3.1zm-9.7 0h7.8v3.1h-7.8v-3.1zm19.4 0H88v3.1h-7.8v-3.1zm-5.8 34.2c1.1 0 2.1.9 2.1 2.1 0 1.1-.9 2.1-2.1 2.1-1.1 0-2.1-.9-2.1-2.1 0-1.1.9-2.1 2.1-2.1zm-7.5 0c1.1 0 2.1.9 2.1 2.1 0 1.1-.9 2.1-2.1 2.1-1.1 0-2.1-.9-2.1-2.1 0-1.1.9-2.1 2.1-2.1zm15 0c1.1 0 2.1.9 2.1 2.1 0 1.1-.9 2.1-2.1 2.1-1.1 0-2.1-.9-2.1-2.1 0-1.1.9-2.1 2.1-2.1zM74.4 99c1.1 0 2.1.9 2.1 2.1 0 1.1-.9 2.1-2.1 2.1-1.1 0-2.1-.9-2.1-2.1 0-1.1.9-2.1 2.1-2.1zm-7.5 0c1.1 0 2.1.9 2.1 2.1 0 1.1-.9 2.1-2.1 2.1-1.1 0-2.1-.9-2.1-2.1 0-1.1.9-2.1 2.1-2.1zm15 0c1.1 0 2.1.9 2.1 2.1 0 1.1-.9 2.1-2.1 2.1-1.1 0-2.1-.9-2.1-2.1 0-1.1.9-2.1 2.1-2.1zm-7.5-6.9c1.1 0 2.1.9 2.1 2.1 0 1.1-.9 2.1-2.1 2.1-1.1 0-2.1-.9-2.1-2.1 0-1.1.9-2.1 2.1-2.1zm-7.5 0c1.1 0 2.1.9 2.1 2.1 0 1.1-.9 2.1-2.1 2.1-1.1 0-2.1-.9-2.1-2.1 0-1.1.9-2.1 2.1-2.1zm15 0c1.1 0 2.1.9 2.1 2.1 0 1.1-.9 2.1-2.1 2.1-1.1 0-2.1-.9-2.1-2.1 0-1.1.9-2.1 2.1-2.1zm-7.5-6.9c1.1 0 2.1.9 2.1 2.1 0 1.1-.9 2.1-2.1 2.1-1.1 0-2.1-.9-2.1-2.1 0-1.1.9-2.1 2.1-2.1zm-7.5 0c1.1 0 2.1.9 2.1 2.1 0 1.1-.9 2.1-2.1 2.1-1.1 0-2.1-.9-2.1-2.1 0-1.1.9-2.1 2.1-2.1zm15 0c1.1 0 2.1.9 2.1 2.1 0 1.1-.9 2.1-2.1 2.1-1.1 0-2.1-.9-2.1-2.1 0-1.1.9-2.1 2.1-2.1zm-7.5-6.9c1.1 0 2.1.9 2.1 2.1 0 1.1-.9 2.1-2.1 2.1-1.1 0-2.1-.9-2.1-2.1 0-1.1.9-2.1 2.1-2.1zm-7.5 0c1.1 0 2.1.9 2.1 2.1 0 1.1-.9 2.1-2.1 2.1-1.1 0-2.1-.9-2.1-2.1 0-1.1.9-2.1 2.1-2.1zm15 0c1.1 0 2.1.9 2.1 2.1 0 1.1-.9 2.1-2.1 2.1-1.1 0-2.1-.9-2.1-2.1 0-1.1.9-2.1 2.1-2.1zm77.1-5.2c9.7 0 17.6 7.9 17.6 17.6s-7.9 17.6-17.6 17.6-17.6-7.9-17.6-17.6 7.9-17.6 17.6-17.6zm-116 0c9.7 0 17.6 7.9 17.6 17.6s-7.9 17.6-17.6 17.6-17.6-7.9-17.6-17.6S33.3 73.1 43 73.1zm0 7.8c5.4 0 9.8 4.4 9.8 9.8s-4.4 9.8-9.8 9.8-9.8-4.4-9.8-9.8 4.4-9.8 9.8-9.8z"/>
</symbol><symbol id="icon-design-models--icon" viewBox="0 0 200 200">
    <path class="st0" d="M21.6 107.4s42.5-5.1 44.7-5c2.2.1 16.7 3 16.7 3l-36.7 6.8s-6.3-4.8-24.8-4.8h.1zm36-65.4l-7.3 5.9 2 19.9s5-.2 7.8 4c-.6-8.6-2.4-29.8-2.5-29.8zm31.2 63.4l-.7.1-1 .1.1-.8c.1-.5-.7-.7-1.7-.9-5.1-.9-10.2-1.9-15.3-2.8l-2.6-2.3-3.8-44.6 7.3-8.1 53-1.3 6.5 6.3 4.2 41.5-2.9 4.8c-1.2-.6-2.5-1.2-3.7-1.8v-.3c.8-.8 1.3-2.2 1.1-3.8-.3-2.3-2-4.1-3.8-4-1.7.1-2.9 2.1-2.6 4.5.1.8.4 1.5.8 2.1l-6.2.3h-.5c.1-.5.1-1 0-1.6-.3-2.4-2.1-4.2-4-4.1-1.8.1-3.1 2.2-2.7 4.6.1.5.2.9.4 1.3-2 .1-3.9.1-5.9.2 0-.2 0-.4-.1-.6-.4-2.4-2.2-4.3-4.2-4.1-1.9.1-3.2 2.2-2.8 4.7 0 .1 0 .2.1.4H97c-1.9.1-3.4.4-4.5 1.2 0-.2 0-.5-.1-.7-.4-2.5-2.3-4.4-4.4-4.2-2 .1-3.4 2.3-3 4.8s2.3 4.4 4.4 4.2h.3l-.1.2-.1.2-.8 4.7.1-.2zM110.3 62c-1.8 0-3.1 2-2.7 4.4.3 2.4 2.1 4.3 4 4.3 1.8 0 3.1-2 2.7-4.4-.3-2.4-2.1-4.3-4-4.3zm-1.4-13.3c-1.8 0-3.1 2-2.7 4.4.3 2.4 2.1 4.4 4 4.4 1.8 0 3.1-2 2.7-4.4-.3-2.4-2.1-4.4-4-4.4zm12.5-.4c-1.7 0-2.9 1.9-2.6 4.3.3 2.4 2 4.3 3.8 4.3 1.7 0 2.9-1.9 2.6-4.3-.3-2.4-2-4.3-3.8-4.3zm-25 .8c-1.9 0-3.2 2-2.8 4.5.4 2.5 2.2 4.5 4.2 4.5 1.9 0 3.2-2 2.8-4.5-.4-2.5-2.2-4.5-4.2-4.5zm-12.5.4c-2 0-3.4 2-3 4.5s2.3 4.5 4.4 4.5c2 0 3.4-2 3-4.5s-2.3-4.5-4.4-4.5zm-12.5.4c-2.1 0-3.5 2.1-3.1 4.6s2.4 4.6 4.6 4.6c2.1 0 3.5-2.1 3.1-4.6s-2.4-4.6-4.6-4.6zm40.3 25.5c-1.8.1-3.1 2.1-2.7 4.5.3 2.4 2.1 4.3 4 4.2 1.8-.1 3.1-2.1 2.7-4.5-.3-2.4-2.1-4.3-4-4.2zm-36 17.3c-2.1.2-3.5 2.3-3.1 4.8.4 2.5 2.4 4.4 4.6 4.3 2.1-.2 3.5-2.3 3.1-4.8s-2.4-4.4-4.6-4.3zm48.5-18.3c-1.7.1-2.9 2.1-2.6 4.4.3 2.4 2 4.2 3.8 4.1 1.7-.1 2.9-2.1 2.6-4.4-.3-2.4-2-4.2-3.8-4.1zm-25 2c-1.9.1-3.2 2.1-2.8 4.6.4 2.4 2.2 4.3 4.2 4.2 1.9-.1 3.2-2.1 2.8-4.6-.4-2.4-2.2-4.3-4.2-4.2zm-12.5 1c-2 .1-3.4 2.2-3 4.7.4 2.5 2.3 4.4 4.4 4.3 2-.1 3.4-2.2 3-4.7-.4-2.5-2.3-4.4-4.4-4.3zm-12.5 1c-2.1.1-3.5 2.2-3.1 4.8.4 2.5 2.4 4.5 4.6 4.4 2.1-.1 3.5-2.2 3.1-4.8-.4-2.5-2.4-4.5-4.6-4.4zm48.5-17.1c-1.7 0-2.9 2-2.6 4.3.3 2.4 2 4.2 3.8 4.2 1.7 0 2.9-2 2.6-4.3-.3-2.4-2-4.2-3.8-4.2zm-25 1.4c-1.9 0-3.2 2.1-2.8 4.5.4 2.4 2.2 4.4 4.2 4.4 1.9 0 3.2-2.1 2.8-4.5-.4-2.4-2.2-4.4-4.2-4.4zm-12.5.7c-2 0-3.4 2.1-3 4.6.4 2.5 2.3 4.5 4.4 4.4 2 0 3.4-2.1 3-4.6-.4-2.5-2.3-4.5-4.4-4.4zm-12.5.7c-2.1.1-3.5 2.2-3.1 4.7.4 2.5 2.4 4.6 4.6 4.5 2.1-.1 3.5-2.2 3.1-4.7s-2.4-4.6-4.6-4.5zm12.8 59.7v.3l4.8-.7c-1.1-2.6-1.3-2.8-.8-4.4-.2-.1-.4-.3-.6-.4l-.5-.3-.8-1.4v-.5l-1.6.2-.5 6.2-.1 1.2.1-.2zm47.8-85.1h-.7c-9.2 0-60.1.2-71.6 1.5-.5.1-.9.1-1.3.2-.8.1-1 .4-1 1.3.4 6.1 2.9 41.4 4.9 59.1 1.7-.2 2.8-.3 3.2-.2.3 0 .9.1 1.7.2l-1.7-1.5-4.1-45.8 7.9-8.6 54.1-1.6 7 6.7 4.5 42.6s-1.6 2.8-3.1 5.2c1.4.7 2.7 1.4 4.1 2 1.3.6 2.5 1.2 3.8 1.9.7-.6.8-1.4.8-2.3v-2.5c-.5-13.4-6.1-50.5-7.5-57.3 0-.2-.1-.3-.1-.5-.2-.5-.3-.5-.8-.5l-.1.1zm-46.6 70.9c.5 0 1-.1 1.5-.1l.2-2.5.1-.6-1.6.2-.2 2.4v.7-.1zM50 69.3s6.6-1.3 9.8 5.8c.4 5.1.7 15.7 1 26-2.8.3-6.3.7-10.1 1.1l-.6-32.9H50zm4.9 4.8c-1.6 0-3 1.6-3 3.5s1.3 3.5 3 3.5c1.6 0 3-1.6 3-3.5s-1.3-3.5-3-3.5zm.2 11.4c-1.6 0-3 1.6-3 3.5s1.3 3.5 3 3.5c1.6 0 3-1.6 3-3.5s-1.3-3.5-3-3.5zm19.2 74l13.5-1.8c1.1-.2 1.7-1.8 1.7-3.8v-3.8c1.7.1 3.6.3 5.7.7 11.4 1.9 18 5.4 20.2 6.7.3 2.4 2.8 3.8 6 3.8 3.4 0 6.4-1.5 6.4-4.2v-8.7l4.6 3.3c-.5-.7-.7-1.8-.5-3 .1-1 .4-3.2.8-5.9l-.9 2.7h-.1c-.3.9-.6 1.6-.5 1.6h-.1l-.1-.1h-.1l-.1-.1-.1-.1-.1-.1-.2-.1h-.1l-.3-.2-.3-.2-.3-.2-.1-.1-.3-.2-.2-.1-.2-.2-.2-.2-.2-.1-.3-.2-.1-.1-.4-.3h-.1l-.5-.4-.5-.4-.1-.1-.5-.3-.2-.2-.4-.3-.3-.2-.3-.2-.4-.3-.2-.2-.5-.4-.1-.1-.7-.5-.7-.5-.1-.1-.6-.5-.2-.2-.5-.4-.3-.2-.4-.3-.5-.3-.3-.2-.6-.4-.2-.1-.7-.5-.1-.1-.8-.6h-.1l-.8-.6-.2-.1-.6-.5-.3-.2-.5-.4-.4-.3-.4-.3-.6-.4-.3-.2-.7-.5-.1-.1-.8-.6-.8-.6-.1-.1-.7-.5-.3-.2-.6-.4-.4-.3-.4-.3-.5-.4-.3-.2-.6-.5-.2-.1-.8-.6-.8-.6-.1-.1-.7-.5-.2-.1-.6-.4-.3-.2-.5-.3-.4-.3-.3-.2-.5-.4-.2-.2-.6-.5-.1-.1-.7-.5-.7-.5-.1-.1-.5-.4-.2-.2-.4-.3-.3-.2-.3-.2-.4-.3-.2-.1-.5-.3-.1-.1-.5-.4-.5-.4h-.1l-.4-.3-.1-.1-.3-.2-.2-.1-.2-.2-.3-.2-.2-.1c-.5 3.1 1 4.6 1 4.6l22.8 16.5v6.8l-25.9-6v-4.3c0-2-.7-3.2-1.7-3.1l-13.5 1.8c-1.1.1-1.7 1.4-1.7 3.4v18c0 2.3.7 3.6 1.7 3.5l-1-.7zm16.1-43.2c6.2 4.5 40.1 29.3 40.1 29.3s.5-1.6 1.3-3.7v-.2l.2-.6v-.4l.1-.3V136.5c1.4-3.9 2.7-7.9 2.7-7.9.9-2.8 2.4-4.9 5.3-5l36.8-1.2c.6 0 1.2.1 1.8.3-3.4-1.7-46.4-23.2-54.3-26.9l-1.2-.4-4.4.1c-5.7.2-15.5.6-23 .8-2.9.1-3.9.8-5 3.7l-1 5.9-.7 9 .1.3 1.2 1.1zm63.6 28.3c2.6-.1 4.7-.2 5.1-.2 1.2 0 1.9-.8 2.1-1.9.4-3.1 1.2-9 1.3-9.8.2-1.1-.5-1.8-1.6-1.8-.8 0-10.6.3-14.7.5-1.1 0-2 .8-2.1 1.9-.4 3-1.2 8.8-1.3 9.8-.2 1.2.4 1.8 1.4 1.8 2.3-.1 6.4-.2 9.8-.3zm-16.7 6.3c7.6-.3 25.5-.8 27.3-.9 2.3-.1 3.6-1.5 3.8-3.5.8-5.7 2.3-16.7 2.5-18.1.3-2.1-.9-3.4-2.9-3.3l-27.2.9c-2.1.5-3.2 2.4-3.9 4.6 0 0-.2.5-.5 1.3-.8 5.8-1.9 14.2-2.1 15.7-.3 2.3.8 3.5 2.9 3.4l.1-.1zm12.1-14.5c-1.6 2.3-1.5 5.3.2 6.7-.1 0-.1-.1-.2-.1-1.8-1.5-2-4.6-.4-6.8 1.5-2.1 4.2-2.8 6-1.5l-1.9-1.4-5.2.2c-.7 0-1 .3-1.1 1.1-.1 1.1-.4 3.7-.7 6.1l3.5 2.6c1.8 1.4 4.5.7 6.1-1.5 1.6-2.3 1.5-5.3-.2-6.7-1.7-1.5-4.5-.8-6.1 1.5v-.2zm-6.5 6.5c.1-.9.8-6.3 1.2-9.1.1-1 .9-1.7 2-1.7 3.9-.1 13-.4 13.8-.4 1 0 1.6.7 1.5 1.7-.1.7-.9 6.2-1.3 9.1-.1 1-.8 1.7-1.9 1.8-.2 0-.7 0-1.4.1.4-3.2 1.3-9.8 1.3-10.3.1-.8-.3-1.3-1-1.3-.5 0-6.4.2-9 .3-.7 0-1.2.6-1.3 1.4-.2 1.8-1 7.8-1.3 10.3h-1.1c-1.1 0-1.6-.5-1.5-1.7v-.2zm7.6-5.6c-1.1 1.5-1 3.5.1 4.4 1.2 1 3 .5 4-1 1.1-1.5 1-3.5-.1-4.4-1.2-1-3-.5-4 1zm.3.2c-.9 1.3-.9 3 .1 3.8s2.5.5 3.5-.8c.9-1.3.9-3-.1-3.8-1-.8-2.5-.5-3.5.8zm.9.8c-.4.6-.4 1.4.1 1.8.5.4 1.2.2 1.7-.4.4-.6.4-1.4-.1-1.8-.5-.4-1.2-.2-1.7.4zm.2 0c-.1.1-.1.3 0 .4.1.1.3.1.4-.1.1-.1.1-.3 0-.4-.1-.1-.3-.1-.4.1zM136.2 152c8.6-.3 28.9-1 30.9-1 2.6-.1 4-1.7 4.4-4 .9-6.5 2.6-18.9 2.8-20.5.1-.7 0-1.3-.1-1.8l-4 .1c1.1.5 1.6 1.7 1.4 3.2s-1.8 12.9-2.6 18.8c-.3 2.1-1.6 3.6-4 3.7-1.9.1-20.4.7-28.3.9-2.2.1-3.4-1.1-3.1-3.5.2-1.3 1-7.6 1.8-13.2-.4 1-.8 2.1-1.2 3.3-.6 4.7-1.2 9.1-1.4 10.2-.4 2.7 1 3.9 3.3 3.9l.1-.1zm44.4-22.8c.2-.8.3-1.4.3-2-.1-2.2-2-2.7-4-2.6h-1.5c.1.4.1.8 0 1.3-.2 1.3-1.3 9.6-2.3 16.5 1.1.5 1.9.9 2 1l5.5-14.2zm-5.5 14.2zm-99.9-2.2c0-.1 8.9 1.3 19.9 3.1s20.7 3.3 20.7 3.3c0 .1-9.7-1.3-20.7-3.1s-19.9-3.3-19.9-3.3zm13.9 8.9h-.2.2zm-.7 0v2.9c0 1.8-.5 3-1.5 3.1-.8.1-8.4 1.1-11.7 1.6-.9.1-1.5-.8-1.5-2.8v-15.6c0-1.7.6-3 1.5-3.1 3.3-.4 11-1.5 11.7-1.5.8-.1 1.4 1 1.4 2.8v2.5l-.7-.2V138c0-1.7-.6-2.7-1.4-2.6-.6.1-7.9 1-11 1.5-.9.1-1.4 1.3-1.4 2.9v14.6c0 1.9.5 2.8 1.4 2.7 3.1-.4 10.2-1.4 11-1.5.9-.1 1.4-1.3 1.4-2.9v-2.6c-2-.1-.5 0 .8 0zm-13.6-11.2c0 .8.6 1.4 1.3 1.4.7 0 1.2-.7 1.1-1.5 0-.8-.6-1.4-1.3-1.4s-1.2.7-1.1 1.5zm.3 0c0 .6.4 1.1.9 1 .5 0 .9-.5.9-1.1s-.4-1.1-.9-1c-.5 0-.9.5-.9 1.1zm.1 0c0 .5.4 1 .9 1s.8-.5.8-1-.4-1-.9-1-.8.5-.8 1zm-.6 16.2c0 .8.6 1.4 1.3 1.4s1.2-.7 1.1-1.5c0-.8-.6-1.4-1.3-1.4-.7 0-1.2.7-1.1 1.5zm.3 0c0 .6.4 1.1.9 1 .5 0 .9-.5.9-1.1 0-.6-.4-1.1-.9-1-.5 0-.9.5-.9 1.1zm.1 0c0 .5.4 1 .9 1s.8-.5.8-1-.4-1-.9-1-.8.5-.8 1zm9.7-1.4c0 .8.6 1.4 1.3 1.4.7 0 1.2-.7 1.1-1.5 0-.8-.6-1.4-1.3-1.4-.7 0-1.2.7-1.1 1.5zm.3 0c0 .6.4 1.1.9 1 .5 0 .9-.5.9-1.1 0-.6-.4-1.1-.9-1-.5 0-.9.5-.9 1.1zm.1 0c0 .5.4 1 .9 1s.8-.5.8-1c0-.6-.4-1-.9-1s-.8.5-.8 1zm-.5-16.1c0 .8.6 1.4 1.3 1.4s1.2-.7 1.1-1.5c0-.8-.6-1.4-1.3-1.4-.7 0-1.2.7-1.1 1.5zm.3 0c0 .6.4 1.1.9 1 .5 0 .9-.5.9-1.1 0-.6-.4-1.1-.9-1-.5 0-.9.5-.9 1.1zm.1 0c0 .6.4 1 .9 1s.8-.5.8-1-.4-1-.9-1-.8.5-.8 1zm-56-15c3 0 5.6 3.4 5.9 7.7.3 4.2-1.9 7.7-4.8 7.7-3 0-5.6-3.4-5.9-7.7-.3-4.2 1.9-7.7 4.8-7.7zm-9.4-13.9s-2.9 26.9.8 30.8c3.7 3.9 16.4 10.4 24.3 12.5 4.5-2.8 2.3-36.8 1.8-38.2 0 0-13.6-6.8-26.9-5.1zm9.4 11.5c4.2 0 7.9 4.5 8.3 10 .4 5.5-2.7 10-7 10-4.2 0-7.9-4.5-8.3-10-.4-5.5 2.7-10 7-10zm18.6-6.7l37-7.3-.3 3.2-36.2 10.2c-.1-2-.3-4-.5-6.1zm36.6-3.3L83.1 123 48 142.5c.8-6.6.6-13.9.1-21.5l36-10.9.1.1zm-1.2 14l-.3 3.6-36.4 23.5c.6-2.1 1.1-4.4 1.5-6.7L83 124.2z"/>
</symbol><symbol id="icon-download--icon" viewBox="0 0 99 99">
    <path class="st0" d="M81.8 17.2C73.5 9 62.1 3.9 49.5 3.9c-12.6 0-24 5.1-32.3 13.4C9 25.5 3.9 36.9 3.9 49.5c0 12.6 5.1 24 13.4 32.3 8.3 8.3 19.7 13.4 32.3 13.4 12.6 0 24-5.1 32.3-13.4 8.3-8.3 13.4-19.7 13.4-32.3-.1-12.6-5.2-24-13.5-32.3zM49.5 0c13.7 0 26 5.6 35 14.5 9 9 14.5 21.4 14.5 35 0 13.7-5.5 26-14.5 35-9 8.9-21.3 14.5-35 14.5s-26-5.6-35-14.5c-9-9-14.5-21.4-14.5-35 0-13.7 5.5-26.1 14.5-35C23.5 5.6 35.8 0 49.5 0z"/>
    <path class="st0" d="M43.5 21.9h12.1c2.1 0 3.7 1.7 3.7 3.7v28.9H69c1.6 0 2.9 1.3 2.9 2.9 0 .7-.3 1.5-.9 2L51.6 78.9c-1.1 1.1-3 1.1-4.2 0L28.1 59.5c-.6-.6-.8-1.3-.9-2 0-1.6 1.3-2.9 2.9-2.9h9.7v-29c-.1-2 1.6-3.7 3.7-3.7z"/>
</symbol><symbol id="icon-industrial-tv--icon" viewBox="0 0 200 200">
    <path class="st0" d="M72.4 156.2l15.2-2c1.3-.2 1.9-2.1 1.9-4.3v-4.3c2 .1 4.1.4 6.4.7 12.9 2.1 20.3 6.1 22.8 7.6.3 2.8 3.1 4.2 6.7 4.2 3.9 0 7.2-1.7 7.2-4.8v-9.8l5.2 3.8c-.6-.8-.8-2-.6-3.4.1-1.1.5-3.6.9-6.7-.4 1.1-.7 2.1-1 3h-.1c-.3 1-.6 1.8-.6 1.8h-.1l-.1-.1-.1-.1-.1-.1-.1-.1-.1-.1-.2-.1h-.1l-.3-.2-.3-.3-.4-.3-.1-.1-.3-.2-.2-.1-.3-.2-.3-.2-.2-.2-.4-.3-.2-.1-.5-.4-.1-.1-.6-.4-.6-.4-.1-.1-.5-.4-.2-.2-.5-.3-.4-.3-.4-.3-.5-.4-.3-.2-.6-.5-.1-.1-.8-.6-.8-.6-.1-.1-.7-.5-.2-.2-.6-.4-.4-.3-.5-.4-.5-.4-.4-.3-.7-.5-.2-.2-.8-.6-.1-.1-.9-.7h-.1l-.9-.6-.2-.1-.7-.5-.4-.3-.6-.4-.5-.4-.4-.3-.7-.5-.3-.2-.8-.6-.1-.1-1-.7-1-.7-.1-.1-.8-.6-.3-.2-.7-.5-.4-.3-.5-.4-.6-.4-.4-.3-.7-.5-.2-.1-.9-.6h-.1l-.9-.7-.1-.1-.8-.6-.2-.2-.7-.5-.4-.3-.5-.4-.5-.4-.4-.3-.6-.4-.2-.2-.7-.5-.1-.1-.8-.6-.8-.6-.1-.1-.6-.4-.3-.2-.5-.4-.4-.3-.4-.3-.5-.3-.2-.2-.5-.4-.1-.1-.6-.4-.6-.4-.1-.1-.5-.4-.2-.1-.4-.3-.2-.2-.3-.2-.3-.2-.2-.1c-.6 3.5 1.2 5.2 1.2 5.2l25.7 18.7v7.6L89 133.5v-4.8c0-2.3-.8-3.6-1.9-3.5l-15.3 2c-1.2.2-1.9 1.6-1.9 3.9v20.3c0 2.6.8 4.1 1.9 4l.6.8zm-47-38.7l33.3 5.4-16.2 23.4-35.1-8.1 18-20.7zm33.8 7.2v5.4l-14.7 26-36.6-10.7v-5.9l34.7 8.6 16.6-23.4zm-34.7 0l24.8 4.8-6.1 8.8-25.5-5.9 6.8-7.8v.1zm67.9-4.5c-1.7-1.3-2-3.7-2-3.7l-.7-4.5H68.8l-.7 4.5s-.2 2.2-1.8 3.4c-1.8 1.3-3.2 2.7-1.8 2.9 1.3.2 14 0 15 0 .8 0 13.5.2 14.8 0 1.2-.2 0-1.2-1.9-2.6zm33.5-78.4H32.7c-2.2 0-4 1.8-4 4v58.7c0 2.4 1.8 2.9 4 2.9h57.9c6.9 5.1 45.2 33.1 45.3 33.1l1.4-4.2v-.2l.2-.7v-.4l.1-.3V130.7c1.5-4.4 3.1-8.9 3.1-8.9 1-3.2 2.7-5.6 5.9-5.7l41.5-1.3c.7 0 1.4.1 2 .3-3.8-1.9-52.4-26.2-61.2-30.3V45c0-2.2-2.2-4-4.4-4l1.4.8zM91.2 97H34.7V48.6H124v36.7c-6.4.2-17.5.7-26 1-3.2.1-4.4.9-5.7 4.2l-1.2 6.6.1-.1zm71.1 42.3c2.9-.1 5.3-.2 5.8-.2 1.4 0 2.2-.9 2.3-2.1.5-3.5 1.4-10.2 1.5-11 .2-1.3-.6-2.1-1.8-2-.9 0-11.9.4-16.6.5-1.3 0-2.2.9-2.4 2.1-.5 3.4-1.3 10-1.5 11-.2 1.3.4 2 1.5 2.1 2.6-.1 7.3-.2 11.1-.4h.1zm-18.8 7.1c8.6-.3 28.7-1 30.8-1 2.6-.1 4-1.7 4.3-4 .9-6.4 2.6-18.8 2.8-20.4.3-2.3-1-3.8-3.3-3.8l-30.6 1c-2.4.6-3.6 2.7-4.4 5.2 0 0-.2.5-.5 1.4-.9 6.6-2.1 16-2.4 17.7-.4 2.6 1 3.9 3.3 3.8v.1zm13.7-16.3c-1.8 2.5-1.7 5.9.2 7.6-.1 0-.1-.1-.2-.2-2.1-1.7-2.3-5.2-.4-7.7 1.7-2.4 4.7-3.1 6.8-1.7l-2.1-1.6-5.8.2c-.8 0-1.2.3-1.2 1.2-.1 1.2-.5 4.2-.8 6.9l3.9 2.9c2 1.6 5 .8 6.9-1.7 1.8-2.5 1.7-5.9-.2-7.6-2-1.6-5.1-.9-6.9 1.6l-.2.1zm-7.3 7.3c.1-1 1-7.1 1.4-10.3.2-1.1 1-1.9 2.2-2 4.4-.1 14.6-.5 15.5-.5 1.1 0 1.8.7 1.6 1.9-.1.8-1 7-1.4 10.2-.2 1.2-.9 1.9-2.2 2-.2 0-.8 0-1.6.1.4-3.6 1.4-11 1.5-11.6.1-.9-.4-1.5-1.1-1.5-.6 0-7.2.2-10.1.3-.8 0-1.3.6-1.4 1.5-.2 2-1.1 8.8-1.5 11.6h-1.3c-1.2 0-1.9-.6-1.7-1.9l.1.2zm8.5-6.3c-1.2 1.7-1.1 3.9.2 5s3.3.6 4.5-1.1 1.1-3.9-.2-5-3.3-.6-4.5 1.1zm.3.3c-1 1.4-1 3.4.1 4.3 1.1.9 2.9.5 3.9-.9s1-3.4-.1-4.3c-1.1-.9-2.9-.5-3.9.9zm1.1.9c-.5.7-.5 1.6.1 2.1.5.4 1.4.2 1.9-.4.5-.7.5-1.6-.1-2.1-.5-.4-1.4-.2-1.9.4zm.2 0c-.1.2-.1.4 0 .5.1.1.3.1.4-.1.1-.2.1-.4 0-.5-.1-.1-.3-.1-.4.1zm-17.8 15.4c9.7-.3 32.6-1.1 34.9-1.2 2.9-.1 4.6-1.9 4.9-4.5 1-7.3 2.9-21.3 3.2-23.1.1-.8.1-1.4-.1-2l-4.5.1c1.2.6 1.8 1.9 1.6 3.6-.2 1.7-2 14.5-2.9 21.2-.3 2.4-1.8 4-4.5 4.1-2.1.1-23 .8-31.9 1.1-2.4.1-3.8-1.2-3.4-4 .2-1.5 1.2-8.6 2-14.9-.4 1.1-.9 2.4-1.3 3.7-.7 5.4-1.4 10.3-1.5 11.5-.4 3 1.1 4.4 3.8 4.3l-.3.1zm50.1-25.7c.3-.9.4-1.6.3-2.3-.1-2.5-2.3-3-4.5-2.9l-1.7.1c.1.4.1.9 0 1.4-.2 1.5-1.5 10.9-2.6 18.6 1.2.6 2.2 1 2.3 1.1l6.2-16zm-6.2 16zm-112.7-2.5c0-.1 10.1 1.5 22.5 3.5s23.3 3.7 23.3 3.8-11-1.5-23.4-3.5-22.4-3.7-22.4-3.8zm15.7 10h-.2.2zm-.7 0v3.3c0 2-.5 3.4-1.6 3.5-.9.1-9.5 1.3-13.2 1.8-1 .1-1.7-.9-1.6-3.2v-17.5c0-2 .6-3.3 1.7-3.5 3.7-.5 12.4-1.6 13.2-1.7 1-.1 1.6 1.1 1.6 3.1v2.8l-.8-.2v-2c0-1.9-.6-3.1-1.5-2.9-.7.1-8.9 1.2-12.4 1.6-1 .1-1.6 1.4-1.6 3.3v16.5c0 2.1.6 3.1 1.5 3 3.5-.5 11.6-1.5 12.4-1.7 1-.1 1.5-1.4 1.5-3.3v-2.9c-2.2-.1-.6 0 .8 0zm-15.3-12.6c0 .9.7 1.6 1.4 1.6s1.3-.8 1.3-1.7-.7-1.6-1.4-1.6c-.8 0-1.3.8-1.3 1.7zm.3 0c0 .7.5 1.2 1.1 1.2s1-.6 1-1.3-.5-1.2-1.1-1.2-1 .6-1 1.3zm.1 0c0 .6.5 1.1 1 1.1s.9-.5.9-1.2c0-.6-.5-1.1-1-1.1s-.9.5-.9 1.2zm-.7 18.3c0 .9.7 1.6 1.4 1.6s1.3-.8 1.3-1.7c0-.9-.7-1.6-1.4-1.6s-1.3.8-1.3 1.7zm.3 0c0 .7.5 1.2 1.1 1.2.6 0 1-.6 1-1.3s-.5-1.2-1.1-1.2c-.6 0-1 .6-1 1.3zm.1 0c0 .6.5 1.1 1 1.1s.9-.5.9-1.2c0-.6-.5-1.1-1-1.1s-.9.5-.9 1.2zm11-1.5c0 .9.7 1.6 1.4 1.6.8 0 1.3-.8 1.3-1.7 0-.9-.7-1.6-1.4-1.6-.8 0-1.3.8-1.3 1.7zm.3 0c0 .7.5 1.2 1.1 1.2.6 0 1-.6 1-1.3s-.5-1.2-1.1-1.2-1 .6-1 1.3zm.1 0c0 .6.5 1.1 1 1.1s.9-.5.9-1.2c0-.6-.5-1.1-1-1.1s-.9.5-.9 1.2zm-.5-18.1c0 .9.7 1.6 1.4 1.6.8 0 1.3-.8 1.3-1.7 0-.9-.7-1.6-1.4-1.6-.8 0-1.3.8-1.3 1.7zm.3 0c0 .7.5 1.2 1.1 1.2s1-.6 1-1.3-.5-1.2-1.1-1.2-1 .6-1 1.3zm.1 0c0 .6.5 1.1 1 1.1s.9-.5.9-1.2c0-.6-.5-1.1-1-1.1s-.9.5-.9 1.2z"/>
</symbol><symbol id="icon-ip-intercom--icon" viewBox="0 0 200 200">
    <path class="st0" d="M169.2 62.4H74v7.8h93v56.4H74v12.1h95.2c2.6 0 5.1-.6 5.1-3.3V67c0-2.6-2.5-4.7-5.1-4.7v.1z"/>
    <path class="st0" d="M32.4 32h31.7c3.7 0 6.7 3 6.7 6.7v122.5c0 3.7-3 6.7-6.7 6.7H32.4c-3.7 0-6.7-3-6.7-6.7V38.7c0-3.7 3-6.7 6.7-6.7zM38 158.6c.3 0 .5.2.5.5s-.2.5-.5.5-.5-.2-.5-.5.2-.5.5-.5zm2.2 0c.3 0 .5.2.5.5s-.2.5-.5.5-.5-.2-.5-.5.2-.5.5-.5zm2.2 0c.3 0 .5.2.5.5s-.2.5-.5.5-.5-.2-.5-.5.2-.5.5-.5zm2.2 0c.3 0 .5.2.5.5s-.2.5-.5.5-.5-.2-.5-.5.2-.5.5-.5zm2.2 0c.3 0 .5.2.5.5s-.2.5-.5.5-.5-.2-.5-.5.2-.5.5-.5zm2.2 0c.3 0 .5.2.5.5s-.2.5-.5.5-.5-.2-.5-.5.2-.5.5-.5zm2.2 0c.3 0 .5.2.5.5s-.2.5-.5.5-.5-.2-.5-.5.2-.5.5-.5zm2.2 0c.3 0 .5.2.5.5s-.2.5-.5.5-.5-.2-.5-.5.2-.5.5-.5zm2.2 0c.3 0 .5.2.5.5s-.2.5-.5.5-.5-.2-.5-.5.2-.5.5-.5zm2.2 0c.3 0 .5.2.5.5s-.2.5-.5.5-.5-.2-.5-.5.2-.5.5-.5zm-20.1-2.2c.3 0 .5.2.5.5s-.2.5-.5.5-.5-.2-.5-.5.2-.5.5-.5zm-2.2 0c.3 0 .5.2.5.5s-.2.5-.5.5-.5-.2-.5-.5.2-.5.5-.5zm4.5 0c.3 0 .5.2.5.5s-.2.5-.5.5-.5-.2-.5-.5.2-.5.5-.5zm2.2 0c.3 0 .5.2.5.5s-.2.5-.5.5-.5-.2-.5-.5.2-.5.5-.5zm2.2 0c.3 0 .5.2.5.5s-.2.5-.5.5-.5-.2-.5-.5.2-.5.5-.5zm2.2 0c.3 0 .5.2.5.5s-.2.5-.5.5-.5-.2-.5-.5.2-.5.5-.5zm2.2 0c.3 0 .5.2.5.5s-.2.5-.5.5-.5-.2-.5-.5.2-.5.5-.5zm2.2 0c.3 0 .5.2.5.5s-.2.5-.5.5-.5-.2-.5-.5.2-.5.5-.5zm2.2 0c.3 0 .5.2.5.5s-.2.5-.5.5-.5-.2-.5-.5.2-.5.5-.5zm2.2 0c.3 0 .5.2.5.5s-.2.5-.5.5-.5-.2-.5-.5.2-.5.5-.5zm2.2 0c.3 0 .5.2.5.5s-.2.5-.5.5-.5-.2-.5-.5.2-.5.5-.5zm2.2 0c.3 0 .5.2.5.5s-.2.5-.5.5-.5-.2-.5-.5.2-.5.5-.5zM37.5 154c.3 0 .5.2.5.5s-.2.5-.5.5-.5-.2-.5-.5.2-.5.5-.5zm2.2 0c.3 0 .5.2.5.5s-.2.5-.5.5-.5-.2-.5-.5.2-.5.5-.5zm2.2 0c.3 0 .5.2.5.5s-.2.5-.5.5-.5-.2-.5-.5.2-.5.5-.5zm2.2 0c.3 0 .5.2.5.5s-.2.5-.5.5-.5-.2-.5-.5.2-.5.5-.5zm2.2 0c.3 0 .5.2.5.5s-.2.5-.5.5-.5-.2-.5-.5.2-.5.5-.5zm2.2 0c.3 0 .5.2.5.5s-.2.5-.5.5-.5-.2-.5-.5.2-.5.5-.5zm2.2 0c.3 0 .5.2.5.5s-.2.5-.5.5-.5-.2-.5-.5.2-.5.5-.5zm2.2 0c.3 0 .5.2.5.5s-.2.5-.5.5-.5-.2-.5-.5.2-.5.5-.5zm2.2 0c.3 0 .5.2.5.5s-.2.5-.5.5-.5-.2-.5-.5.2-.5.5-.5zm2.2 0c.3 0 .5.2.5.5s-.2.5-.5.5-.5-.2-.5-.5.2-.5.5-.5zm-9.8-29.5c6.1 0 11 4.9 11 11s-4.9 11-11 11-11-4.9-11-11 4.9-11 11-11zm0 3.4c4.2 0 7.5 3.4 7.5 7.5 0 4.2-3.4 7.5-7.5 7.5-4.2 0-7.5-3.4-7.5-7.5 0-4.2 3.4-7.5 7.5-7.5zm-13.6-84h27.2c3.7 0 6.7 3 6.7 6.7v55.5c0 3.7-3 6.7-6.7 6.7H33.9c-3.7 0-6.7-3-6.7-6.7V50.6c0-3.7 3-6.7 6.7-6.7zm13.6 19.2c8.4 0 15.3 6.8 15.3 15.3 0 8.4-6.8 15.3-15.3 15.3-8.4 0-15.3-6.8-15.3-15.3 0-8.4 6.8-15.3 15.3-15.3zm0 6.6c4.8 0 8.7 3.9 8.7 8.7s-3.9 8.7-8.7 8.7-8.7-3.9-8.7-8.7 3.9-8.7 8.7-8.7zm0 5.8c1.6 0 2.8 1.3 2.8 2.8 0 1.6-1.3 2.8-2.8 2.8-1.6 0-2.8-1.3-2.8-2.8 0-1.6 1.3-2.8 2.8-2.8z"/>
</symbol><symbol id="icon-ip-speed--icon" viewBox="0 0 200 200">
    <path class="st0" d="M63.3 93l.8 15.6v.7c.2 3.7-1.7 7-4.7 8.8 2.9-.9 20.4-3.6 33-4.2 8.4-.4 15.4 1 22.5 1.8 11.8 1.4 17.9-11.5 20.4-21.1 1.7-4.9 3.4-9.7 5-14.6l-40.2.1C97.4 84.6 95.3 92 89.9 92h-2l-22.9.6c-.7.1-1.3.2-1.9.2l.2.2z"/>
    <path class="st0" d="M163.2 105.3l21.2 1.2c4.1.2 7.7 3 9 6.9.2.7.4 1.5.4 2.3l-3.2 27.8c-.8 4.7-3.2 8.6-8 8.1l-15.9-1.8c-4.2-.5-6.7-3.9-7.9-8.1l18 2.2c1.3 0 2.3-.5 2.9-1.6 1.6-2.7 1.9-7.3 2.2-9.9.2-2.2-.3-4.8-2-5.1l-24.2-3.4-.5-9.8c-.3-5 3.2-9.2 8-8.8z"/>
    <path class="st0" d="M121.9 49.8l-97.5.2C40 49.6 42 57.6 48.5 70.1c4.9 9.4 6.7 22.1 16.5 20.1l22.9-.6h2c5.4 0 7.5-7.4 10.2-11.9l42-.2-.5-9.4c-.5-10-9.4-18.1-19.7-18.1v-.2z"/>
    <path class="st0" d="M37.5 118.4h-4.7c-10 0-15.8-7.9-16.3-17.5l-.8-16c-.5-9.6 3.8-33.1 13.7-33.1 10 0 17.7 18.3 18.2 27.9l1.3 25.7c.4 7.1-4.1 13-11.4 13zm-4.4-11.2c.9 0 1.6 1.5 1.6 3.4s-.7 3.4-1.6 3.4c-.9 0-1.6-1.5-1.6-3.4s.7-3.4 1.6-3.4zm-.3-42.3c5 0 9.2 7.5 9.2 16.8s-4 16.8-9.1 16.8c-5 0-9.2-7.5-9.2-16.8s4-16.8 9.1-16.8zm.8 3.9c3.3 0 6 5.8 6 12.9 0 7.1-2.6 12.9-5.9 12.9s-6-5.8-6-12.9c0-7.1 2.6-12.9 5.9-12.9z"/>
    <path class="st0" d="M50.7 118.4h-3.3c-1 0-2-.1-2.9-.2 5.9-1.2 7.9-6.5 7.6-12.7l-1-20.5c-.1-2.6-.8-5.7-1.8-9 4 8 4.8 14.5 12.3 16.9l.6 12.6c.4 7.1-4.1 13-11.5 12.9z"/>
    <path class="st0" d="M30 49.9C22 48.5 5.5 45 6.2 57.4c.3 4.2 5.8 17.9 8.4 23.6-.7-11 2.1-32.4 15.4-31.2v.1z"/>
    <path class="st0" d="M132.7 106.9c2.3 4.9 3.7 9.8 4.2 11.2 1.1 3.2 2 6-.7 7.6-3.4 2.9-20.5 3.3-26.6 3.1-6.1-.2-15.6-2.1-16.9-2.9-1.3-.8-3.9-5.2-5.6-10.3 1.7-.1 3.4-.2 5-.3 8.9-.4 16.4 1 24 2 7.7.9 13.1-4.3 16.8-10.5l-.2.1z"/>
    <path class="st0" d="M140.1 125.8l13.8-.1 25.7 3.6c.5.5.5 2.3.4 2.9-.3 2.6-.6 6.9-1.9 9.1-.3.4-.7.6-1.1.6l-20.8-2.6c-3.2-.1-19.4.7-22.3 1.1-4.1.5-15.9 2-20.6 1.9-4.7-.1-9.5-.2-12.6-5.9-3.1-5.8-3.9-6.6-2.9-7 .2-.1.4-.2.7-.2 3.5.6 7.5 1 10.7 1.1 6.8.2 25.9-.3 29.8-3.5.4-.3.8-.6 1.1-1z"/>
</symbol><symbol id="icon-message--icon" viewBox="0 0 29 20">
    <path class="st0" d="M29 18.4V1.8l-10 8.4 10 8.2zM29 0H0l14.5 12L29 0zM0 1.8v16.6l10-8.2L0 1.8zM14.5 14l-3.6-3L.6 19.5c.4.3.9.5 1.5.5h24.8c.5 0 1-.2 1.4-.5L18.1 11l-3.6 3z"/>
</symbol><symbol id="icon-nav-arrow--icon" viewBox="0 0 98 23">
    <path class="st0" d="M61.9 8.2c-.4 1-.9 1.8-1.5 2.6L50.9 22s-1.7 2.2-3.4 0S38 10.9 38 10.9c-.6-.8-1.1-1.7-1.5-2.6h4.2c1.5 1.7 6.3 7.3 8.5 10l8.5-10h4.2v-.1z"/>
    <path class="st0" d="M98 13.6c-.2.6-.5 1.2-.9 1.7l-6 7.1s-1.1 1.4-2.1 0c-1.1-1.4-6-7.1-6-7.1-.4-.5-.7-1.1-.9-1.7h2.6c.9 1.1 4 4.6 5.4 6.3l5.4-6.3H98z"/>
    <path class="st0" d="M16.2 13.5c-.2.6-.6 1.2-.9 1.7l-6.1 7.1s-1.1 1.4-2.2 0S.9 15.2.9 15.2c-.4-.5-.7-1.1-.9-1.7h2.7c.9 1.1 4 4.7 5.4 6.4l5.4-6.4h2.7z"/>
    <path class="st0" d="M57.2 0c-.2.6-.5 1.2-.9 1.7l-6 7.1s-1.1 1.4-2.1 0c-1.1-1.4-6-7.1-6-7.1-.4-.5-.7-1.1-.9-1.7h2.6c.9 1.1 4 4.6 5.4 6.3L54.6 0h2.6z"/>
</symbol><symbol id="icon-network-ip--icon" viewBox="0 0 200 200">
    <path class="st0" d="M160.7 121.6c1.9 0 3.4 1.4 3.4 3.2 0 1.8-1.5 3.2-3.4 3.2s-3.4-1.4-3.4-3.2c0-1.8 1.5-3.2 3.4-3.2zM146 83.3c1.4 0 2.6 1.1 2.6 2.4 0 1.3-1.1 2.4-2.6 2.4-1.4 0-2.6-1.1-2.6-2.4 0-1.3 1.1-2.4 2.6-2.4zM29.8 77.4h140.3L152.7 66H47.2L29.8 77.4zm0 .7h13.3v2.1h12.8v-2.1h114.3v13.5c0 .6-.5 1-1.1 1H30.9c-.6 0-1.1-.5-1.1-1V78.1zm11.7 6.6h4.4v1h-4.4v-1zm0-2.8h4.4v1h-4.4v-1zm5.9 0h4.4v1h-4.4v-1zm5.7 0h4.4v1h-4.4v-1zm-11.6 5.7h4.4v1h-4.4v-1zm0 2.8h4.4v1h-4.4v-1zm5.9 0h4.4v1h-4.4v-1zm5.7 0h4.4v1h-4.4v-1zm-5.7-2.8h4.4v1h-4.4v-1zm5.7 0h4.4v1h-4.4v-1zm-5.7-2.8h4.4v1h-4.4v-1zm5.7 0h4.4v1h-4.4v-1zm7.9-5.6h107.4v12.5H61V79.2zm1.3.9h104.9v10.8H62.3V80.1zm17.2 8.2h2.1v.9h-2.1v-.9zm0-3.1h2.1v.9h-2.1v-.9zm0-3.2h2.1v.9h-2.1V82zm3.5 6.3h.9v.9H83v-.9zm0-3.1h.9v.9H83v-.9zm0-3.2h.9v.9H83V82zm13 1.4c1.4 0 2.6 1.1 2.6 2.4 0 1.3-1.1 2.4-2.6 2.4-1.4 0-2.6-1.1-2.6-2.4 0-1.3 1.1-2.4 2.6-2.4zm-7 0c1.4 0 2.6 1.1 2.6 2.4 0 1.3-1.1 2.4-2.6 2.4-1.4 0-2.6-1.1-2.6-2.4 0-1.3 1.1-2.4 2.6-2.4zm14.2 0c1.4 0 2.6 1.1 2.6 2.4 0 1.3-1.1 2.4-2.6 2.4-1.4 0-2.6-1.1-2.6-2.4 0-1.3 1.1-2.4 2.6-2.4zm7.7 0c1.4 0 2.6 1.1 2.6 2.4 0 1.3-1.1 2.4-2.6 2.4-1.4 0-2.6-1.1-2.6-2.4 0-1.3 1.1-2.4 2.6-2.4zm11.4 5.7c0-.9.8-1.7 1.8-1.7s1.8.8 1.8 1.7c0 .9-.8 1.7-1.8 1.7s-1.8-.8-1.8-1.7zm0-6.8c0-.9.8-1.7 1.8-1.7s1.8.8 1.8 1.7-.8 1.7-1.8 1.7-1.8-.8-1.8-1.7zm-3.8 1.9c1 0 1.8.8 1.8 1.7s-.8 1.7-1.8 1.7-1.8-.8-1.8-1.7.8-1.7 1.8-1.7zm11.1 0c1 0 1.8.8 1.8 1.7s-.8 1.7-1.8 1.7-1.8-.8-1.8-1.7.8-1.7 1.8-1.7zm7.7-.7c1.4 0 2.6 1.1 2.6 2.4s-1.1 2.4-2.6 2.4c-1.4 0-2.6-1.1-2.6-2.4s1.1-2.4 2.6-2.4zM7.4 114h185.2l-23-15.1H30.3L7.4 114zm0 .9h17.5v2.7h16.9v-2.7h150.9v17.9c0 .8-.7 1.4-1.5 1.4H8.7c-.8 0-1.5-.6-1.5-1.4v-17.9h.2zm15.5 8.8h5.8v1.4h-5.8v-1.4zm0-3.7h5.8v1.4h-5.8V120zm7.7 0h5.8v1.4h-5.8V120zm7.5 0h5.8v1.4h-5.8V120zm-15.2 7.5h5.8v1.4h-5.8v-1.4zm0 3.7h5.8v1.4h-5.8v-1.4zm7.7 0h5.8v1.4h-5.8v-1.4zm7.5 0h5.8v1.4h-5.8v-1.4zm-7.5-3.7h5.8v1.4h-5.8v-1.4zm7.5 0h5.8v1.4h-5.8v-1.4zm-7.5-3.7h5.8v1.4h-5.8v-1.4zm7.5 0h5.8v1.4h-5.8v-1.4zm10.4-7.4h141.8v16.5H48.5v-16.5zm1.7 1.1h138.4v14.2H50.2v-14.2zm22.7 10.9h2.8v1.1h-2.8v-1.1zm0-4.1h2.8v1.1h-2.8v-1.1zm0-4.2h2.8v1.1h-2.8v-1.1zm4.6 8.4h1.2v1.1h-1.2v-1.1zm0-4.1h1.2v1.1h-1.2v-1.1zm0-4.2h1.2v1.1h-1.2v-1.1zm17.2 1.8c1.9 0 3.4 1.4 3.4 3.2 0 1.8-1.5 3.2-3.4 3.2s-3.4-1.4-3.4-3.2c0-1.8 1.5-3.2 3.4-3.2zm-9.3 0c1.9 0 3.4 1.4 3.4 3.2 0 1.8-1.5 3.2-3.4 3.2S82 127 82 125.2c0-1.8 1.5-3.2 3.4-3.2zm18.7 0c1.9 0 3.4 1.4 3.4 3.2 0 1.8-1.5 3.2-3.4 3.2s-3.4-1.4-3.4-3.2c0-1.8 1.5-3.2 3.4-3.2zm10.2 0c1.9 0 3.4 1.4 3.4 3.2 0 1.8-1.5 3.2-3.4 3.2s-3.4-1.4-3.4-3.2c0-1.8 1.5-3.2 3.4-3.2zm15.1 7.5c0-1.2 1.1-2.2 2.4-2.2s2.4 1 2.4 2.2-1.1 2.2-2.4 2.2-2.4-1-2.4-2.2zm0-9c0-1.2 1.1-2.2 2.4-2.2s2.4 1 2.4 2.2c0 1.2-1.1 2.2-2.4 2.2s-2.4-1-2.4-2.2zm-5 2.5c1.3 0 2.4 1 2.4 2.2 0 1.2-1.1 2.2-2.4 2.2s-2.4-1-2.4-2.2c0-1.2 1.1-2.2 2.4-2.2zm14.6 0c1.3 0 2.4 1 2.4 2.2 0 1.2-1.1 2.2-2.4 2.2s-2.4-1-2.4-2.2c0-1.2 1.1-2.2 2.4-2.2zm10.1-1c1.9 0 3.4 1.4 3.4 3.2 0 1.8-1.5 3.2-3.4 3.2s-3.4-1.4-3.4-3.2c0-1.8 1.5-3.2 3.4-3.2z"/>
</symbol><symbol id="icon-network-ip-camera--icon" viewBox="0 0 200 200">
    <path class="st0" d="M100.4 42c-26 0-61.3 8.7-64.7 21.2-.6 2.1-.6 5.7-.6 8.7C47.4 61.7 77.6 53.2 101 53.2c23 0 51.1 7.9 63.7 17.6.1-2.4.4-5.8-.3-7.9-4.2-12.6-37.9-20.9-64-20.9zm11.3 82.1c0 6.8-5.5 12.3-12.3 12.3s-12.3-5.5-12.3-12.3c0-6.8 5.5-12.3 12.3-12.3s12.3 5.5 12.3 12.3zM99.4 94.7c16.2 0 29.4 13.2 29.4 29.4v.1c0 16.3-13.2 29.4-29.4 29.4-16.3 0-29.4-13.2-29.4-29.4v-.1c0-16.2 13.2-29.4 29.4-29.4zm29.4 29.3c0-16.2-13.2-29.4-29.4-29.4S70 107.7 70 124c0-16.2 5.2-35.8 29.5-35.8 24.1 0 29.3 19.6 29.4 35.9l-.1-.1zm16.5-1.4c-5.4 20.4-24 35.4-46.1 35.4-22.2 0-40.9-15.2-46.2-35.8.8-4.8 4.9-9.4 9.4-11.9 1.1-.6 1.9-1.4 2.3-2.5C70 94 83.4 84.1 99.2 84.1c15.5 0 28.8 9.6 34.2 23.1.5 1.2 1.7 2.7 2.6 3.2 4.2 2.5 7.6 6.9 9.2 12.2h.1zm-18.4 1.5c0 15.2-12.4 27.5-27.5 27.5-15.2 0-27.5-12.3-27.5-27.5s12.3-27.5 27.5-27.5 27.5 12.3 27.5 27.5zm-21.7-15.8c-.1 1.8 1.3 3.2 3.1 3.3 1.8.1 3.2-1.3 3.3-3.1.1-1.8-1.3-3.2-3.1-3.3-1.8-.1-3.2 1.3-3.3 3.1zm10.1 9.9c1.8-.2 3.1-1.7 2.9-3.5-.2-1.8-1.7-3.1-3.5-2.9-1.8.2-3.1 1.7-2.9 3.5.2 1.8 1.7 3.1 3.5 2.9zm1.7 2.7c-1.7.3-3 1.9-2.7 3.6.3 1.7 1.9 3 3.6 2.7 1.7-.3 3-1.9 2.7-3.6-.3-1.7-1.9-3-3.6-2.7zm-.2 14.9c1.5-1 1.9-2.9.9-4.4s-2.9-1.9-4.4-.9-1.9 2.9-.9 4.4 2.9 1.9 4.4.9zm-10 1.2c-1.5.9-2.1 2.8-1.2 4.4.9 1.5 2.8 2.1 4.4 1.2 1.5-.9 2.1-2.8 1.2-4.4-.9-1.5-2.8-2.1-4.4-1.2zm-4.4 4.4c-.4-1.7-2.2-2.7-3.9-2.3-1.7.4-2.7 2.2-2.3 3.9.4 1.7 2.2 2.7 3.9 2.3 1.7-.4 2.7-2.2 2.3-3.9zm-9-1.3c.2-1.8-1.1-3.3-2.8-3.5-1.8-.2-3.3 1.1-3.5 2.8-.2 1.8 1.1 3.3 2.8 3.5 1.8.2 3.3-1.1 3.5-2.8zm-11.1-9.9c-1.6.7-2.4 2.6-1.7 4.2s2.6 2.4 4.2 1.7 2.4-2.6 1.7-4.2-2.6-2.4-4.2-1.7zm-2.6-9c-1.6.8-2.2 2.7-1.4 4.3.8 1.6 2.7 2.2 4.3 1.4 1.6-.8 2.2-2.7 1.4-4.3-.8-1.6-2.7-2.2-4.3-1.4zm2.8-9.2c-1.7.6-2.6 2.4-2 4.1.6 1.7 2.4 2.6 4.1 2 1.7-.6 2.6-2.4 2-4.1-.6-1.7-2.4-2.6-4.1-2zm8.6-.6c1.7-.5 2.6-2.3 2.1-4s-2.3-2.6-4-2.1c-1.7.5-2.6 2.3-2.1 4 .5 1.7 2.3 2.6 4 2.1zm12.7-6.9c1.5.9 3.5.4 4.4-1.2.9-1.5.4-3.5-1.2-4.4-1.5-.9-3.5-.4-4.4 1.2-.9 1.5-.4 3.5 1.2 4.4zm11.9 6.5c1.8 0 3.2-1.5 3.2-3.2 0-1.8-1.5-3.2-3.2-3.2-1.8 0-3.2 1.5-3.2 3.2 0 1.8 1.5 3.2 3.2 3.2zm5.9 10.4c1.8 0 3.2-1.5 3.2-3.2 0-1.8-1.5-3.2-3.2-3.2-1.8 0-3.2 1.5-3.2 3.2 0 1.8 1.5 3.2 3.2 3.2zm-.2 5.6c-1.8 0-3.2 1.5-3.1 3.2 0 1.8 1.5 3.2 3.2 3.1 1.8 0 3.2-1.5 3.1-3.2 0-1.8-1.5-3.2-3.2-3.1zm-6.1 10.3c-1.8 0-3.2 1.5-3.1 3.3 0 1.8 1.5 3.2 3.3 3.1 1.8 0 3.2-1.5 3.1-3.3 0-1.8-1.5-3.2-3.3-3.1zm-10.4 5.9c-1.8 0-3.2 1.4-3.2 3.2 0 1.8 1.4 3.2 3.2 3.2s3.2-1.4 3.2-3.2c0-1.8-1.4-3.2-3.2-3.2zm-11.9-.1c-1.8 0-3.2 1.4-3.2 3.1 0 1.8 1.4 3.2 3.1 3.2 1.8 0 3.2-1.4 3.2-3.1 0-1.8-1.4-3.2-3.1-3.2zM82.6 137c-1.8 0-3.2 1.5-3.1 3.2 0 1.8 1.5 3.2 3.2 3.1 1.8 0 3.2-1.5 3.1-3.2 0-1.8-1.5-3.2-3.2-3.1zm-5.9-10.4c-1.8 0-3.2 1.5-3.2 3.2 0 1.8 1.5 3.2 3.2 3.2 1.8 0 3.2-1.5 3.2-3.2 0-1.8-1.5-3.2-3.2-3.2zm.1-5.6c1.8 0 3.2-1.4 3.3-3.1 0-1.8-1.4-3.2-3.1-3.3-1.8 0-3.2 1.4-3.3 3.1 0 1.8 1.4 3.2 3.1 3.3zm6.1-10.3c1.8 0 3.2-1.3 3.3-3.1 0-1.8-1.3-3.2-3.1-3.3-1.8 0-3.2 1.3-3.3 3.1 0 1.8 1.3 3.2 3.1 3.3zm10.5-5.9c1.8 0 3.2-1.4 3.2-3.2 0-1.8-1.4-3.2-3.2-3.2s-3.2 1.4-3.2 3.2c0 1.8 1.4 3.2 3.2 3.2zm5.8 4.3c1.8 0 3.2-1.4 3.2-3.2s-1.4-3.2-3.2-3.2c-1.8 0-3.2 1.4-3.2 3.2s1.4 3.2 3.2 3.2zm14.2 14.9c0 7.8-6.4 14.2-14.2 14.2S85 131.8 85 124s6.4-14.2 14.2-14.2 14.2 6.4 14.2 14.2zm-.5 0c0 7.6-6.1 13.7-13.7 13.7s-13.7-6.1-13.7-13.7 6.1-13.7 13.7-13.7 13.7 6.1 13.7 13.7zm-.7 0c0 7.2-5.8 12.9-12.9 12.9-7.2 0-12.9-5.8-12.9-12.9 0-7.2 5.8-12.9 12.9-12.9 7.2 0 12.9 5.8 12.9 12.9zm-12.9-7.1c-3.9 0-7.1 3.2-7.1 7.1s3.2 7.1 7.1 7.1 7.1-3.2 7.1-7.1-3.2-7.1-7.1-7.1zm0 1c-3.4 0-6.1 2.7-6.1 6.1s2.7 6.1 6.1 6.1 6.1-2.7 6.1-6.1-2.7-6.1-6.1-6.1zm0 3.1c-1.6 0-3 1.3-3 3 0 1.6 1.3 3 3 3 1.6 0 3-1.3 3-3 0-1.6-1.3-3-3-3zM35.8 73.7c.1 7 4.5 18.4 9.2 25.6 1.3-5.5 19.1-23.5 47-26.6h.2c.4 0 .8-.1 1.1-.1h.4c.3 0 .7-.1 1-.1h.5c.3 0 .6 0 .8-.1H105.9c.3 0 .6 0 .9.1h.3c29.1 2.6 45.2 21.2 47.3 27.3 4.8-7.4 9.4-19.3 9.4-26.3v-.8c-11.9-10.1-39.7-18-63-18-23.8 0-53.7 8.6-65 19zm10 27.4c.3 6.2 1.9 14.9 5.7 20.5.8-5 5.1-9.7 9.7-12.3 1.1-.7 1.9-1.5 2.4-2.6C69.1 92.4 83 82.2 99.2 82.2c16 0 29.7 9.9 35.4 23.9.5 1.2 1.8 2.8 2.7 3.3 4.4 2.5 7.8 7.1 9.5 12.6 3.9-6 5.6-15.5 5.8-21.8-2.2-6.2-21.1-24.9-50.6-25.5h-2.8c-29.1.6-52.4 20.9-53.3 26.3l-.1.1z"/>
</symbol><symbol id="icon-network-storage--icon" viewBox="0 0 200 200">
    <path class="st0" d="M7.8 94.9h184.4L157.9 69H42.2L7.8 94.9zM192.2 131H7.8V96.6h184.4V131zm-43.6-33h-2v2h2v-2zm5.5 0h-2v2h2v-2zm-10.9 0h-2v2h2v-2zm-5.5 0h-2v2h2v-2zm-5.5 0h-2v2h2v-2zm-5.5 0h-2v2h2v-2zm-5.5 0h-2v2h2v-2zm-5.5 0h-2v2h2v-2zm-5.4 0h-2v2h2v-2zm-5.5 0h-2v2h2v-2zm-86-.3h23.7v4H18.8v-4zm11.4 13.2H25v1.5h5.2v-1.5zm0-4.9H25v1.5h5.2V106zm-5.9 0h-5.2v1.5h5.2V106zm11.8 0h-5.2v1.5h5.2V106zm5.9 0h-5.2v1.5H42V106zm-11.8 9.7H25v1.5h5.2v-1.5zm0 4.9H25v1.5h5.2v-1.5zm-5.9 0h-5.2v1.5h5.2v-1.5zm11.8 0h-5.2v1.5h5.2v-1.5zm5.9 0h-5.2v1.5H42v-1.5zm-17.7-4.9h-5.2v1.5h5.2v-1.5zm11.8 0h-5.2v1.5h5.2v-1.5zm5.9 0h-5.2v1.5H42v-1.5zm-17.7-4.8h-5.2v1.5h5.2v-1.5zm11.8 0h-5.2v1.5h5.2v-1.5zm5.9 0h-5.2v1.5H42v-1.5zm72.7-1.7H84.2v2.3h30.5v-2.3zm0-7.5H84.2v2.3h30.5v-2.3zm-34.6 0H49.6v2.3h30.5v-2.3zm69.1 0h-30.5v2.3h30.5v-2.3zm34.6 0h-30.5v2.3h30.5v-2.3zm-69.1 15H84.2v2.3h30.5v-2.3zm0 7.5H84.2v2.3h30.5v-2.3zm-34.6 0H49.6v2.3h30.5v-2.3zm69.1 0h-30.5v2.3h30.5v-2.3zm34.6 0h-30.5v2.3h30.5v-2.3zm-103.7-7.5H49.6v2.3h30.5v-2.3zm69.1 0h-30.5v2.3h30.5v-2.3zm34.6 0h-30.5v2.3h30.5v-2.3zm-103.7-7.4H49.6v2.3h30.5v-2.3zm69.1 0h-30.5v2.3h30.5v-2.3zm34.6 0h-30.5v2.3h30.5v-2.3z"/>
</symbol><symbol id="icon-news--icon" viewBox="0 0 34 24">
    <path class="st0" d="M3.1 4.4h16.6c1.7 0 3.1 1.4 3.1 3.1v8.4c0 1.7-1.4 3.1-3.1 3.1h-8.1l-5 5.2-.1-5.2H3.2C1.5 19 .1 17.6.1 15.9V7.4c-.1-2.9 2.8-2.8 3-3z"/>
    <path class="st0" d="M30.9 0H14.3c-1.7 0-3.1 1.4-3.1 3.1v.4h10c1.7 0 3.1 1.4 3.1 3.1V15c0 .5-.1.9-.3 1.3l3.4 3.5.1-5.2h3.3c1.7 0 3.1-1.4 3.1-3.1V3.1c.1-3-2.8-2.9-3-3.1z"/>
</symbol><symbol id="icon-poe--icon" viewBox="0 0 200 200">
    <path class="st0" d="M7.3 118.2h185.2l-23-20.3H30.2L7.3 118.2zm23.1-41.4h139.1l-17.3-15.3H47.6L30.4 76.8zm4.7 4.6h1.6v3.3h-1.6v-3.3zm-3.1 0h1.6v3.3H32v-3.3zm0 7.7h1.6v-3.3H32v3.3zm6.2-7.7h1.6v3.3h-1.6v-3.3zm3.1 0h1.6v3.3h-1.6v-3.3zm3.1 0H46v3.3h-1.6v-3.3zm3.1 0h1.6v3.3h-1.6v-3.3zm3.1 0h1.6v3.3h-1.6v-3.3zm3.1 0h1.6v3.3h-1.6v-3.3zm3.1 0h1.6v3.3h-1.6v-3.3zm3.1 0h1.6v3.3h-1.6v-3.3zm3.1 0h1.6v3.3H63v-3.3zm0 7.7h1.6v-3.3H63v3.3zm-3.1 0h1.6v-3.3h-1.6v3.3zm-3.1 0h1.6v-3.3h-1.6v3.3zm-3.1 0h1.6v-3.3h-1.6v3.3zm-3.1 0h1.6v-3.3h-1.6v3.3zm-3.1 0h1.6v-3.3h-1.6v3.3zm-3.1 0H46v-3.3h-1.6v3.3zm-3.1 0h1.6v-3.3h-1.6v3.3zm-3.1 0h1.6v-3.3h-1.6v3.3zm-3.1 0h1.6v-3.3h-1.6v3.3zm117.2-5.5c2.1 0 3.8.6 3.8 1.4 0 .8-1.7 1.4-3.8 1.4s-3.8-.6-3.8-1.4c0-.8 1.7-1.4 3.8-1.4zm-67.3.5h4.4v-.9c0-1.2-1-2.2-2.2-2.2-1.2 0-2.2 1-2.2 2.2v.9zm73.1 0h4.4v-.9c0-1.2-1-2.2-2.2-2.2-1.2 0-2.2 1-2.2 2.2v.9zm0 1.7h4.4v.9c0 1.2-1 2.2-2.2 2.2-1.2 0-2.2-1-2.2-2.2v-.9zm-16.4 0h4.4v.9c0 1.2-1 2.2-2.2 2.2-1.2 0-2.2-1-2.2-2.2v-.9zm0-1.7h4.4v-.9c0-1.2-1-2.2-2.2-2.2-1.2 0-2.2 1-2.2 2.2v.9zm-7.5 0h4.4v-.9c0-1.2-1-2.2-2.2-2.2-1.2 0-2.2 1-2.2 2.2v.9zm0 1.7h4.4v.9c0 1.2-1 2.2-2.2 2.2-1.2 0-2.2-1-2.2-2.2v-.9zm-16.4 0h4.4v.9c0 1.2-1 2.2-2.2 2.2-1.2 0-2.2-1-2.2-2.2v-.9zm5.5 0h4.4v.9c0 1.2-1 2.2-2.2 2.2-1.2 0-2.2-1-2.2-2.2v-.9zm5.5 0h4.4v.9c0 1.2-1 2.2-2.2 2.2-1.2 0-2.2-1-2.2-2.2v-.9zm-10.9-1.7h4.4v-.9c0-1.2-1-2.2-2.2-2.2-1.2 0-2.2 1-2.2 2.2v.9zm5.5 0h4.4v-.9c0-1.2-1-2.2-2.2-2.2-1.2 0-2.2 1-2.2 2.2v.9zm5.5 0h4.4v-.9c0-1.2-1-2.2-2.2-2.2-1.2 0-2.2 1-2.2 2.2v.9zm-31.4 0h-4.4v-.9c0-1.2 1-2.2 2.2-2.2 1.2 0 2.2 1 2.2 2.2v.9zm0 1.7h-4.4v.9c0 1.2 1 2.2 2.2 2.2 1.2 0 2.2-1 2.2-2.2v-.9zm16.4 0h-4.4v.9c0 1.2 1 2.2 2.2 2.2 1.2 0 2.2-1 2.2-2.2v-.9zm-5.5 0H104v.9c0 1.2 1 2.2 2.2 2.2 1.2 0 2.2-1 2.2-2.2v-.9zm-5.5 0h-4.4v.9c0 1.2 1 2.2 2.2 2.2 1.2 0 2.2-1 2.2-2.2v-.9zm10.9-1.7h-4.4v-.9c0-1.2 1-2.2 2.2-2.2 1.2 0 2.2 1 2.2 2.2v.9zm-5.5 0h-4.4v-.9c0-1.2 1-2.2 2.2-2.2 1.2 0 2.2 1 2.2 2.2v.9zm-5.5 0h-4.4v-.9c0-1.2 1-2.2 2.2-2.2 1.2 0 2.2 1 2.2 2.2v.9zM85 85.8h4.4v.9c0 1.2-1 2.2-2.2 2.2-1.2 0-2.2-1-2.2-2.2v-.9zm-16.4 0H73v.9c0 1.2-1 2.2-2.2 2.2-1.2 0-2.2-1-2.2-2.2v-.9zm5.5 0h4.4v.9c0 1.2-1 2.2-2.2 2.2-1.2 0-2.2-1-2.2-2.2v-.9zm5.5 0H84v.9c0 1.2-1 2.2-2.2 2.2-1.2 0-2.2-1-2.2-2.2v-.9zm-10.9-1.7h4.4v-.9c0-1.2-1-2.2-2.2-2.2-1.2 0-2.2 1-2.2 2.2v.9zm5.5 0h4.4v-.9c0-1.2-1-2.2-2.2-2.2-1.2 0-2.2 1-2.2 2.2v.9zm5.5 0h4.4v-.9c0-1.2-1-2.2-2.2-2.2-1.2 0-2.2 1-2.2 2.2v.9zm-49.1-6.6h139.2v13.4c0 .6-.5 1-1.1 1h-137c-.6 0-1.1-.5-1.1-1V77.5zm35.9 1h101.4v12.4H66.5V78.5zm-52.7 45.8H16v4.3h-2.2v-4.3zm-4.1 0h2.2v4.3H9.7v-4.3zm0 10.2h2.2v-4.3H9.7v4.3zm8.2-10.2h2.2v4.3h-2.2v-4.3zm4.1 0h2.2v4.3H22v-4.3zm4.1 0h2.2v4.3h-2.2v-4.3zm4.1 0h2.2v4.3h-2.2v-4.3zm4.1 0h2.2v4.3h-2.2v-4.3zm4.1 0h2.2v4.3h-2.2v-4.3zm4.1 0h2.2v4.3h-2.2v-4.3zm4.1 0h2.2v4.3h-2.2v-4.3zm4.1 0h2.2v4.3h-2.2v-4.3zm0 10.2h2.2v-4.3h-2.2v4.3zm-4.1 0h2.2v-4.3h-2.2v4.3zm-4.1 0h2.2v-4.3h-2.2v4.3zm-4.1 0h2.2v-4.3h-2.2v4.3zm-4.1 0h2.2v-4.3h-2.2v4.3zm-4.1 0h2.2v-4.3h-2.2v4.3zm-4.1 0h2.2v-4.3h-2.2v4.3zm-4.1 0h2.2v-4.3H22v4.3zm-4.1 0h2.2v-4.3h-2.2v4.3zm-4.1 0H16v-4.3h-2.2v4.3zm156.2-7.3c2.8 0 5 .8 5 1.8s-2.2 1.8-5 1.8-5-.8-5-1.8 2.2-1.8 5-1.8zm-89.7.7h5.9v-1.1c0-1.6-1.3-3-3-3-1.6 0-3 1.3-3 3l.1 1.1zm97.4 0h5.9v-1.1c0-1.6-1.3-3-3-3-1.6 0-3 1.3-3 3l.1 1.1zm0 2.3h5.9v1.1c0 1.6-1.3 3-3 3-1.6 0-3-1.3-3-3l.1-1.1zm-21.9 0h5.9v1.1c0 1.6-1.3 3-3 3-1.6 0-3-1.3-3-3v-1.1h.1zm0-2.3h5.9v-1.1c0-1.6-1.3-3-3-3-1.6 0-3 1.3-3 3v1.1h.1zm-10 0h5.9v-1.1c0-1.6-1.3-3-3-3-1.6 0-3 1.3-3 3v1.1h.1zm0 2.3h5.9v1.1c0 1.6-1.3 3-3 3-1.6 0-3-1.3-3-3v-1.1h.1zm-21.9 0h5.9v1.1c0 1.6-1.3 3-3 3-1.6 0-3-1.3-3-3l.1-1.1zm7.3 0h5.9v1.1c0 1.6-1.3 3-3 3-1.6 0-3-1.3-3-3 0-.4 0-.8.1-1.1zm7.3 0h5.9v1.1c0 1.6-1.3 3-3 3-1.6 0-3-1.3-3-3 0-.4 0-.8.1-1.1zm-14.6-2.3h5.9v-1.1c0-1.6-1.3-3-3-3-1.6 0-3 1.3-3 3l.1 1.1zm7.3 0h5.9v-1.1c0-1.6-1.3-3-3-3-1.6 0-3 1.3-3 3 0 .4 0 .8.1 1.1zm7.3 0h5.9v-1.1c0-1.6-1.3-3-3-3-1.6 0-3 1.3-3 3 0 .4 0 .8.1 1.1zm-41.9 0h-5.9v-1.1c0-1.6 1.3-3 3-3 1.6 0 3 1.3 3 3v1.1h-.1zm0 2.3h-5.9v1.1c0 1.6 1.3 3 3 3 1.6 0 3-1.3 3-3v-1.1h-.1zm21.9 0h-5.9v1.1c0 1.6 1.3 3 3 3 1.6 0 3-1.3 3-3l-.1-1.1zm-7.3 0h-5.9v1.1c0 1.6 1.3 3 3 3 1.6 0 3-1.3 3-3 0-.4 0-.8-.1-1.1zm-7.3 0H98v1.1c0 1.6 1.3 3 3 3 1.6 0 3-1.3 3-3 0-.4 0-.8-.1-1.1zm14.6-2.3h-5.9v-1.1c0-1.6 1.3-3 3-3 1.6 0 3 1.3 3 3l-.1 1.1zm-7.3 0h-5.9v-1.1c0-1.6 1.3-3 3-3 1.6 0 3 1.3 3 3 0 .4 0 .8-.1 1.1zm-7.3 0H98v-1.1c0-1.6 1.3-3 3-3 1.6 0 3 1.3 3 3 0 .4 0 .8-.1 1.1zm-23.7 2.3h5.9v1.1c0 1.6-1.3 3-3 3-1.6 0-3-1.3-3-3v-1.1h.1zm-21.9 0h5.9v1.1c0 1.6-1.3 3-3 3-1.6 0-3-1.3-3-3l.1-1.1zm7.3 0h5.9v1.1c0 1.6-1.3 3-3 3-1.6 0-3-1.3-3-3 0-.4 0-.8.1-1.1zm7.3 0h5.9v1.1c0 1.6-1.3 3-3 3-1.6 0-3-1.3-3-3 0-.4 0-.8.1-1.1zm-14.6-2.3h5.9v-1.1c0-1.6-1.3-3-3-3-1.6 0-3 1.3-3 3l.1 1.1zm7.3 0h5.9v-1.1c0-1.6-1.3-3-3-3-1.6 0-3 1.3-3 3 0 .4 0 .8.1 1.1zm7.3 0h5.9v-1.1c0-1.6-1.3-3-3-3-1.6 0-3 1.3-3 3 0 .4 0 .8.1 1.1zm-65.5-8.8h185.4V137c0 .8-.7 1.4-1.5 1.4H8.8c-.8 0-1.5-.6-1.5-1.4l.1-17.9zm47.9 1.4h135.1V137H55.3v-16.5z"/>
</symbol><symbol id="icon-processing-data--icon" viewBox="0 0 200 200">
    <path class="st0" d="M105.3 65.7H11.4c-2.2 0-4.1 1.9-4.1 4.1v59.1c0 2.4 1.9 2.9 4.1 2.9h93.9c2.2 0 4.4-.5 4.4-2.9V69.8c0-2.2-2.2-4.1-4.4-4.1zm-2.9 52.7H60.5V99.1h41.9v19.3zm-40.5-2.2l9.4-8.8.4-.4.4.4 7 7L90 101.1l.7-.9.4 1.1 4.7 13.5 4.3-4.3.9.9-5 5-.7.7-.3-.9-4.7-13.4-10.6 13-.4.5-.5-.5-7.1-7.1-9 8.4-.9-.9h.1zm-47.1 2.2h41.9V99.1H14.8v19.3zm2.1-1.2V106H21v11.2h-4.1zm6.7 0v-6.3h4.1v6.3h-4.1zm6.7 0v-8.3h4.1v8.3h-4.1zm6.7 0v-3.9h4.1v3.9H37zm6.7 0v-9.6h4.1v9.6h-4.1zm6.7 0v-7.3h4.1v7.3h-4.1zm51.9-42H60.4v19.3h41.9V75.2zM62.5 93V81.8h4.1V93h-4.1zm6.7 0v-6.3h4.1V93h-4.1zm6.7 0v-8.3H80V93h-4.1zm6.7 0v-3.9h4.1V93h-4.1zm6.7 0v-9.6h4.1V93h-4.1zm6.7 0v-7.3h4.1V93H96zM14.6 75.2h41.9v19.3H14.6V75.2zM15.9 92l9.4-8.8.4-.4.4.4 7 7L44 76.9l.7-.9.4 1.1 4.7 13.5 4.3-4.3.9.9-5 5-.7.7-.3-.9-4.7-13.4-10.6 13-.4.5-.5-.5-7.1-7.1-9 8.4-.9-.9h.1zm55.4 52.7c-1.7-1.4-2-3.7-2-3.7l-.7-4.6h-21l-.7 4.6s-.2 2.2-1.9 3.4c-1.9 1.4-3.2 2.7-1.9 2.9 1.4.2 14.1 0 15.1 0 .8 0 13.6.2 14.9 0 1.2-.2 0-1.2-1.9-2.5l.1-.1zm33.5-22.5H11.5V71.6h93.3v50.6z"/>
    <path class="st0" d="M188.3 52.7H94.4c-2.2 0-4.1 1.9-4.1 4.1v6.1h4.4v-4.3H188v50.6h-74v9.6h74.2c2.2 0 4.4-.5 4.4-2.9V56.8c0-2.2-2.2-4.1-4.4-4.1h.1zm-2.9 52.7h-41.9V86.1h41.9v19.3zm-40.5-2.2l9.4-8.8.4-.4.4.4 7 7L173 88.1l.7-.9.4 1.1 4.7 13.5 4.3-4.3.9.9-5 5-.7.7-.3-.9-4.7-13.4-10.6 13-.4.5-.5-.5-7.1-7.1-9 8.4-.9-.9h.1zm-30.8 2.2h25.6V86.1h-25.6v9.8h3.4v8.3h-3.4v1.2zm5.9-1.2v-3.9h4.1v3.9H120zm6.7 0v-9.6h4.1v9.6h-4.1zm6.7 0v-7.3h4.1v7.3h-4.1zm51.9-42h-41.9v19.3h41.9V62.2zM145.5 80V68.8h4.1V80h-4.1zm6.7 0v-6.3h4.1V80h-4.1zm6.7 0v-8.3h4.1V80h-4.1zm6.7 0v-3.9h4.1V80h-4.1zm6.7 0v-9.6h4.1V80h-4.1zm6.7 0v-7.3h4.1V80H179zM97.6 62.2h41.9v19.3h-25.6v-4.9l2 2 .5.5.4-.5 10.6-13 4.7 13.4.3.9.7-.7 5-5-.9-.9-4.3 4.3-4.7-13.5-.4-1.1-.7.9-10.9 13.3-2.4-2.4v-7.9c0-2.2-2.2-4.1-4.4-4.1H97.5l.1-.6zm56.8 69.5c-1.7-1.4-2-3.7-2-3.7l-.7-4.6h-21l-.7 4.6s-.2 2.2-1.9 3.4c-1.9 1.4-3.2 2.7-1.9 2.9 1.4.2 14.1 0 15.1 0 .8 0 13.6.2 14.9 0 1.2-.2 0-1.2-1.9-2.5l.1-.1z"/>
</symbol><symbol id="icon-search--icon" viewBox="0 0 16 16">
    <path class="st0" d="M15.7 14.3l-4-4c.8-1 1.3-2.4 1.3-3.8C13 2.9 10.1 0 6.5 0S0 2.9 0 6.5 2.9 13 6.5 13c1.4 0 2.8-.5 3.8-1.3l4 4c.4.4 1 .4 1.4 0 .4-.4.4-1 0-1.4zM2 6.5C2 4 4 2 6.5 2S11 4 11 6.5 9 11 6.5 11 2 9 2 6.5z"/>
</symbol><symbol id="icon-software--icon" viewBox="0 0 200 200">
    <path class="st0" d="M116.7 116c-1.8-1.4-2.2-4-2.2-4l-.7-4.9H91.5l-.7 4.9s-.2 2.3-2 3.6c-2 1.4-3.4 2.9-2 3.1 1.4.2 14.9 0 16 0 .9 0 14.4.2 15.8 0 1.3-.2 0-1.3-2-2.7h.1zm76 6.2H107.3l-.7 18.3-13.8-5.5v32.9H7.4v-45.7h60.8l7.5-16.6 1.6 16.6h15.5V135l13.8 16.4.7 16.5h85.4v-45.7zm-78 7.1v31.3h72.4v2.2h-74.5v-33.5h2.1zm3.6 27.3l16.2-15.1.8-.7.7.7 12.1 12.1 18.7-22.8 1.2-1.5.6 1.8 8.1 23.2 7.4-7.4 1.5 1.5-8.6 8.6-1.2 1.2-.6-1.6-8-23-18.2 22.3-.8.9-.8-.8-12.2-12.2-15.4 14.4-1.5-1.6zm-105.4.8h48.9v3.7H12.9v-3.7zm0-5.9h64.4v3.7H12.9v-3.7zm0-5.9h26v3.7h-26v-3.7zm0-5.9h55.3v3.7H12.9v-3.7zm0-5.9h42.5v3.7H12.9v-3.7zm0-5.9h74.9v3.7H12.9v-3.7zm105.7-41.1h27.1V67.6h-27.1v19.2zm0-42.9h27.1v19.2h-27.1V43.9zm-2.5 42.9H89V67.6h27.1v19.2zm-56.6 0h27.1V67.6H59.5v19.2zm56.6-42.9H89v19.2h27.1V43.9zm-56.6 0h27.1v19.2H59.5V43.9zm93.1-11.5H52.8c-2.3 0-4.3 2-4.3 4.3v62.9c0 2.5 2 3.1 4.3 3.1h99.8c2.3 0 4.7-.5 4.7-3.1V36.7c0-2.3-2.3-4.3-4.7-4.3zm-2 59.1H55V39.6h95.6v51.9z"/>
</symbol><symbol id="icon-wifi-components--icon" viewBox="0 0 200 200">
    <path class="st0" d="M58.8 101.9l-.6 16.2v.6c0 4.2-2 9.5-6.9 10l65.9-8.1c9.7-1.2 17.7-5.1 17.7-13.2V96.8l-19.9.1c-2.8 3.7-5.1 9.6-10.1 9.6H103l-17.5.3-4.9-4.9c-.6.1-21.3 0-21.8 0z"/>
    <path class="st0" d="M152.5 71.3h19.3c5 0 9.2 3.1 10.4 7.4.2.8.3 1.6.3 2.4v31.1c0 5.4-4.8 9.4-10.6 8.9l-19.4-1.7c-5.8-.5-10.6-5.4-10.6-10.7v-1.2h14.4c6.2 0 11.3-4.6 11.3-10.3v-3c0-5.7-5.1-10.3-11.3-10.3h-14.4v-2.8c0-5.4 4.8-9.8 10.7-9.8h-.1z"/>
    <path class="st0" d="M135.6 85.3h16.5c6.7 0 12.2 4.6 12.2 10.3 0 5.7-5.5 10.3-12.2 10.3h-16.5v-2.3c2.8-1.9 4.6-4.8 4.6-8s-1.8-6.1-4.6-8v-2.3z"/>
    <path class="st0" d="M117.3 76.2l-63.4-3.7c6 9.2 6.2 16.2 6.2 26.3l21.8.6 4.4 4 4.3.1h13.1c5.1 0 7.4-5 10.1-8.6l21.1-.1v-7.6c0-8.1-8-10.3-17.6-11z"/>
    <path class="st0" d="M41.6 127.8h-4.4c-9.4 0-14.5-6.4-14.5-14.1v-12.9c0-8.2 2.9-26.7 14.5-26.7 8.6 0 19.1-4.6 19.1 22.5v20.8c0 5.8-3.7 10.5-14.7 10.4zm-2.7-40.7c5.1 0 9.2 6.5 9.2 14.4 0 8-4.1 14.4-9.2 14.4s-9.2-6.5-9.2-14.4c0-8 4.1-14.4 9.2-14.4zm0-9.6c1.1 0 2 1.4 2 3.1 0 1.7-.9 3.1-2 3.1s-2-1.4-2-3.1c0-1.7.9-3.1 2-3.1zm.8 13c3.3 0 6 5 6 11.1s-2.7 11.1-6 11.1-6-5-6-11.1 2.7-11.1 6-11.1z"/>
    <path class="st0" d="M37.9 72.5c-7.5-1.1-20.4-3.9-20.3 6.1 0 3.4 2.2 9.4 4.3 14.1-.1-8.9 3.6-21.2 16-20.2z"/>
</symbol><symbol id="icon-wifi-kits--icon" viewBox="0 0 200 200">
    <path class="st0" d="M23.1 76.4V82.3c0 1.9-1.4 3.4-3.2 3.7l21.7-2c3.6-.3 6.5-3.4 6.5-7v-5.3h-12c-1 1.6-1.9 4.3-3.7 4.3h-.7l-8 .2c-.2 0-.4.1-.7.1l.1.1zm33.2-15.5h8.2c2.1 0 3.9 1.5 4.4 3.4.1.4.1.7.1 1.1v14.5c0 2.5-2 4.4-4.5 4.1l-8.2-.8c-2.5-.2-4.5-2.5-4.5-5v-.5h4c2.6 0 4.8-2.2 4.8-4.8v-1.4c0-2.6-2.2-4.8-4.8-4.8h-4v-1.3c0-2.5 2-4.6 4.6-4.6l-.1.1zm-7.2 6.5H55c2.6 0 4.8 2.2 4.8 4.8 0 2.6-2.2 4.8-4.8 4.8h-5.9v-9.6zM13.7 85.6h-1.6c-3.5 0-5.4-2.8-5.4-6.3v-5.8c0-3.5 1.9-11.9 5.4-11.9 3.5 0 5.8 6.6 5.8 10.1V81c0 2.6-1.6 4.7-4.2 4.7v-.1zm27.9-24.7H12.3c-2.8-.5-8.4-1.8-8.4 2.7 0 1.5 1.7 6.4 2.5 8.5 0-3.7 1.2-10.7 5.1-11.2h.8c.5.1 1 .2 1.5.4l.1.1.1.1c.1 0 .2.1.3.1l.1.1c.3.2.6.4.9.7l.2.2.1.1.1.1.1.1.1.1c.1.2.2.3.3.5l.1.1c.1.2.2.4.3.5l.1.1v.1l.1.1c.1.1.1.3.2.4l.1.1.1.1.1.1.1.2.1.2.1.2.1.1.1.1v.1l.1.1V66.9l.1.1v.1l.1.1.1.2.1.2.1.2c1.6 3.4 1.9 8 5.4 7.3l8-.2h.7c1.9 0 2.7-2.7 3.7-4.3h12V52.2c0-.5-.3-1-.7-1.1V36.3c0-.7-.6-1.3-1.3-1.3-.7 0-1.3.6-1.3 1.3v14.8c-.4.2-.7.6-.7 1.1v9.4h-1.7l-.9-.7zm-29.3 0h-.7.7zm6 24.7h-1.2c-.4 0-.7 0-1-.1 2.1-.4 2.9-2.3 2.9-4.6v-7.4c0-.9-.2-2.1-.5-3.3 1.3 2.9 1.4 5.2 4 6.1v4.6c0 2.6-1.6 4.7-4.2 4.7zm-6.1-18.2c1.9 0 3.4 2.9 3.4 6.4 0 3.6-1.5 6.4-3.4 6.4s-3.4-2.9-3.4-6.4c0-3.6 1.5-6.4 3.4-6.4zm0-4.3c.4 0 .7.6.7 1.4 0 .8-.3 1.4-.7 1.4-.4 0-.7-.6-.7-1.4 0-.8.3-1.4.7-1.4zm.3 5.8c1.2 0 2.2 2.2 2.2 4.9s-1 4.9-2.2 4.9-2.2-2.2-2.2-4.9 1-4.9 2.2-4.9z"/>
    <path class="st0" d="M116.1 89.2c24.6-.3 52.5-.2 80 0v.3h-25.3l-.1.1-3.4 3.7h-22.4l-3.4-3.7-.1-.1h-25.2v-.3h-.1zm62-48.5c-.7-.2-1.4.2-1.5.9l-3.7 14.3c-.5.1-.9.4-1 .9L166.4 78h-19.3l-5.5-21.2c-.1-.5-.5-.8-1-.9l-3.7-14.3c-.2-.7-.9-1.1-1.5-.9-.7.2-1.1.9-.9 1.5l3.7 14.3c-.4.3-.6.8-.4 1.3L143 78h-14.6l-12.2 10h79.9l-12.2-10h-13.4l5.2-20.2c.1-.5-.1-1-.4-1.3l3.7-14.3c.2-.7-.2-1.4-.9-1.5zm-26 51.9h7.9l-1-2.7h-6l-1 2.7h.1zm-26 2.6h3.1V97h-3.1v-1.8zm0-3.5h1.8v1.8h-1.8v-1.8zm70-1.5v10c0 .4-.3.8-.6.8h-78.7c-.3 0-.6-.4-.6-.8v-10h24.9l3.4 3.7.1.1h23.2l.1-.1 3.4-3.7h24.8z"/>
    <path class="st0" d="M53.6 102.6V108.5c0 1.9-1.4 3.4-3.2 3.7l21.7-2c3.6-.3 6.5-3.4 6.5-7v-5.3h-12c-1 1.6-1.9 4.3-3.7 4.3h-.7l-8 .2c-.2 0-.4.1-.7.1l.1.1zm33.2-15.5H95c2.1 0 3.9 1.5 4.4 3.4.1.4.1.7.1 1.1v14.5c0 2.5-2 4.4-4.5 4.1l-8.2-.8c-2.5-.2-4.5-2.5-4.5-5v-.5h4c2.6 0 4.8-2.2 4.8-4.8v-1.4c0-2.6-2.2-4.8-4.8-4.8h-4v-1.3c0-2.5 2-4.6 4.5-4.5zm-7.2 6.5h5.9c2.6 0 4.8 2.2 4.8 4.8 0 2.6-2.2 4.8-4.8 4.8h-5.9v-9.6zm-35.4 18.2h-1.6c-3.5 0-5.4-2.8-5.4-6.3v-5.8c0-3.5 1.9-11.9 5.4-11.9 3.5 0 5.8 6.6 5.8 10.1v9.3c0 2.6-1.6 4.7-4.2 4.6zm27.9-24.7H42.8c-2.8-.5-8.4-1.8-8.4 2.7 0 1.5 1.7 6.4 2.5 8.5 0-3.7 1.2-10.7 5.1-11.2h.8c.5.1 1 .2 1.5.4l.1.1.1.1c.1 0 .2.1.3.1l.1.1c.3.2.6.4.9.7l.2.2.1.1.1.1.1.1.1.1c.1.2.2.3.3.5l.1.1c.1.2.2.4.3.5l.1.1v.1l.1.1c.1.1.1.3.2.4l.1.1.1.1.1.1.1.2.1.2.1.2.1.1.1.1v.1l.1.1V93.1l.1.1v.1l.1.1.1.2.1.2.1.2c1.6 3.4 1.9 8 5.4 7.3l8-.2h.7c1.9 0 2.7-2.7 3.7-4.3h12V78.4c0-.5-.3-1-.7-1.1V62.5c0-.7-.6-1.3-1.3-1.3-.7 0-1.3.6-1.3 1.3v14.8c-.4.2-.7.6-.7 1.1v9.4H73l-.9-.7zm-29.3 0h-.7.7zm6 24.7h-1.2c-.4 0-.7 0-1-.1 2.1-.4 2.9-2.3 2.9-4.6v-7.4c0-.9-.2-2.1-.5-3.3 1.3 2.9 1.4 5.2 4 6.1v4.6c0 2.6-1.6 4.7-4.2 4.7zm-6.1-18.2c1.9 0 3.4 2.9 3.4 6.4 0 3.6-1.5 6.4-3.4 6.4s-3.4-2.9-3.4-6.4c0-3.6 1.5-6.4 3.4-6.4zm0-4.3c.4 0 .7.6.7 1.4 0 .8-.3 1.4-.7 1.4s-.7-.6-.7-1.4c0-.8.3-1.4.7-1.4zm.3 5.8c1.2 0 2.2 2.2 2.2 4.9s-1 4.9-2.2 4.9-2.2-2.2-2.2-4.9 1-4.9 2.2-4.9z"/>
    <path class="st0" d="M83.6 128.9V134.8c0 1.9-1.4 3.4-3.2 3.7l21.7-2c3.6-.3 6.5-3.4 6.5-7v-5.3h-12c-1 1.6-1.9 4.3-3.7 4.3h-.7l-8 .2c-.2 0-.4.1-.7.1l.1.1zm33.2-15.5h8.2c2.1 0 3.9 1.5 4.4 3.4.1.4.1.7.1 1.1v14.5c0 2.5-2 4.4-4.5 4.1l-8.2-.8c-2.5-.2-4.5-2.5-4.5-5v-.5h4c2.6 0 4.8-2.2 4.8-4.8V124c0-2.6-2.2-4.8-4.8-4.8h-4v-1.3c0-2.5 2-4.6 4.5-4.5zm-7.2 6.5h5.9c2.6 0 4.8 2.2 4.8 4.8 0 2.6-2.2 4.8-4.8 4.8h-5.9v-9.6zm-35.4 18.2h-1.6c-3.5 0-5.4-2.8-5.4-6.3V126c0-3.5 1.9-11.9 5.4-11.9 3.5 0 5.8 6.6 5.8 10.1v9.3c0 2.6-1.6 4.7-4.2 4.6zm27.9-24.7H72.8c-2.8-.5-8.4-1.8-8.4 2.7 0 1.5 1.7 6.4 2.5 8.5 0-3.7 1.2-10.7 5.1-11.2h.8c.5.1 1 .2 1.5.4l.1.1.1.1c.1 0 .2.1.3.1l.1.1c.3.2.6.4.9.7l.2.2.1.1.1.1.1.1.1.1c.1.2.2.3.3.5l.1.1c.1.2.2.4.3.5l.1.1v.1l.1.1c.1.1.1.3.2.4l.1.1.1.1.1.1.1.2.1.2.1.2.1.1.1.1v.1l.1.1V119.4l.1.1v.1l.1.1.1.2.1.2.1.2c1.6 3.4 1.9 8 5.4 7.3l8-.2h.7c1.9 0 2.7-2.7 3.7-4.3h12v-18.4c0-.5-.3-1-.7-1.1V88.8c0-.7-.6-1.3-1.3-1.3-.7 0-1.3.6-1.3 1.3v14.8c-.4.2-.7.6-.7 1.1v9.4H103l-.9-.7zm-29.3 0h-.7.7zm6 24.7h-1.2c-.4 0-.7 0-1-.1 2.1-.4 2.9-2.3 2.9-4.6V126c0-.9-.2-2.1-.5-3.3 1.3 2.9 1.4 5.2 4 6.1v4.6c0 2.6-1.6 4.7-4.2 4.7zm-6.1-18.2c1.9 0 3.4 2.9 3.4 6.4 0 3.6-1.5 6.4-3.4 6.4s-3.4-2.9-3.4-6.4c0-3.6 1.5-6.4 3.4-6.4zm0-4.3c.4 0 .7.6.7 1.4 0 .8-.3 1.4-.7 1.4-.4 0-.7-.6-.7-1.4 0-.8.3-1.4.7-1.4zm.3 5.8c1.2 0 2.2 2.2 2.2 4.9s-1 4.9-2.2 4.9c-1.2 0-2.2-2.2-2.2-4.9s1-4.9 2.2-4.9z"/>
    <path class="st0" d="M112.9 155.6V161.5c0 1.9-1.4 3.4-3.2 3.7l21.7-2c3.6-.3 6.5-3.4 6.5-7v-5.3h-12c-1 1.6-1.9 4.3-3.7 4.3h-.7l-8 .2c-.2 0-.4.1-.7.1l.1.1zm33.2-15.5h8.2c2.1 0 3.9 1.5 4.4 3.4.1.4.1.7.1 1.1v14.5c0 2.5-2 4.4-4.5 4.1l-8.2-.8c-2.5-.2-4.5-2.5-4.5-5v-.5h4c2.6 0 4.8-2.2 4.8-4.8v-1.4c0-2.6-2.2-4.8-4.8-4.8h-4v-1.3c0-2.5 2-4.6 4.6-4.6l-.1.1zm-7.2 6.5h5.9c2.6 0 4.8 2.2 4.8 4.8 0 2.6-2.2 4.8-4.8 4.8h-5.9v-9.6zm-35.4 18.2h-1.6c-3.5 0-5.4-2.8-5.4-6.3v-5.8c0-3.5 1.9-11.9 5.4-11.9 3.5 0 5.8 6.6 5.8 10.1v9.3c0 2.6-1.6 4.7-4.2 4.7v-.1zm27.9-24.7h-29.3c-2.8-.5-8.4-1.8-8.4 2.7 0 1.5 1.7 6.4 2.5 8.5 0-3.7 1.2-10.7 5.1-11.2h.8c.5.1 1 .2 1.5.4l.1.1.1.1c.1 0 .2.1.3.1l.1.1c.3.2.6.4.9.7l.2.2.1.1.1.1.1.1.1.1c.1.2.2.3.3.5l.1.1c.1.2.2.4.3.5l.1.1v.1l.1.1c.1.1.1.3.2.4l.1.1.1.1.1.1.1.2.1.2.1.2.1.1.1.1v.1l.1.1V146.1l.1.1v.1l.1.1.1.2.1.2.1.2c1.6 3.4 1.9 8 5.4 7.3l8-.2h.7c1.9 0 2.7-2.7 3.7-4.3h12v-18.4c0-.5-.3-1-.7-1.1v-14.8c0-.7-.6-1.3-1.3-1.3-.7 0-1.3.6-1.3 1.3v14.8c-.4.2-.7.6-.7 1.1v9.4h-1.7l-.9-.7zm-29.3 0h-.7.7zm6 24.7h-1.2c-.4 0-.7 0-1-.1 2.1-.4 2.9-2.3 2.9-4.6v-7.4c0-.9-.2-2.1-.5-3.3 1.3 2.9 1.4 5.2 4 6.1v4.6c0 2.6-1.6 4.7-4.2 4.7zm-6.1-18.2c1.9 0 3.4 2.9 3.4 6.4 0 3.6-1.5 6.4-3.4 6.4s-3.4-2.9-3.4-6.4c0-3.6 1.5-6.4 3.4-6.4zm0-4.3c.4 0 .7.6.7 1.4 0 .8-.3 1.4-.7 1.4s-.7-.6-.7-1.4c0-.8.3-1.4.7-1.4zm.3 5.8c1.2 0 2.2 2.2 2.2 4.9s-1 4.9-2.2 4.9c-1.2 0-2.2-2.2-2.2-4.9s1-4.9 2.2-4.9z"/>
</symbol></svg>