<?xml version="1.0" encoding="UTF-8"?><!DOCTYPE svg PUBLIC "-//W3C//DTD SVG 1.1//EN" "http://www.w3.org/Graphics/SVG/1.1/DTD/svg11.dtd"><svg xmlns="http://www.w3.org/2000/svg" xmlns:xlink="http://www.w3.org/1999/xlink"><symbol id="icon-arrow" viewBox="0 0 36 36">
    <path class="st0" d="M18 3.3C9.9 3.3 3.3 9.9 3.3 18S9.9 32.7 18 32.7 32.7 26.1 32.7 18 26.1 3.3 18 3.3zM0 18C0 8.1 8.1 0 18 0s18 8.1 18 18-8.1 18-18 18S0 27.9 0 18z"/>
    <path class="st1" d="M19.2 10.3c-.6-.6-1.7-.6-2.3 0-.6.6-.6 1.7 0 2.3l3.8 3.8h-9.1c-.9 0-1.6.7-1.6 1.6s.7 1.6 1.6 1.6h9.1l-3.8 3.8c-.6.6-.6 1.7 0 2.3.6.6 1.7.6 2.3 0l6.5-6.5c.6-.6.6-1.7 0-2.3l-6.5-6.6z"/>
</symbol><symbol id="icon-callback--icon" viewBox="0 0 15 14">
    <path class="st0" d="M8.9 10.1c.2.1.4.2.6.2.2 0 .3-.2.4-.3.3-.3 1.1-1.4 1.1-1.4s.3-.3.7-.1c.4.3 1.4 1 3.1 2 .3.2.1.6.1.6s-1.2 1.9-3 2.8c-.4.3-1.4 0-1.4 0S2.8 12.2.1 4.3c-.2-.4 0-1 0-1S.3 1.9 2.5.1c.3-.3.7 0 .7 0S4.3 1.2 5.6 3c.1.1.1.2.1.3 0 .1-.1.2-.1.3C4.6 4.3 4.1 5 4 5.2c-.1.1-.1.3.1.6S6 8.7 8.9 10.1z"/>
</symbol><symbol id="icon-compare--icon" viewBox="0 0 40 30">
    <path class="st0" d="M21 27.8c0 .7-.6 1.3-1.3 1.3-.7 0-1.3-.6-1.3-1.3V1.3c0-.7.6-1.3 1.3-1.3.7 0 1.3.6 1.3 1.3v26.5z"/>
    <path class="st1" d="M6.8 16.4H.6c0 3.4 2.8 6.2 6.2 6.2 3.4 0 6.2-2.8 6.2-6.2H6.8z"/>
    <path class="st0" d="M13.5 30c-.7 0-1.3-.6-1.3-1.3 0-.7.6-1.3 1.3-1.3h12.2c.7 0 1.3.6 1.3 1.3 0 .7-.6 1.3-1.3 1.3H13.5z"/>
    <path class="st1" d="M33.2 16.4H27c0 3.4 2.8 6.2 6.2 6.2 3.4 0 6.2-2.8 6.2-6.2h-6.2z"/>
    <path class="st0" d="M26.9 16.2l5.2-12.1.8-1.7.8 1.7L39.2 16l-1.6.7-4.8-10.3-4.2 10.2-1.7-.4z"/>
    <path class="st0" d="M.5 16.2L5.7 4.1l.7-1.7.8 1.7L12.7 16l-1.6.7L6.3 6.4 2.2 16.6l-1.7-.4z"/>
    <path class="st0" d="M8.1 6.8c-.7 0-1.3-.6-1.3-1.3 0-.7.6-1.3 1.3-1.3h23.1c.7 0 1.3.6 1.3 1.3 0 .7-.6 1.3-1.3 1.3H8.1z"/>
</symbol><symbol id="icon-message--icon" viewBox="0 0 29 20">
    <path class="st0" d="M29 18.4V1.8l-10 8.4 10 8.2zM29 0H0l14.5 12L29 0zM0 1.8v16.6l10-8.2L0 1.8zM14.5 14l-3.6-3L.6 19.5c.4.3.9.5 1.5.5h24.8c.5 0 1-.2 1.4-.5L18.1 11l-3.6 3z"/>
</symbol><symbol id="icon-nav-arrow--icon" viewBox="0 0 98 23">
    <path class="st0" d="M61.9 8.2c-.4 1-.9 1.8-1.5 2.6L50.9 22s-1.7 2.2-3.4 0S38 10.9 38 10.9c-.6-.8-1.1-1.7-1.5-2.6h4.2c1.5 1.7 6.3 7.3 8.5 10l8.5-10h4.2v-.1z"/>
    <path class="st0" d="M98 13.6c-.2.6-.5 1.2-.9 1.7l-6 7.1s-1.1 1.4-2.1 0c-1.1-1.4-6-7.1-6-7.1-.4-.5-.7-1.1-.9-1.7h2.6c.9 1.1 4 4.6 5.4 6.3l5.4-6.3H98z"/>
    <path class="st0" d="M16.2 13.5c-.2.6-.6 1.2-.9 1.7l-6.1 7.1s-1.1 1.4-2.2 0S.9 15.2.9 15.2c-.4-.5-.7-1.1-.9-1.7h2.7c.9 1.1 4 4.7 5.4 6.4l5.4-6.4h2.7z"/>
    <path class="st0" d="M57.2 0c-.2.6-.5 1.2-.9 1.7l-6 7.1s-1.1 1.4-2.1 0c-1.1-1.4-6-7.1-6-7.1-.4-.5-.7-1.1-.9-1.7h2.6c.9 1.1 4 4.6 5.4 6.3L54.6 0h2.6z"/>
</symbol><symbol id="icon-news--icon" viewBox="0 0 34 24">
    <path class="st0" d="M3.1 4.4h16.6c1.7 0 3.1 1.4 3.1 3.1v8.4c0 1.7-1.4 3.1-3.1 3.1h-8.1l-5 5.2-.1-5.2H3.2C1.5 19 .1 17.6.1 15.9V7.4c-.1-2.9 2.8-2.8 3-3z"/>
    <path class="st0" d="M30.9 0H14.3c-1.7 0-3.1 1.4-3.1 3.1v.4h10c1.7 0 3.1 1.4 3.1 3.1V15c0 .5-.1.9-.3 1.3l3.4 3.5.1-5.2h3.3c1.7 0 3.1-1.4 3.1-3.1V3.1c.1-3-2.8-2.9-3-3.1z"/>
</symbol><symbol id="icon-search--icon" viewBox="0 0 16 16">
    <path class="st0" d="M15.7 14.3l-4-4c.8-1 1.3-2.4 1.3-3.8C13 2.9 10.1 0 6.5 0S0 2.9 0 6.5 2.9 13 6.5 13c1.4 0 2.8-.5 3.8-1.3l4 4c.4.4 1 .4 1.4 0 .4-.4.4-1 0-1.4zM2 6.5C2 4 4 2 6.5 2S11 4 11 6.5 9 11 6.5 11 2 9 2 6.5z"/>
</symbol></svg>