<?xml version="1.0" encoding="utf-8"?>
<!-- Generator: Adobe Illustrator 23.0.1, SVG Export Plug-In . SVG Version: 6.00 Build 0)  -->
<svg version="1.1" id="Слой_1" xmlns="http://www.w3.org/2000/svg" xmlns:xlink="http://www.w3.org/1999/xlink" x="0px" y="0px"
	 viewBox="0 0 23 25" style="enable-background:new 0 0 23 25;" xml:space="preserve">
<style type="text/css">
	.st0{fill-rule:evenodd;clip-rule:evenodd;fill:#61B0BA;}
</style>
<g>
	<path class="st0" d="M0,4.3c0,0.7,1.1,7.6,5.7,13c4.6,5.4,11.3,7.7,12,7.8c0.7,0.1,1.6-0.1,2.3-0.7c0.7-0.6,2.5-3.3,2.7-3.7
		c0.2-0.3,0.4-0.7,0-1c-0.4-0.4-5.4-4.4-5.8-4.6c-0.5-0.2-0.9,0.1-1.1,0.3s-2.3,2.6-2.5,2.9c-0.2,0.3-0.4,0.5-0.9,0.2
		c-0.5-0.2-2.8-1.9-4.1-3.4C7,13.6,5.8,11,5.7,10.5C5.6,10,5.8,9.8,6.1,9.7C6.4,9.5,9.1,8,9.4,7.8c0.2-0.2,0.6-0.5,0.5-1
		c-0.1-0.5-3.3-6-3.6-6.4C5.9-0.1,5.6,0,5.2,0.1c-0.4,0.1-3.4,1.4-4.2,2C0.4,2.7,0,3.6,0,4.3L0,4.3z"/>
</g>
</svg>
