<?xml version="1.0" encoding="utf-8"?>
<!-- Generator: Adobe Illustrator 23.0.1, SVG Export Plug-In . SVG Version: 6.00 Build 0)  -->
<svg version="1.1" id="Слой_1" xmlns="http://www.w3.org/2000/svg" xmlns:xlink="http://www.w3.org/1999/xlink" x="0px" y="0px"
	 viewBox="0 0 25 26" style="enable-background:new 0 0 25 26;" xml:space="preserve">
<style type="text/css">
	.st0{fill:#61B0BA;}
	.st1{fill-rule:evenodd;clip-rule:evenodd;fill:#61B0BA;}
</style>
<g>
	<path class="st0" d="M12.5,0c3.5,0,6.6,1.5,8.8,3.8C23.6,6.2,25,9.4,25,13c0,3.6-1.4,6.8-3.7,9.2C19.1,24.5,16,26,12.5,26
		c-3.5,0-6.6-1.5-8.8-3.8C1.4,19.8,0,16.6,0,13c0-3.6,1.4-6.8,3.7-9.2C5.9,1.5,9,0,12.5,0L12.5,0z M19.5,5.7c-1.8-1.9-4.3-3-7-3
		c-2.7,0-5.2,1.2-7,3C3.7,7.6,2.6,10.2,2.6,13c0,2.8,1.1,5.4,2.9,7.3c1.8,1.9,4.3,3,7,3c2.7,0,5.2-1.2,7-3c1.8-1.9,2.9-4.4,2.9-7.3
		C22.4,10.2,21.3,7.6,19.5,5.7L19.5,5.7z"/>
	<path class="st1" d="M13.5,11.9c0,0,0.1,0.1,0.1,0.1c0.2,0.2,0.2,0.3,0.3,0.5c0,0.1,0.2,0.2,0.3,0.2c0.1,0,0.1,0.1,0.2,0.1
		c0.1,0,0.1,0.1,0.2,0.1c0.2,0.2,0.5,0.3,0.7,0.4l1.5,0.9c0.1,0.1,0.2,0.1,0.4,0.2c0.2,0.1,0.9,0.6,1.1,0.7c0.4,0.3,0.5,0.9,0.3,1.3
		c-0.1,0.2-0.4,0.4-0.6,0.4c-0.2,0-0.3,0-0.5-0.1c-0.1-0.1-0.4-0.2-0.5-0.3c-0.1-0.1-0.2-0.1-0.3-0.2l-1.1-0.6
		c-0.1-0.1-0.2-0.1-0.3-0.2l-1.3-0.8c-0.1-0.1-0.2-0.1-0.3-0.2c-0.4-0.3-0.2-0.1-0.6,0c-0.3,0.1-0.7,0.1-1.1-0.1
		c-0.1,0-0.2-0.1-0.2-0.1c-0.1-0.1-0.1,0-0.2-0.2c-0.1-0.1-0.1-0.1-0.2-0.2c-0.5-0.6-0.3-1.5,0.2-2.1c0.1-0.1,0.1,0,0.1-0.2
		c0-1.1,0-2.2,0-3.2c0-0.9,0-1.7,0-2.6c0-0.5,0-1,0.3-1.4c0.3-0.3,0.7-0.5,1-0.2c0.3,0.2,0.5,0.6,0.5,1.1v6.4
		C13.5,11.8,13.5,11.8,13.5,11.9L13.5,11.9z"/>
</g>
</svg>
