<?xml version="1.0" encoding="utf-8"?>
<!-- Generator: Adobe Illustrator 23.0.1, SVG Export Plug-In . SVG Version: 6.00 Build 0)  -->
<svg version="1.1" id="Слой_1" xmlns="http://www.w3.org/2000/svg" xmlns:xlink="http://www.w3.org/1999/xlink" x="0px" y="0px"
	 viewBox="0 0 25 32" style="enable-background:new 0 0 25 32;" xml:space="preserve">
<style type="text/css">
	.st0{fill-rule:evenodd;clip-rule:evenodd;fill:#5EB8C3;}
</style>
<g>
	<path class="st0" d="M12.5,19.1c-3.7,0-6.8-3-6.8-6.7c0-3.7,3-6.7,6.8-6.7c3.7,0,6.8,3,6.8,6.7C19.3,16.1,16.2,19.1,12.5,19.1
		L12.5,19.1z M25,12.4C25,5.6,19.4,0,12.5,0C5.6,0,0,5.6,0,12.4c0,2.3,0.6,4.5,1.8,6.3h0l0,0l0.1,0.1C4.7,23.8,12.5,32,12.5,32
		c0,0,7.8-8.2,10.7-13.1l0.1-0.1l0,0h0C24.4,16.9,25,14.7,25,12.4L25,12.4z"/>
</g>
</svg>
