<?xml version="1.0" encoding="utf-8"?>
<!-- Generator: Adobe Illustrator 23.0.1, SVG Export Plug-In . SVG Version: 6.00 Build 0)  -->
<svg version="1.1" id="Слой_1" xmlns="http://www.w3.org/2000/svg" xmlns:xlink="http://www.w3.org/1999/xlink" x="0px" y="0px"
	 viewBox="0 0 89 42" style="enable-background:new 0 0 89 42;" xml:space="preserve">
<style type="text/css">
	.st0{fill-rule:evenodd;clip-rule:evenodd;fill:#D34C54;}
	.st1{fill:#FFFFFF;}
</style>
<g>
	<path class="st0" d="M4.6,0.3h32.7c2.4,0,4.3,1.9,4.3,4.3v32.7c0,2.4-1.9,4.3-4.3,4.3H4.6c-2.4,0-4.3-1.9-4.3-4.3V4.6
		C0.3,2.3,2.2,0.3,4.6,0.3L4.6,0.3z M8,7.2h8.4v10.3l8.9-10.3h11.2l-10,10.3L37,34.6H26.6l-5.8-11.2l-4.4,4.6v6.7H8V7.2L8,7.2z"/>
	<path class="st1" d="M57.1,9.9c-1,0-1.9,0.2-2.8,0.5c-0.8,0.4-1.6,0.9-2.3,1.6c-0.7,0.7-1.2,1.5-1.6,2.3c-0.3,0.8-0.5,1.8-0.5,2.8
		c0,2,0.7,3.7,2.1,5.1c1.4,1.4,3.1,2.1,5.1,2.1c2,0,3.7-0.7,5.1-2.1c1.4-1.4,2.1-3.1,2.1-5.1c0-2-0.7-3.7-2.1-5.1
		C60.8,10.6,59.1,9.9,57.1,9.9L57.1,9.9z M66.9,17.1c0,2.7-1,5-2.9,6.9c-1.9,1.9-4.2,2.9-6.9,2.9c-2.7,0-5-1-7-2.9
		c-1.9-1.9-2.9-4.2-2.9-6.9c0-2.7,1-5,2.9-6.9c1.9-1.9,4.2-2.9,7-2.9c2.7,0,5,1,6.9,2.9c1,1,1.7,2,2.2,3.2
		C66.7,14.5,66.9,15.7,66.9,17.1L66.9,17.1z M72.4,9.9v5h2.5c0.3,0,0.7-0.1,1-0.2c0.3-0.1,0.6-0.3,0.8-0.5c0.2-0.2,0.4-0.5,0.5-0.8
		c0.1-0.3,0.2-0.6,0.2-1c0-0.3-0.1-0.6-0.2-0.9c-0.1-0.3-0.3-0.6-0.5-0.8c-0.2-0.2-0.5-0.4-0.8-0.5c-0.3-0.1-0.6-0.2-0.9-0.2H72.4
		L72.4,9.9z M72.4,17.4v6.8h3.4c0.5,0,0.9-0.1,1.3-0.3c0.4-0.2,0.8-0.4,1.1-0.7c0.3-0.3,0.6-0.7,0.7-1.1c0.2-0.4,0.3-0.9,0.3-1.3
		c0-0.5-0.1-0.9-0.3-1.3c-0.2-0.4-0.4-0.8-0.7-1.1c-0.3-0.3-0.7-0.6-1.1-0.7c-0.4-0.2-0.9-0.3-1.3-0.3H72.4L72.4,17.4z M74.9,7.3
		c0.7,0,1.3,0.1,2,0.4c0.6,0.3,1.2,0.6,1.6,1.1c0.5,0.5,0.8,1,1.1,1.6c0.3,0.6,0.4,1.3,0.4,2c0,1.2-0.4,2.3-1.2,3.3
		c0.5,0.3,0.9,0.6,1.3,1c0.4,0.4,0.7,0.8,1,1.3c0.3,0.5,0.5,0.9,0.6,1.4c0.1,0.5,0.2,1,0.2,1.5c0,0.8-0.2,1.6-0.5,2.3
		c-0.3,0.7-0.7,1.4-1.3,1.9c-0.5,0.5-1.2,1-1.9,1.3c-0.7,0.3-1.5,0.5-2.3,0.5h-4.7c-0.2,0-0.3,0-0.5-0.1c-0.2-0.1-0.3-0.2-0.4-0.3
		c-0.1-0.1-0.2-0.3-0.3-0.4c-0.1-0.2-0.1-0.3-0.1-0.5v-17c0-0.2,0-0.3,0.1-0.5c0.1-0.2,0.2-0.3,0.3-0.4c0.1-0.1,0.3-0.2,0.4-0.3
		c0.2-0.1,0.3-0.1,0.5-0.1H74.9L74.9,7.3z M88.1,25.6c0,0.4-0.1,0.7-0.4,0.9c-0.3,0.3-0.6,0.4-0.9,0.4s-0.7-0.1-0.9-0.4
		c-0.3-0.3-0.4-0.6-0.4-0.9v-17c0-0.4,0.1-0.7,0.4-0.9c0.3-0.3,0.6-0.4,0.9-0.4s0.7,0.1,0.9,0.4c0.3,0.3,0.4,0.6,0.4,0.9V25.6
		L88.1,25.6z"/>
	<path class="st1" d="M48.8,34c-0.3-0.1-0.5-0.2-0.6-0.3c-0.2-0.2-0.3-0.5-0.3-0.8c0-0.3,0.1-0.6,0.3-0.8c0.4-0.4,1-0.7,1.7-0.7
		c0.8,0,1.4,0.3,2,0.9c0,0.1,0.1,0.1,0.1,0.2c0,0.1,0,0.2-0.1,0.3c-0.1,0.1-0.2,0.1-0.3,0.1c-0.1,0-0.2,0-0.2-0.1
		c-0.1-0.1-0.1-0.1-0.1-0.1c-0.4-0.4-0.8-0.5-1.3-0.5s-0.9,0.2-1.2,0.5c-0.1,0.1-0.1,0.2-0.1,0.3c0,0.1,0.1,0.2,0.2,0.3l2.3,0.7
		c0.3,0.1,0.5,0.2,0.6,0.3c0.2,0.2,0.3,0.5,0.3,0.8c0,0.3-0.1,0.6-0.3,0.8c-0.4,0.4-1,0.7-1.7,0.7c-0.8,0-1.4-0.3-2-0.9
		c0-0.1-0.1-0.1-0.1-0.2c0-0.1,0-0.2,0.1-0.3s0.2-0.1,0.3-0.1c0.1,0,0.2,0,0.2,0.1c0.1,0.1,0.1,0.1,0.1,0.1c0.4,0.4,0.8,0.5,1.3,0.5
		s0.9-0.2,1.2-0.5c0.1-0.1,0.1-0.2,0.1-0.3c0-0.1-0.1-0.2-0.2-0.3L48.8,34L48.8,34z M57.9,34c0,0.7-0.3,1.3-0.8,1.8
		c-0.5,0.5-1.1,0.8-1.8,0.8c-0.7,0-1.3-0.3-1.8-0.8c-0.5-0.5-0.8-1.1-0.8-1.8c0-0.7,0.3-1.3,0.8-1.8c0.5-0.5,1.1-0.8,1.8-0.8
		c0.7,0,1.3,0.3,1.8,0.8C57.7,32.7,57.9,33.3,57.9,34L57.9,34z M55.3,32.1c-0.5,0-0.9,0.2-1.3,0.5c-0.4,0.4-0.5,0.8-0.5,1.3
		c0,0.5,0.2,0.9,0.5,1.3c0.4,0.4,0.8,0.5,1.3,0.5c0.5,0,0.9-0.2,1.3-0.5c0.4-0.4,0.5-0.8,0.5-1.3c0-0.5-0.2-0.9-0.5-1.3
		C56.3,32.3,55.8,32.1,55.3,32.1L55.3,32.1z M61.6,29.2c0.1,0,0.2,0,0.3,0.1c0.1,0.1,0.1,0.2,0.1,0.3c0,0.1,0,0.2-0.1,0.3
		c-0.1,0.1-0.2,0.1-0.3,0.1c-1,0-1.5,0.5-1.5,1.5v0.3h1.1c0.1,0,0.2,0,0.3,0.1c0.1,0.1,0.1,0.2,0.1,0.3c0,0.1,0,0.2-0.1,0.3
		c-0.1,0.1-0.2,0.1-0.3,0.1h-1.1v3.8c0,0.1,0,0.2-0.1,0.3c-0.1,0.1-0.2,0.1-0.3,0.1c-0.1,0-0.2,0-0.3-0.1s-0.1-0.2-0.1-0.3v-3.8H59
		c-0.1,0-0.2,0-0.3-0.1c-0.1-0.1-0.1-0.2-0.1-0.3c0-0.1,0-0.2,0.1-0.3c0.1-0.1,0.2-0.1,0.3-0.1h0.4l0-0.3
		C59.4,29.9,60.1,29.2,61.6,29.2L61.6,29.2z M64.9,35.8c0.1,0,0.2,0,0.3,0.1c0.1,0.1,0.1,0.2,0.1,0.3s0,0.2-0.1,0.3
		c-0.1,0.1-0.2,0.1-0.3,0.1c-1.2,0-1.8-0.6-1.8-1.8v-2.6h-0.4c-0.1,0-0.2,0-0.3-0.1c-0.1-0.1-0.1-0.2-0.1-0.3c0-0.1,0-0.2,0.1-0.3
		c0.1-0.1,0.2-0.1,0.3-0.1H63l0-1.8c0-0.1,0-0.2,0.1-0.3c0.1-0.1,0.2-0.1,0.3-0.1c0.1,0,0.2,0,0.3,0.1c0.1,0.1,0.1,0.2,0.1,0.3v1.8
		h0.7c0.1,0,0.2,0,0.3,0.1c0.1,0.1,0.1,0.2,0.1,0.3c0,0.1,0,0.2-0.1,0.3c-0.1,0.1-0.2,0.1-0.3,0.1h-0.7v2.6
		C63.8,35.5,64.1,35.8,64.9,35.8L64.9,35.8z M69,31.5c0.1-0.1,0.2-0.1,0.3-0.1c0.1,0,0.2,0,0.3,0.1c0,0,0.1,0.1,0.1,0.2l1.1,3.3
		l1.1-3.4c0,0,0-0.1,0.1-0.1c0.1-0.1,0.2-0.1,0.3-0.1c0.1,0,0.2,0,0.3,0.1c0.1,0.1,0.1,0.2,0.1,0.3c0,0.1,0,0.1,0,0.1l-1.5,4.4
		c0,0,0,0.1-0.1,0.1c-0.1,0.1-0.2,0.1-0.3,0.1c-0.1,0-0.2,0-0.3-0.1c0,0-0.1-0.1-0.1-0.1l-1.1-3.4l-1.1,3.4c0,0,0,0.1-0.1,0.1
		c-0.1,0.1-0.2,0.1-0.3,0.1c-0.1,0-0.2,0-0.3-0.1c0,0-0.1-0.1-0.1-0.1L66,31.9c0,0,0-0.1,0-0.1c0-0.1,0-0.2,0.1-0.3
		c0.1-0.1,0.2-0.1,0.3-0.1c0.1,0,0.2,0,0.3,0.1c0,0,0.1,0.1,0.1,0.1l1.1,3.4l1.1-3.3C68.9,31.6,69,31.6,69,31.5L69,31.5z M75.9,32.1
		c-0.5,0-0.9,0.2-1.3,0.5c-0.4,0.4-0.5,0.8-0.5,1.3c0,0.5,0.2,0.9,0.5,1.3c0.4,0.4,0.8,0.5,1.3,0.5c0.5,0,0.9-0.2,1.3-0.5
		c0.4-0.4,0.5-0.8,0.5-1.3c0-0.5-0.2-0.9-0.5-1.3C76.8,32.3,76.4,32.1,75.9,32.1L75.9,32.1z M77.7,35.8c-0.5,0.5-1.1,0.8-1.8,0.8
		c-0.7,0-1.3-0.3-1.8-0.8c-0.5-0.5-0.8-1.1-0.8-1.8c0-0.7,0.3-1.3,0.8-1.8c0.5-0.5,1.1-0.8,1.8-0.8c0.7,0,1.3,0.3,1.8,0.8
		c0.5,0.5,0.8,1.1,0.8,1.8v2.2c0,0.1,0,0.2-0.1,0.3c-0.1,0.1-0.2,0.1-0.3,0.1c-0.1,0-0.2,0-0.3-0.1c-0.1-0.1-0.1-0.2-0.1-0.3V35.8
		L77.7,35.8z M79.2,31.8c0-0.1,0-0.2,0.1-0.3c0.1-0.1,0.2-0.1,0.3-0.1c0.1,0,0.2,0,0.3,0.1c0.1,0.1,0.1,0.2,0.1,0.3v0.4
		c0.5-0.5,1.1-0.8,1.8-0.8c0.4,0,0.7,0.1,1,0.2c0.1,0,0.1,0.1,0.2,0.1C83,31.8,83,31.9,83,32c0,0.1,0,0.2-0.1,0.3
		c-0.1,0.1-0.2,0.1-0.3,0.1c-0.1,0-0.1,0-0.2,0c-0.2-0.1-0.5-0.1-0.7-0.1c-0.5,0-0.9,0.2-1.3,0.5c-0.4,0.4-0.5,0.8-0.5,1.3v2.2
		c0,0.1,0,0.2-0.1,0.3c-0.1,0.1-0.2,0.1-0.3,0.1c-0.1,0-0.2,0-0.3-0.1s-0.1-0.2-0.1-0.3V31.8L79.2,31.8z M88,33.6
		c-0.1-0.4-0.2-0.7-0.5-0.9c-0.4-0.4-0.8-0.5-1.3-0.5c-0.5,0-0.9,0.2-1.3,0.5c-0.3,0.3-0.4,0.6-0.5,0.9H88L88,33.6z M87.6,35.3
		c0.1,0,0.2,0,0.3,0.1c0.1,0.1,0.1,0.2,0.1,0.3c0,0.1,0,0.2-0.1,0.3c-0.5,0.4-1,0.6-1.7,0.6c-0.7,0-1.3-0.3-1.8-0.8
		c-0.5-0.5-0.8-1.1-0.8-1.8c0-0.7,0.3-1.3,0.8-1.8c0.5-0.5,1.1-0.8,1.8-0.8c0.7,0,1.3,0.3,1.8,0.8c0.5,0.5,0.8,1.1,0.8,1.8
		c0,0.1,0,0.2-0.1,0.3c-0.1,0.1-0.2,0.1-0.3,0.1h-4c0.1,0.4,0.2,0.7,0.5,0.9c0.4,0.4,0.8,0.5,1.3,0.5c0.5,0,0.9-0.1,1.2-0.4
		C87.4,35.3,87.5,35.3,87.6,35.3L87.6,35.3z"/>
</g>
</svg>
